<?xml version="1.0" standalone="no"?>
<!DOCTYPE svg PUBLIC "-//W3C//DTD SVG 1.1//EN" "http://www.w3.org/Graphics/SVG/1.1/DTD/svg11.dtd" >
<svg xmlns="http://www.w3.org/2000/svg">
<metadata></metadata>
<defs>
<font id="osnova_pronormal" horiz-adv-x="1212" >
<font-face units-per-em="2048" ascent="1536" descent="-512" />
<missing-glyph horiz-adv-x="557" />
<glyph unicode="&#x3c;&#x2d;&#x2d;" horiz-adv-x="1503" d="M162 569l620 480l76 -95l-442 -327h981v-117h-981l442 -326l-76 -94z" />
<glyph unicode="&#x2d;&#x2d;&#x3e;" horiz-adv-x="1458" d="M111 510v117h981l-441 327l76 95l621 -480l-621 -479l-76 94l439 326h-979z" />
<glyph unicode="ff" horiz-adv-x="1372" d="M98 891v129l127 4v145q0 198 70 291.5t237 93.5q50 0 91.5 -7t65 -17t39.5 -20.5t22 -17.5l6 -7l-35 -99q-5 4 -15.5 10.5t-52 17.5t-94.5 11q-90 0 -130 -62t-40 -210v-129h465v145q0 198 70 291.5t237 93.5q50 0 91 -7t64.5 -17t40 -20.5t21.5 -17.5l6 -7l-34 -99 q-5 4 -15.5 10.5t-52 17.5t-94.5 11q-90 0 -130 -62t-40 -210v-129h352v-133h-352v-891h-164v891h-465v-891h-164v891h-127z" />
<glyph unicode="fi" horiz-adv-x="1236" d="M98 891v129l127 4v145q0 198 70 291.5t237 93.5q50 0 91.5 -7t65 -17t39.5 -20.5t22 -17.5l6 -7l-35 -99q-5 4 -15.5 10.5t-52 17.5t-94.5 11q-90 0 -130 -62t-40 -210v-129h352v-133h-352v-891h-164v891h-127zM895 0v1024h166v-1024h-166zM909 1249v142h148v-142h-148z " />
<glyph unicode="fl" horiz-adv-x="1236" d="M98 891v129l127 4v145q0 198 70 291.5t237 93.5q50 0 91.5 -7t65 -17t39.5 -20.5t22 -17.5l6 -7l-35 -99q-5 4 -15.5 10.5t-52 17.5t-94.5 11q-90 0 -130 -62t-40 -210v-129h352v-133h-352v-891h-164v891h-127zM897 0v1536h166v-1536h-166z" />
<glyph unicode="ft" horiz-adv-x="1417" d="M98 891v129l127 4v145q0 198 70 291.5t237 93.5q50 0 91.5 -7t65 -17t39.5 -20.5t22 -17.5l6 -7l-35 -99q-5 4 -15.5 10.5t-52 17.5t-94.5 11q-90 0 -130 -62t-40 -210v-129h473v315l133 17l31 2v-334h313v-133h-313v-580q0 -102 32.5 -152t104.5 -50q44 0 86.5 5 t62.5 10l21 5v-115q-7 -5 -22.5 -12t-72.5 -19t-126 -12q-128 0 -189 73t-61 230v617h-473v-891h-164v891h-127z" />
<glyph unicode="tt" horiz-adv-x="1396" d="M94 891v129l127 2v317l133 17l31 2v-334h457v315l133 17l31 2v-334h313v-133h-313v-580q0 -102 32.5 -152t104.5 -50q44 0 86.5 5t62.5 10l21 5v-115q-7 -5 -22.5 -12t-72.5 -19t-126 -12q-128 0 -189 73t-61 230v617h-457v-580q0 -102 32.5 -152t104.5 -50q44 0 86.5 5 t63.5 10l20 5v-115q-7 -5 -22.5 -12t-72.5 -19t-126 -12q-128 0 -189 73t-61 230v617h-127z" />
<glyph unicode="&#x407;&#x407;" horiz-adv-x="1253" d="M59 1526v141h146v-141h-146zM227 0v1331h172v-1331h-172zM387 1526v141h145v-141h-145zM723 1526v141h143v-141h-143zM854 0v1331h172v-1331h-172zM1051 1526v141h145v-141h-145z" />
<glyph unicode="&#x27;&#x457;" horiz-adv-x="669" d="M-18 1067q34 27 55 46.5t50.5 52t46.5 63t29.5 73t12.5 87.5h-49v147h164q6 -44 6 -82q0 -152 -70.5 -271t-171.5 -175zM328 0v1024h166v-1024h-166zM522 1249v142h146v-142h-146z" />
<glyph unicode="&#x457;&#x457;" horiz-adv-x="1067" d="M2 1249v142h145v-142h-145zM174 0v1024h166v-1024h-166zM305 1249v142h146v-142h-146zM621 1249v142h145v-142h-145zM727 0v1024h166v-1024h-166zM922 1249v142h145v-142h-145z" />
<glyph unicode="&#x456;&#x457;" horiz-adv-x="1067" d="M174 0v1024h166v-1024h-166zM186 1249v142h148v-142h-148zM594 1249v142h143v-142h-143zM727 0v1024h166v-1024h-166zM922 1249v142h145v-142h-145z" />
<glyph unicode="&#x2d;&#x2d;&#x2a;" horiz-adv-x="1998" d="M55 575q0 130 79.5 214.5t246.5 84.5q57 0 111 -9t107.5 -31t93 -40.5t94 -55.5t83 -57.5t86.5 -64.5q-20 72 -20 127q0 92 41.5 165t116.5 108t149 35q75 0 140.5 -36t103.5 -106q47 -86 47 -227q0 -55 -9 -148.5t-9 -125.5q0 -92 47 -105q77 0 134.5 23.5t89.5 63.5 t47 86t15 99h95q0 -57 -11.5 -108t-40 -100t-72 -84t-111.5 -56.5t-155 -21.5q-25 0 -75 4q-61 -18 -106.5 -55.5t-100 -88.5t-119.5 -88q-87 -51 -186 -51q-92 0 -172 45t-127 119q-45 68 -45 150q0 76 41 143.5t118 112.5l80 43q-78 59 -121 89.5t-111 71t-130 58.5 t-125 18q-118 0 -171.5 -55.5t-53.5 -145.5h-95zM754 260q0 -55 28 -106q33 -53 86 -84t115 -31q67 0 131 37q41 23 109 83.5t120 86.5q-111 42 -274 143q-30 17 -104 70q-80 -11 -103 -25q-108 -64 -108 -174zM1047 758q0 -123 79 -260q8 -6 34.5 -23.5t35 -23t31.5 -20.5 t32.5 -20.5t29 -17.5t30 -17.5t27.5 -15t29 -14.5t26.5 -11t28.5 -11q-17 55 -17 163q0 25 1 78t1 78q0 142 -33 197q-55 96 -157 96q-53 0 -103 -27q-75 -42 -75 -151z" />
<glyph unicode="&#x28;&#x2d;&#x2d;" horiz-adv-x="2154" d="M20 512v117q142 0 270.5 -31t226 -80.5t188.5 -109.5t175.5 -119.5t168 -109t185.5 -80.5t210 -31q111 0 199.5 19.5t148.5 56t103 83t66 105.5t33.5 117.5t10.5 125.5h94q0 -67 -9 -129t-30.5 -125t-55.5 -116.5t-86.5 -100.5t-120 -80t-159.5 -52t-202 -19 q-118 0 -227 31t-197.5 80t-175 109t-175.5 119.5t-181.5 108.5t-211.5 80t-248 31z" />
<glyph unicode="&#x2a;&#x2d;&#x2d;" horiz-adv-x="1998" d="M55 573q0 72 19.5 134.5t62 117.5t121.5 87t186 32q38 0 76 -6q49 15 89 42t66.5 55t73 66.5t99.5 69.5q86 52 184 52q92 0 172 -45t127 -119q47 -71 47 -150q0 -75 -41.5 -143t-119.5 -113q-61 -35 -80 -43q74 -57 120.5 -90t112.5 -72t128.5 -57t125.5 -18 q118 0 171.5 55t53.5 145h95q0 -130 -79.5 -214.5t-246.5 -84.5h-6q-57 0 -111 9t-107 30.5t-92.5 40.5t-93.5 55.5t-83 58t-85 64.5q21 -67 21 -131q0 -91 -40.5 -162t-115.5 -106t-149 -35q-75 0 -140.5 36t-103.5 106q-45 87 -45 225q0 56 8 150.5t8 127.5q0 90 -45 103 q-78 0 -136 -23.5t-90 -63.5t-47 -86.5t-15 -99.5h-95zM569 823q17 -64 17 -157q0 -26 -1 -82t-1 -82q0 -143 32 -193q55 -96 160 -96q54 0 101 27q77 43 77 153q0 123 -80 258q-15 10 -67.5 43.5t-69.5 44t-53.5 31.5t-62 32.5t-52.5 20.5zM655 903q99 -37 275 -143 q40 -26 104 -72q71 10 103 27q108 64 108 174q0 55 -28 106q-31 53 -84.5 84t-116.5 31q-67 0 -131 -37q-40 -24 -108.5 -84t-121.5 -86z" />
<glyph unicode="&#x2d;&#x2d;&#x2d;" horiz-adv-x="2416" d="M55 575q0 124 94.5 209.5t264.5 85.5q96 0 213 -47q20 77 85.5 133t172.5 56q69 0 161.5 -46.5t183 -115.5t197 -150.5t201 -150.5t197 -115.5t184.5 -46.5q119 0 188.5 56.5t69.5 131.5h94q0 -124 -94 -209t-264 -85q-101 0 -213 45q-20 -76 -86 -131.5t-172 -55.5 q-69 0 -161.5 46.5t-183 115.5t-197 150.5t-201 150.5t-197 115.5t-184.5 46.5q-119 0 -188.5 -57t-69.5 -132h-95zM715 782q86 -45 189 -117.5t187 -139t166.5 -128t155 -98.5t125.5 -37q70 0 113 32t51 73q-87 45 -189.5 118t-186.5 139.5t-166.5 128.5t-155 99t-125.5 37 q-71 0 -113 -32.5t-51 -74.5z" />
<glyph unicode="&#x3d;&#x3d;&#x3d;" horiz-adv-x="2416" d="M55 575q0 96 16 178.5t60.5 163.5t114.5 138t186 92t268 35q139 0 269 -43.5t230.5 -113t192.5 -153t171.5 -167.5t152 -153.5t148 -113t145.5 -43.5q109 0 181.5 62.5t76.5 113.5v4h94v-8q-1 -96 -17.5 -177t-61 -161t-115 -135.5t-185.5 -90t-266 -34.5 q-110 0 -213.5 27t-188 72.5t-164 104.5t-147.5 124t-131 130.5t-122 124.5t-114.5 104.5t-113.5 72.5t-114 27q-111 0 -184.5 -66.5t-73.5 -114.5h-95zM180 791q100 79 234 79q84 0 169.5 -43.5t162.5 -112.5t158.5 -153t171 -168t184 -153t214.5 -112.5t248 -43.5 q418 0 514 276q-99 -79 -233 -79q-84 0 -169.5 43.5t-162.5 112.5t-158 153t-170.5 168t-184.5 153t-215.5 112.5t-248.5 43.5q-421 0 -514 -276z" />
<glyph unicode="&#x2b;&#x2b;&#x2b;" horiz-adv-x="2416" d="M55 575q0 38 23.5 86.5t66 96t114 80t155.5 32.5t169.5 -43.5t162.5 -112.5t158.5 -153t171 -168t184 -153t214.5 -112.5t248 -43.5q95 0 173 14t134 39t98.5 61.5t68.5 77.5t42.5 92t22.5 100.5t6 106.5h94q0 -96 -16 -178.5t-60.5 -163.5t-114.5 -137.5t-186 -91.5 t-268 -35q-110 0 -213.5 27t-188 72.5t-164 104.5t-147.5 124t-131 130.5t-122 124.5t-114.5 104.5t-113.5 72.5t-114 27q-111 0 -184.5 -66.5t-73.5 -114.5h-95z" />
<glyph unicode="&#x2d;&#x2d;&#x29;" horiz-adv-x="2154" d="M55 575q0 96 18 180.5t64.5 167.5t119.5 142.5t190.5 96t269.5 36.5q118 0 227.5 -31.5t198 -82t175 -111.5t175 -121.5t181.5 -111t211 -82t247 -31.5v-117q-142 0 -270 31.5t-225 82t-188 111.5t-175 122.5t-168 112t-185.5 82t-209.5 31.5q-132 0 -232.5 -29 t-162 -76.5t-100 -115.5t-52.5 -137t-14 -150h-95z" />
<glyph unicode=" "  horiz-adv-x="557" />
<glyph unicode="&#x09;" horiz-adv-x="557" />
<glyph unicode="&#xa0;" horiz-adv-x="557" />
<glyph unicode="!" horiz-adv-x="649" d="M242 817v719h172v-719l-17 -383h-139zM250 0v154h158v-154h-158z" />
<glyph unicode="&#x22;" horiz-adv-x="698" d="M78 1071v461h153l-30 -461h-123zM410 1071v461h153l-31 -461h-122z" />
<glyph unicode="#" horiz-adv-x="1142" d="M115 446v111h219l53 215h-272v111h299l69 280l101 -26l-64 -254h203l65 264l101 -27l-58 -237h197v-111h-223l-53 -215h276v-111h-303l-68 -282l-100 26l61 256h-204l-64 -266l-100 27l57 239h-192zM440 557h205l51 215h-202z" />
<glyph unicode="$" horiz-adv-x="1003" d="M70 346l100 76q4 -8 11.5 -21t36 -45.5t63.5 -58t95 -46t128 -20.5q127 0 190.5 52.5t63.5 126.5q0 45 -26.5 78t-70 52t-99 37t-113 31.5t-113 37t-99 52.5t-70 79t-26.5 116q0 113 78 190t217 99l2 252h127l6 -248q60 -3 113 -15t85.5 -27.5t57 -30.5t35.5 -25l10 -11 l-38 -108q-5 4 -15 10.5t-42 23.5t-65.5 30t-82.5 23.5t-97 10.5q-107 0 -167 -43.5t-60 -110.5q0 -40 21 -70.5t57 -51t83 -37t98.5 -31t102.5 -30t98 -38.5t83 -51.5t57 -73t21 -100.5q0 -126 -86.5 -215.5t-266.5 -105.5v-211h-127l-8 211q-86 8 -155.5 35t-107.5 60.5 t-63.5 65.5t-33.5 54z" />
<glyph unicode="%" horiz-adv-x="1914" d="M113 971q0 176 100 281.5t276 105.5q171 0 273 -106.5t102 -280.5q0 -175 -100 -280t-275 -105q-180 0 -278 104t-98 281zM248 973q0 -121 62.5 -192.5t178.5 -71.5q114 0 177 71.5t63 192.5t-63 192.5t-177 71.5q-116 0 -178.5 -71.5t-62.5 -192.5zM545 25l680 1288 l131 -21l-680 -1288zM1051 356q0 176 100 281.5t276 105.5q171 0 273 -106.5t102 -280.5q0 -175 -100 -280t-275 -105q-180 0 -278 104t-98 281zM1186 358q0 -121 62.5 -192.5t178.5 -71.5q114 0 177 71.5t63 192.5t-63 193t-177 72q-116 0 -178.5 -72t-62.5 -193z" />
<glyph unicode="&#x26;" horiz-adv-x="1441" d="M113 356q0 121 78 204t196 124q-92 45 -152.5 123t-60.5 188q0 162 109.5 262.5t306.5 100.5q81 0 148 -12.5t104.5 -30t63.5 -34.5t35 -29l9 -13l-61 -102q-4 4 -12 9.5t-34 21t-53.5 27t-70.5 21t-86 9.5q-145 0 -222 -69.5t-77 -178.5q0 -58 22.5 -105t58.5 -75 t78 -43t85 -15h317v47l57 238h99v-285h313v-123h-313v-333q0 -97 36.5 -138t112.5 -41q37 0 76.5 4t60.5 8l21 3v-119q-60 -29 -201 -29q-177 0 -233 123q-111 -123 -328 -123q-127 0 -222.5 30t-151 84t-82.5 121.5t-27 149.5zM281 367q0 -115 81 -189t248 -74 q71 0 126.5 17.5t84 42.5t47 50t22.5 42l5 18v342h-317q-74 0 -140.5 -27.5t-111.5 -86t-45 -135.5z" />
<glyph unicode="'" horiz-adv-x="366" d="M78 1071v461h153l-30 -461h-123z" />
<glyph unicode="(" horiz-adv-x="724" d="M209 557q0 129 16 251t41.5 213.5t56.5 172t62.5 135.5t57 95t41.5 58l16 19l127 -53q-10 -13 -27.5 -38.5t-61 -112.5t-77 -183t-61 -247.5t-27.5 -309.5t26 -306.5t63.5 -248t75 -177t63.5 -113.5l26 -36l-127 -53q-6 6 -16.5 18.5t-40.5 56t-57.5 93.5t-61.5 132.5 t-58 171.5t-40.5 211t-16.5 251z" />
<glyph unicode=")" horiz-adv-x="724" d="M96 -324q10 13 27.5 38.5t61 112.5t77 183t61 247.5t27.5 309.5t-26 306.5t-63.5 248t-75 177t-63.5 113.5l-26 36l129 53q6 -6 16.5 -18.5t40.5 -55.5t57 -93t60.5 -131.5t57.5 -170t40.5 -210t16.5 -249.5q0 -172 -28.5 -331t-63 -256.5t-84 -189t-69 -117.5t-42.5 -53 l-2 -3z" />
<glyph unicode="*" horiz-adv-x="937" d="M45 1079l47 144l334 -150l-35 369h154l-39 -367l340 148l47 -144l-358 -80l243 -274l-125 -90l-184 315l-186 -315l-123 90l243 272z" />
<glyph unicode="+" horiz-adv-x="968" d="M80 504v129h338v340h137v-340h334v-129h-334v-340h-137v340h-338z" />
<glyph unicode="," horiz-adv-x="530" d="M84 -274q71 58 108 133.5t37 187.5h-49v148h164q8 -52 8 -115q0 -147 -52.5 -256.5t-141.5 -157.5z" />
<glyph unicode="-" horiz-adv-x="702" d="M80 504v129h543v-129h-543z" />
<glyph unicode="." horiz-adv-x="569" d="M203 0v154h157v-154h-157z" />
<glyph unicode="/" horiz-adv-x="991" d="M-16 -512l903 2048h160l-904 -2048h-159z" />
<glyph unicode="0" horiz-adv-x="1343" d="M133 664q0 326 136.5 510t402.5 184q178 0 299.5 -86t180 -239.5t58.5 -368.5q0 -327 -136 -510t-402 -183t-402.5 183t-136.5 510zM309 664q0 -278 91 -420t272 -142q362 0 362 562q0 277 -91 420t-271 143q-181 0 -272 -143t-91 -420z" />
<glyph unicode="1" horiz-adv-x="876" d="M129 1051q70 12 150 57.5t136.5 105.5t61.5 109v8h164v-1331h-164v1073q-72 -55 -160.5 -94t-171.5 -49z" />
<glyph unicode="2" horiz-adv-x="1136" d="M92 1151q4 8 12.5 22t42.5 50t76.5 63t117.5 49.5t163 22.5q126 0 219.5 -28.5t149.5 -81.5t83 -121.5t27 -153.5q0 -90 -43.5 -190.5t-108 -186.5t-154 -177t-164.5 -154.5t-157 -125.5h668v-139h-930v139q15 10 40.5 28t99 74.5t140.5 113.5t149 137.5t140.5 155 t99 158t40.5 152.5q0 129 -71.5 194t-246.5 65q-53 0 -102 -15.5t-81 -37.5t-56.5 -44t-35.5 -38l-11 -15z" />
<glyph unicode="3" horiz-adv-x="1134" d="M68 213l98 80q3 -7 10 -19.5t34.5 -44.5t62.5 -56t98 -44t137 -20q176 0 261 76.5t85 215.5q0 118 -85.5 190.5t-238.5 72.5q-64 0 -118 -27l-76 82l414 475h-611v137h819v-96l-409 -449q223 -1 348 -106.5t125 -282.5q0 -202 -136 -314t-372 -112q-75 0 -140 13.5 t-109 34.5t-80 47t-57 52t-35.5 47t-19.5 35z" />
<glyph unicode="4" horiz-adv-x="1163" d="M70 444q101 175 204.5 419.5t163.5 479.5l156 -12q-107 -427 -354 -887h520v471l20 222h144v-693h174v-129h-174v-315h-164v315h-680z" />
<glyph unicode="5" horiz-adv-x="1110" d="M51 205l99 88q4 -7 11 -19.5t35.5 -44.5t64 -56t97.5 -44t134 -20q168 0 252.5 84.5t84.5 224.5q0 119 -91 198.5t-244 79.5q-57 0 -105.5 -11t-70 -22t-27.5 -18l-88 12l67 674h652v-137h-521l-43 -393q77 18 152 18q226 0 356.5 -110.5t130.5 -294.5 q0 -210 -132.5 -326.5t-366.5 -116.5q-75 0 -140 13t-109.5 33.5t-80.5 45.5t-57 50t-35.5 45.5t-19.5 33.5z" />
<glyph unicode="6" horiz-adv-x="1236" d="M133 512q0 104 8 150q23 349 156.5 522.5t361.5 173.5q64 0 120.5 -9.5t91 -23.5t60 -28t35.5 -23l11 -10l-57 -107q-15 8 -41 19.5t-93 31t-118 19.5q-165 0 -262.5 -127t-114.5 -373q156 121 360 121q219 0 346 -114.5t127 -303.5q0 -94 -30 -176t-88.5 -145.5 t-152 -100.5t-212.5 -37q-243 0 -375.5 141.5t-132.5 399.5zM301 465q0 -174 85.5 -272.5t254.5 -98.5q83 0 146 29.5t98.5 79.5t53 107.5t17.5 121.5q0 58 -19.5 110.5t-58 96t-102.5 69t-145 25.5q-69 0 -127.5 -17t-96 -44.5t-59 -50.5t-35.5 -46q-12 -50 -12 -110z" />
<glyph unicode="7" horiz-adv-x="1003" d="M41 1188v143h920v-135q-166 -264 -308 -585t-202 -611h-189q62 290 196.5 601t301.5 587h-719z" />
<glyph unicode="8" horiz-adv-x="1198" d="M113 344q0 67 24.5 124t67.5 97t90 67.5t102 47.5q-254 88 -254 330q0 161 123.5 254.5t331.5 93.5q210 0 333.5 -94.5t123.5 -259.5q0 -67 -23 -122t-63 -93t-83.5 -63.5t-94.5 -43.5q294 -89 294 -344q0 -186 -128.5 -276.5t-358.5 -90.5q-229 0 -357 91.5t-128 281.5z M285 350q0 -130 84 -197t229 -67q146 0 231.5 67.5t85.5 194.5q0 61 -25 110t-60 77t-82.5 48.5t-83.5 28t-72 11.5q-32 -4 -66 -12t-79.5 -28t-79.5 -48.5t-58 -76.5t-24 -108zM307 999q0 -61 22.5 -109t55 -75.5t76 -46t76.5 -25.5t67 -10q31 3 62 10t73.5 26t74.5 46 t54.5 74.5t22.5 107.5q0 116 -77 181t-216 65q-137 0 -214 -65.5t-77 -178.5z" />
<glyph unicode="9" horiz-adv-x="1236" d="M113 879q0 94 33 179t93.5 152.5t156.5 107.5t214 40q242 0 368 -140.5t126 -400.5q0 -105 -6 -174q-17 -331 -156 -501.5t-375 -170.5q-76 0 -141.5 14t-105 33.5t-68 39.5t-40.5 34l-11 14l84 107q4 -5 11 -12t32.5 -26.5t55 -34t79 -26.5t104.5 -12q168 0 266.5 129 t110.5 367q-126 -141 -358 -141q-220 0 -346.5 116t-126.5 306zM281 885q0 -58 19.5 -112.5t58 -100.5t102.5 -73.5t145 -27.5q67 0 124 16t95 42t60 46.5t37 41.5q14 58 14 147q0 371 -326 371q-82 0 -147.5 -31.5t-103.5 -83t-58 -112t-20 -123.5z" />
<glyph unicode=":" horiz-adv-x="573" d="M203 0v154h157v-154h-157zM203 776v154h157v-154h-157z" />
<glyph unicode=";" horiz-adv-x="569" d="M104 -274q71 58 108.5 133.5t37.5 187.5h-49v148h164q8 -52 8 -115q0 -147 -53 -256.5t-142 -157.5zM203 776v154h157v-154h-157z" />
<glyph unicode="&#x3c;" horiz-adv-x="880" d="M145 651l578 408l78 -80l-488 -328l488 -329l-78 -80z" />
<glyph unicode="=" horiz-adv-x="1116" d="M80 299v129h956v-129h-956zM80 709v129h956v-129h-956z" />
<glyph unicode="&#x3e;" horiz-adv-x="880" d="M78 322l485 329l-485 328l78 80l579 -408l-579 -409z" />
<glyph unicode="?" horiz-adv-x="978" d="M18 1323q3 9 9.5 25t38 55.5t74 70t124 55.5t182.5 25q97 0 174 -20t126.5 -53.5t82.5 -78.5t46.5 -92t13.5 -98q0 -87 -27 -151.5t-70.5 -104.5t-96.5 -74.5t-106 -71t-97 -82.5t-72.5 -122t-30.5 -176h-96q-6 56 -6 100q0 90 23.5 159t61 111t82.5 76t90 63t82.5 60.5 t61 80t23.5 112.5q0 45 -14.5 82.5t-47 71t-94.5 52.5t-147 19q-64 0 -116.5 -16.5t-82 -40t-50 -47t-27.5 -39.5l-7 -17zM264 0v154h158v-154h-158z" />
<glyph unicode="@" horiz-adv-x="1990" d="M133 385q0 430 241.5 671.5t692.5 241.5q389 0 597 -190t208 -528q0 -131 -22 -235.5t-60 -173t-91 -114t-111.5 -65t-125.5 -19.5q-88 0 -141 24t-72 83q-91 -109 -264 -109q-182 0 -288.5 104.5t-106.5 311.5q0 200 114 324.5t306 124.5q148 0 243 -84l33 55h72v-629 q0 -58 28.5 -81t83.5 -23q40 0 76.5 13.5t72.5 49t62.5 90t43 143t16.5 201.5q0 293 -172 450t-502 157q-373 0 -579.5 -200.5t-206.5 -592.5q0 -355 201 -542t554 -187q104 0 199 19.5t155.5 47t106.5 55t66 46.5l20 20l47 -108q-7 -8 -20 -22t-64 -50t-113 -63 t-168.5 -49.5t-228.5 -22.5q-440 0 -671.5 222.5t-231.5 633.5zM725 387q0 -153 74.5 -233t212.5 -80q56 0 101 18t71 47t37.5 47.5t19.5 36.5v400q-5 11 -12 22t-24.5 28.5t-39.5 30t-60 22t-83 9.5q-146 0 -221.5 -95.5t-75.5 -252.5z" />
<glyph unicode="A" horiz-adv-x="1368" d="M51 0l518 1331h230l518 -1331h-176l-137 344h-644l-135 -344h-174zM403 459h558l-279 733z" />
<glyph unicode="B" horiz-adv-x="1273" d="M227 0v1331h404q227 0 340.5 -92t113.5 -246q0 -180 -167 -284q116 -38 179.5 -123t63.5 -203q0 -186 -125.5 -284.5t-400.5 -98.5h-408zM381 131h246q194 0 282 65t88 197q0 117 -75.5 176.5t-212.5 59.5h-328v-498zM381 745h319q35 0 71 11t73 35t60.5 72t23.5 112 q0 114 -79 170.5t-226 56.5h-242v-457z" />
<glyph unicode="C" horiz-adv-x="1370" d="M113 655q0 319 185 511t501 192q68 0 131 -11.5t109.5 -30t87 -41.5t67 -45.5t46 -41t28.5 -30.5l8 -11l-66 -111q-7 7 -20.5 19t-56.5 42.5t-87.5 53.5t-109.5 42t-127 19q-244 0 -382 -149.5t-138 -407.5q0 -251 138.5 -394.5t371.5 -143.5q84 0 162.5 21.5t130.5 52.5 t91.5 61.5t58.5 51.5l18 22l67 -115q-6 -10 -18 -26t-58.5 -57.5t-102 -73t-151.5 -57.5t-204 -26q-321 0 -500.5 183t-179.5 501z" />
<glyph unicode="D" horiz-adv-x="1517" d="M227 0v1331h478q335 0 517.5 -172t182.5 -497q0 -323 -180 -492.5t-518 -169.5h-480zM399 143h310q254 0 387 130.5t133 388.5t-134.5 392t-389.5 134h-306v-1045z" />
<glyph unicode="E" d="M227 0v1331h838v-137h-666v-455h611v-133h-611v-469h719v-137h-891z" />
<glyph unicode="F" horiz-adv-x="1107" d="M227 0v1331h852v-137h-680v-477h584v-131h-584v-586h-172z" />
<glyph unicode="G" horiz-adv-x="1486" d="M113 662q0 322 184.5 509t515.5 187q81 0 157.5 -14.5t126.5 -35t88.5 -40.5t56.5 -34l18 -15l-50 -117q-22 12 -59.5 30.5t-138.5 49t-185 30.5q-270 0 -404 -144t-134 -406q0 -259 131.5 -402t357.5 -143q84 0 152 20t106 46t66.5 62t37.5 55t15 38v252h-324v133h469 v-723h-120l-15 111q-159 -140 -424 -140q-299 0 -463.5 184t-164.5 507z" />
<glyph unicode="H" horiz-adv-x="1527" d="M227 0v1331h172v-604h729v604h172v-1331h-172v594h-729v-594h-172z" />
<glyph unicode="I" horiz-adv-x="626" d="M227 0v1331h172v-1331h-172z" />
<glyph unicode="J" horiz-adv-x="888" d="M14 139l88 70q3 -4 8 -11t23.5 -24t39 -30t54.5 -24t70 -11q213 0 213 274v948h172v-948q0 -120 -27.5 -203t-79.5 -127.5t-114.5 -63t-145.5 -18.5q-62 0 -115.5 17.5t-86 42t-56.5 49t-33 42.5z" />
<glyph unicode="K" horiz-adv-x="1376" d="M227 0v1331h172v-700l181 125l518 575h192l-575 -641l622 -690h-200l-543 592l-195 -135v-457h-172z" />
<glyph unicode="L" horiz-adv-x="1126" d="M227 0v1331h172v-1194h703v-137h-875z" />
<glyph unicode="M" horiz-adv-x="2013" d="M227 0v1331h224l555 -1155h2l555 1155h225v-1331h-166v1092h-2l-528 -1092h-168l-531 1092v-1092h-166z" />
<glyph unicode="N" horiz-adv-x="1574" d="M227 0v1331h181l778 -1100l-4 48v1052h168v-1331h-185l-778 1098h-4l10 -64v-1034h-166z" />
<glyph unicode="O" horiz-adv-x="1566" d="M113 664q0 319 177.5 506.5t491.5 187.5t493 -187.5t179 -506.5q0 -320 -178.5 -506.5t-493.5 -186.5q-314 0 -491.5 186.5t-177.5 506.5zM289 664q0 -255 130.5 -401t362.5 -146t364 146.5t132 400.5q0 252 -132.5 400t-363.5 148q-230 0 -361.5 -148t-131.5 -400z" />
<glyph unicode="P" horiz-adv-x="1169" d="M227 0v1331h365q238 0 368 -106.5t130 -315.5q0 -119 -43 -208.5t-116 -139.5t-158 -74t-181 -24h-205v-463h-160zM387 590h172q74 0 134.5 15.5t111.5 50t79.5 97.5t28.5 150q0 149 -94 223t-258 74h-174v-610z" />
<glyph unicode="Q" horiz-adv-x="1566" d="M113 664q0 319 177.5 506.5t491.5 187.5q315 0 493.5 -184.5t178.5 -503.5q0 -205 -79.5 -361t-225.5 -243l295 -230l-129 -76l-289 250q-115 -39 -244 -39q-314 0 -491.5 186.5t-177.5 506.5zM289 664q0 -255 130.5 -401t362.5 -146t364 146.5t132 400.5 q0 252 -132.5 400t-363.5 148q-230 0 -361.5 -148t-131.5 -400z" />
<glyph unicode="R" horiz-adv-x="1271" d="M227 0v1331h365q237 0 368.5 -109t131.5 -313q0 -163 -73.5 -268t-197.5 -152l373 -489h-201l-342 455h-264v-455h-160zM387 590h197q162 0 246.5 72.5t84.5 240.5q0 147 -90.5 222t-261.5 75h-176v-610z" />
<glyph unicode="S" horiz-adv-x="1200" d="M111 178l88 119q6 -7 16.5 -19.5t49 -44.5t83 -56t116.5 -44t150 -20q148 0 227 69t79 178q0 50 -25.5 88.5t-69 63t-100 44.5t-119 38t-125 38t-119 49.5t-100 68t-69 98t-25.5 135.5q0 169 123.5 272t339.5 103q85 0 158 -16t116.5 -39t74.5 -46t44 -39l12 -16 l-55 -115q-5 6 -15 15.5t-43.5 33.5t-70.5 42.5t-95.5 33.5t-119.5 15q-144 0 -222.5 -62.5t-78.5 -171.5q0 -53 26 -94t69.5 -67.5t100 -48t119 -40t125 -38t119 -47.5t100 -64t69.5 -92t26 -127q0 -184 -128 -294t-358 -110q-74 0 -141 11.5t-115.5 29.5t-89.5 40 t-67.5 44.5t-45 40.5t-26.5 29z" />
<glyph unicode="T" horiz-adv-x="997" d="M12 1194v137h973v-137h-401v-1194h-172v1194h-400z" />
<glyph unicode="U" horiz-adv-x="1513" d="M207 434v897h172v-862q0 -157 95.5 -249.5t281.5 -92.5q187 0 283 92.5t96 249.5v862h172v-897q0 -99 -33 -181.5t-98.5 -146.5t-172.5 -99.5t-247 -35.5q-139 0 -246 35.5t-172 99.5t-98 146.5t-33 181.5z" />
<glyph unicode="V" horiz-adv-x="1335" d="M35 1331h184l449 -1159l448 1159h182l-518 -1331h-223z" />
<glyph unicode="W" horiz-adv-x="2041" d="M35 1331h178l344 -1134l373 1134h186l373 -1134l340 1134h178l-424 -1331h-184l-377 1118l-379 -1118h-186z" />
<glyph unicode="X" horiz-adv-x="1366" d="M43 0l535 666l-523 665h197l432 -545l432 545h195l-523 -665l537 -666h-205l-436 545l-436 -545h-205z" />
<glyph unicode="Y" horiz-adv-x="1245" d="M2 1331h193l426 -639l430 639h192l-534 -796v-535h-172v535z" />
<glyph unicode="Z" horiz-adv-x="1251" d="M94 0v121l844 1073h-844v137h1063v-121l-844 -1073h844v-137h-1063z" />
<glyph unicode="[" horiz-adv-x="790" d="M209 -156v1592h557v-121h-412v-1348h412v-123h-557z" />
<glyph unicode="\" horiz-adv-x="991" d="M-53 1536h157l906 -2048h-160z" />
<glyph unicode="]" horiz-adv-x="790" d="M23 -33h413v1348h-413v121h559v-1592h-559v123z" />
<glyph unicode="^" horiz-adv-x="798" d="M78 1065l319 342l322 -342l-68 -68l-252 277l-254 -277z" />
<glyph unicode="_" horiz-adv-x="1486" d="M80 -186h1327v-129h-1327v129z" />
<glyph unicode="`" horiz-adv-x="487" d="M-33 1456l158 17l199 -293l-121 -9z" />
<glyph unicode="a" horiz-adv-x="1087" d="M78 264q0 62 25.5 114.5t66.5 89.5t101 66.5t119.5 48.5t130.5 32.5t127 20.5t116 11v31q0 129 -60 188.5t-192 59.5q-53 0 -100 -11.5t-76.5 -28t-52 -32.5t-31.5 -28l-10 -11l-92 78q4 7 11.5 17.5t39 38t70.5 48.5t108 38.5t149 17.5q204 0 302 -90.5t98 -282.5v-680 h-137l-25 152q-8 -18 -19.5 -37t-38.5 -46.5t-60.5 -48t-88.5 -35t-119 -14.5q-174 0 -268 77t-94 216zM246 281q0 -191 243 -191q58 0 107.5 18.5t77 41t50.5 54t29 44.5t11 26v256q-82 -7 -146.5 -16t-137.5 -27.5t-121.5 -44t-80.5 -67t-32 -94.5z" />
<glyph unicode="b" horiz-adv-x="1226" d="M176 0v1536h164v-664h4q3 7 10 19.5t34.5 43.5t61 55t93 43.5t127.5 19.5q214 0 342.5 -136.5t128.5 -375.5q0 -259 -126.5 -414.5t-359.5 -155.5q-66 0 -123.5 14.5t-96.5 38.5t-61 42t-38 36l-29 -102h-131zM340 240q3 -6 8.5 -15.5t27 -33.5t48.5 -42.5t74 -33.5 t102 -15q190 0 281.5 115t91.5 322q0 193 -91 290t-261 97q-49 0 -92.5 -12.5t-72.5 -33.5t-51 -42.5t-36 -45.5t-20 -36t-9 -21v-493z" />
<glyph unicode="c" horiz-adv-x="1011" d="M86 502q0 264 129.5 407.5t384.5 143.5q71 0 133 -12.5t101 -31t67.5 -36.5t40.5 -31l12 -12l-51 -103q-4 4 -12.5 11t-36 24.5t-58 30.5t-78.5 24t-97 11q-187 0 -276 -104t-89 -320q0 -210 92 -309t258 -99q53 0 102.5 12.5t82.5 31t58.5 36.5t37.5 30l12 13l86 -63 q-4 -8 -11.5 -20t-39.5 -44t-72.5 -56.5t-112.5 -44.5t-157 -20q-247 0 -376.5 134t-129.5 397z" />
<glyph unicode="d" horiz-adv-x="1226" d="M86 483q0 170 54.5 297t165.5 200t267 73q64 0 119.5 -13.5t89 -32.5t58.5 -37.5t35 -31.5l10 -14h4v612h164v-1536h-148l-14 141q-12 -23 -31.5 -46t-58 -54t-101.5 -50.5t-141 -19.5q-214 0 -343.5 137t-129.5 375zM256 487q0 -193 90 -289t260 -96q58 0 108 18.5 t79.5 42t53 54.5t31 46t11.5 26v495q-3 6 -8.5 15.5t-27.5 33.5t-49.5 42.5t-74.5 33.5t-102 15q-189 0 -280 -115t-91 -322z" />
<glyph unicode="e" horiz-adv-x="1081" d="M86 492q0 260 132 410.5t362 150.5q204 0 316 -127t112 -351q0 -33 -4 -60t-8 -37l-5 -11h-735v-4q0 -174 91.5 -269.5t254.5 -95.5q60 0 113 14t86.5 33.5t58.5 39.5t36 34l11 14l99 -63q-4 -8 -13 -21.5t-43.5 -48t-77.5 -60.5t-117.5 -47.5t-160.5 -21.5 q-237 0 -372.5 132t-135.5 389zM258 590h598q2 6 2 24q0 145 -71.5 229.5t-206.5 84.5q-148 0 -230.5 -92.5t-91.5 -245.5z" />
<glyph unicode="f" horiz-adv-x="743" d="M98 891v129l127 4v145q0 198 70 291.5t237 93.5q50 0 91.5 -7t65 -17t39.5 -20.5t22 -17.5l6 -7l-35 -99q-5 4 -15.5 10.5t-52 17.5t-94.5 11q-90 0 -130 -62t-40 -210v-129h352v-133h-352v-891h-164v891h-127z" />
<glyph unicode="g" horiz-adv-x="1085" d="M49 -182q0 124 75 203t214 110q-41 44 -41 105q0 62 37 116q-102 42 -158.5 124.5t-56.5 201.5q0 98 36 172t98.5 117.5t139.5 64.5t166 21q45 0 88 -6l92 233l127 -18l-106 -244q101 -40 158 -125t57 -215q0 -177 -113 -271t-307 -94q-51 0 -98 6q-25 -20 -25 -77 q0 -32 23 -53t44.5 -27.5t41.5 -7.5h6q268 0 398 -84t130 -254q0 -169 -121.5 -263t-380.5 -94q-524 0 -524 359zM209 -184q0 -230 364 -230q340 0 340 230q0 112 -88.5 163.5t-277.5 51.5h-2q-336 0 -336 -215zM279 678q0 -117 72.5 -183.5t199.5 -66.5q126 0 195 66 t69 186q0 128 -71.5 189t-192.5 61q-59 0 -106.5 -13.5t-85.5 -42t-59 -78.5t-21 -118z" />
<glyph unicode="h" d="M174 0v1536h166v-618h2q3 5 10.5 14.5t35 32.5t62 41t95 32.5t129.5 14.5q175 0 278 -87.5t103 -250.5v-715h-166v684q0 106 -73 164.5t-198 58.5q-58 0 -108 -12.5t-80 -30.5t-51.5 -35.5t-30.5 -30.5l-8 -12v-786h-166z" />
<glyph unicode="i" horiz-adv-x="514" d="M174 0v1024h166v-1024h-166zM184 1249v142h148v-142h-148z" />
<glyph unicode="j" horiz-adv-x="534" d="M-106 -504l43 135q32 -18 81 -18q74 0 125.5 73.5t51.5 221.5v1116h163v-1116q0 -119 -27.5 -208.5t-75 -140.5t-102 -75.5t-116.5 -24.5q-46 0 -82 9.5t-49 18.5zM203 1249v142h147v-142h-147z" />
<glyph unicode="k" horiz-adv-x="1050" d="M174 0v1536h166v-956l98 65l377 379h191l-437 -449l465 -575h-198l-402 494l-94 -48v-446h-166z" />
<glyph unicode="l" horiz-adv-x="514" d="M174 0v1536h166v-1536h-166z" />
<glyph unicode="m" horiz-adv-x="1716" d="M174 0v1024h148l16 -113q12 19 31.5 38t55.5 45t93.5 42.5t126.5 16.5q205 0 273 -144q14 19 34 37.5t60 45.5t102.5 44t136.5 17q151 0 228 -72t77 -229v-752h-163v727q0 101 -49.5 142.5t-147.5 41.5q-54 0 -101.5 -14.5t-77 -36t-46.5 -38.5t-25 -31q0 -6 1 -18.5 t1 -18.5v-754h-164v727q0 100 -48.5 142t-145.5 42q-56 0 -104 -16t-78.5 -41t-44.5 -40t-23 -28v-786h-166z" />
<glyph unicode="n" d="M174 0v1024h148l14 -104q105 133 338 133q175 0 278 -87.5t103 -250.5v-715h-164v684q0 106 -73.5 164.5t-199.5 58.5q-57 0 -107 -12.5t-80 -30.5t-52 -35.5t-31 -30.5l-8 -12v-786h-166z" />
<glyph unicode="o" horiz-adv-x="1193" d="M86 512q0 255 131 398t379 143q249 0 379.5 -143t130.5 -398q0 -253 -132.5 -397t-377.5 -144q-248 0 -379 143t-131 398zM256 512q0 -198 84 -307t256 -109q174 0 258 109t84 307q0 197 -84.5 306.5t-257.5 109.5q-172 0 -256 -109.5t-84 -306.5z" />
<glyph unicode="p" horiz-adv-x="1224" d="M174 -512v1536h148l14 -143q9 17 22 34t42.5 43.5t64.5 46t91 34t120 14.5q213 0 339 -136.5t126 -375.5q0 -170 -54.5 -297t-166 -200t-267.5 -73q-64 0 -119.5 13.5t-90 32.5t-59.5 37.5t-36 31.5l-10 14v-612h-164zM338 236q5 -10 13.5 -21.5t31.5 -33.5t50 -38.5 t71.5 -29.5t95.5 -13q371 0 371 437q0 387 -350 387q-59 0 -109 -18.5t-79.5 -43t-52.5 -55t-30.5 -47t-11.5 -27.5v-497z" />
<glyph unicode="q" horiz-adv-x="1226" d="M88 483q0 258 130 414t364 156q196 0 311 -129l29 100h131v-1536h-164v664h-4q-3 -7 -9.5 -19.5t-33 -43.5t-60 -55t-93 -43.5t-130.5 -19.5q-214 0 -342.5 136.5t-128.5 375.5zM256 487q0 -385 352 -385q58 0 108 18.5t79 42t52 54.5t30.5 45.5t11.5 26.5v499 q-5 10 -13.5 21.5t-31 33.5t-49.5 38.5t-71.5 29.5t-94.5 13q-373 0 -373 -437z" />
<glyph unicode="r" horiz-adv-x="778" d="M174 0v1024h131l21 -158q11 25 27.5 49.5t48.5 59.5t82.5 56.5t111.5 21.5q55 0 95.5 -11.5t53.5 -22.5l13 -11l-33 -134q-45 33 -143 33q-47 0 -89 -18.5t-69 -44.5t-47 -52t-29 -44l-8 -19v-729h-166z" />
<glyph unicode="s" horiz-adv-x="1003" d="M70 211l100 76q4 -8 11.5 -21t36 -45.5t63.5 -58t95 -46t128 -20.5q127 0 190.5 52t63.5 126q0 51 -34 86.5t-88.5 56t-120 38t-131.5 39t-120.5 51.5t-88.5 84.5t-34 128.5q0 133 104.5 214t286.5 81q68 0 128 -11.5t97 -27.5t64.5 -32.5t38.5 -27.5l12 -12l-38 -108 q-5 4 -15 10.5t-42 23.5t-65.5 30t-82.5 23.5t-97 10.5q-107 0 -167 -43.5t-60 -110.5q0 -40 21 -70.5t57 -51t83 -37t98.5 -31t102.5 -30t98 -38.5t83 -51.5t57 -73t21 -100.5q0 -65 -23 -121t-71 -102.5t-132 -73.5t-196 -27q-74 0 -138 13t-107 34.5t-77.5 47t-55 51 t-33.5 47t-18 34.5z" />
<glyph unicode="t" horiz-adv-x="776" d="M94 891v129l127 2v317l133 17l31 2v-334h313v-133h-313v-580q0 -102 32.5 -152t104.5 -50q44 0 86.5 5t63.5 10l20 5v-115q-7 -5 -22.5 -12t-72.5 -19t-126 -12q-128 0 -189 73t-61 230v617h-127z" />
<glyph unicode="u" d="M158 309v715h166v-684q0 -106 72.5 -164.5t197.5 -58.5q58 0 108 12.5t80.5 30.5t52 35.5t30.5 30.5l9 12v786h164v-1024h-147l-14 104q-10 -15 -29.5 -33t-58 -43t-104.5 -41t-146 -16q-175 0 -278 87.5t-103 250.5z" />
<glyph unicode="v" horiz-adv-x="1050" d="M35 1024h180l311 -852l310 852h182l-402 -1024h-182z" />
<glyph unicode="w" horiz-adv-x="1583" d="M37 1024h176l219 -821h2l275 821h165l275 -819l221 819h176l-305 -1024h-180l-270 813l-269 -813h-180z" />
<glyph unicode="x" horiz-adv-x="1079" d="M27 0l411 516l-401 508h194l308 -408h2l307 408h192l-401 -508l414 -516h-193l-319 424h-2l-320 -424h-192z" />
<glyph unicode="y" horiz-adv-x="1085" d="M33 1024h182l354 -850h4l297 850h183l-412 -1049q-63 -160 -125 -269.5t-140 -178t-161 -68.5q-41 0 -77 9.5t-52 18.5l-16 9l28 135q43 -24 88 -24q84 0 155.5 103.5t145.5 295.5z" />
<glyph unicode="z" horiz-adv-x="991" d="M82 0v115l604 780h-555v129h764v-115l-600 -780h608v-129h-821z" />
<glyph unicode="{" horiz-adv-x="890" d="M231 528v140q76 0 150 52.5t74 129.5q0 62 -31 191t-31 202q0 70 19.5 121t65.5 90t128.5 58.5t202.5 19.5v-121q-149 0 -210.5 -53t-61.5 -158q0 -66 30.5 -192.5t30.5 -194.5q0 -63 -37.5 -119.5t-101.5 -95.5q64 -39 101.5 -95.5t37.5 -119.5q0 -68 -30.5 -194.5 t-30.5 -192.5q0 -105 61.5 -158t210.5 -53v-121q-120 0 -202.5 19.5t-128.5 58.5t-65.5 90t-19.5 121q0 74 31 202.5t31 190.5q0 77 -74 129.5t-150 52.5z" />
<glyph unicode="|" horiz-adv-x="690" d="M266 -512v2048h158v-2048h-158z" />
<glyph unicode="}" horiz-adv-x="890" d="M141 -215q150 0 212.5 53.5t62.5 157.5q0 66 -31 192.5t-31 194.5q0 63 37.5 119.5t100.5 95.5q-63 39 -100.5 95.5t-37.5 119.5q0 68 31 194.5t31 192.5q0 104 -62.5 157.5t-212.5 53.5v121q120 0 202.5 -19.5t128.5 -58.5t65.5 -90t19.5 -121q0 -73 -30.5 -202 t-30.5 -191q0 -77 73.5 -129.5t149.5 -52.5v-140q-76 0 -149.5 -52.5t-73.5 -129.5q0 -62 30.5 -190.5t30.5 -202.5q0 -70 -19.5 -121t-65.5 -90t-128.5 -58.5t-202.5 -19.5v121z" />
<glyph unicode="~" horiz-adv-x="1370" d="M104 756q4 5 12.5 13.5t38.5 30t65 38t94 30t124 13.5q82 0 146.5 -20.5t108 -49.5t85 -57.5t98.5 -49t128 -20.5q48 0 91.5 8t71.5 20t49 24t30 20l9 8l9 -129q-3 -5 -10 -12.5t-32.5 -27.5t-56.5 -35t-83.5 -27.5t-112.5 -12.5q-64 0 -118 14t-89 35.5t-74.5 46 t-74.5 46t-89 35.5t-118 14q-53 0 -103 -10.5t-83 -25.5t-58.5 -29.5t-37.5 -25.5l-11 -10z" />
<glyph unicode="&#xa1;" horiz-adv-x="649" d="M236 207l16 383h139l17 -383v-719h-172v719zM242 870v154h157v-154h-157z" />
<glyph unicode="&#xa2;" horiz-adv-x="1011" d="M86 639q0 243 109 384.5t327 162.5v248h129l6 -246q59 -4 111.5 -18.5t85 -31.5t56.5 -33t34 -27l10 -11l-51 -102q-4 4 -12.5 11t-36 24t-58 30t-78.5 24t-97 11q-187 0 -276 -104t-89 -320q0 -210 92 -309t258 -99q53 0 102.5 12.5t82.5 30.5t58.5 36.5t37.5 31.5 l12 12l86 -63q-3 -6 -10 -17t-33.5 -39t-60.5 -51t-93.5 -45t-128.5 -30v-213h-129l-8 213q-436 39 -436 528z" />
<glyph unicode="&#xa3;" d="M109 0v137h92q74 48 103.5 128.5t29.5 193.5q0 28 -4 98l-221 2v131h210q-20 192 -20 299q0 172 109 270.5t315 98.5q65 0 123.5 -13t95 -31t63.5 -36.5t39 -31.5l11 -13l-56 -103q-4 4 -11 9.5t-31 20.5t-50.5 26.5t-68.5 21t-86 9.5q-130 0 -201.5 -60.5t-71.5 -175.5 q0 -83 13 -291h534v-133h-528q0 -14 1 -39t1 -37q0 -227 -74 -344h737v-137h-1054z" />
<glyph unicode="&#xa4;" horiz-adv-x="1294" d="M121 184l235 224q-73 95 -73 235q0 139 73 234l-235 227l61 76l234 -244q97 78 233 78q129 0 225 -74l236 238l61 -76l-237 -221q78 -100 78 -238q0 -133 -74 -233l238 -228l-64 -76l-231 244q-96 -78 -232 -78q-135 0 -231 74l-234 -237zM393 645q0 -125 70 -197.5 t186 -72.5q115 0 184.5 72.5t69.5 195.5q0 125 -69.5 196.5t-184.5 71.5q-117 0 -186.5 -71.5t-69.5 -194.5z" />
<glyph unicode="&#xa5;" horiz-adv-x="1245" d="M2 1331h193l426 -639l430 639h192l-465 -692h275v-109h-344v-188h344v-106h-344v-236h-172v236h-344v106h344v188h-344v109h274z" />
<glyph unicode="&#xa6;" horiz-adv-x="690" d="M266 307h158v-819h-158v819zM266 717v819h158v-819h-158z" />
<glyph unicode="&#xa7;" horiz-adv-x="1161" d="M104 -37l86 88q5 -5 14 -13t41 -28t69 -35.5t96.5 -28t124.5 -12.5q270 0 270 185q0 53 -35.5 91t-92.5 61t-126 43t-137.5 44t-125.5 55.5t-92.5 87t-35.5 130.5q0 154 133 243q-64 64 -64 156q0 143 104 235.5t310 92.5q78 0 144 -14t105 -34t66 -39.5t38 -33.5l10 -14 l-62 -97q-4 4 -12.5 11t-36 25.5t-58 32t-77.5 25t-96 11.5q-75 0 -128 -17.5t-80 -47.5t-38.5 -62t-11.5 -68q0 -47 28.5 -82.5t75 -57.5t106 -42.5t122 -36.5t122 -41t106 -54.5t75 -78t28.5 -111.5q0 -159 -149 -256q61 -64 61 -153q0 -55 -11.5 -99.5t-41.5 -85.5 t-77.5 -68.5t-123 -43.5t-174.5 -16q-94 0 -174.5 16t-128.5 38t-83 44.5t-49 38.5zM303 645q0 -56 33.5 -97.5t93 -68t122 -45t141.5 -43t130 -49.5q105 60 105 174q0 53 -34.5 92.5t-96.5 64.5t-126.5 43.5t-146 43t-133.5 49.5q-88 -53 -88 -164z" />
<glyph unicode="&#xa8;" horiz-adv-x="886" d="M109 1249v142h145v-142h-145zM473 1249v142h145v-142h-145z" />
<glyph unicode="&#xa9;" horiz-adv-x="1748" d="M176 662q0 322 184.5 509t509.5 187q329 0 515 -187t186 -509t-185 -506.5t-516 -184.5q-328 0 -511 184.5t-183 506.5zM291 662q0 -282 154 -439t425 -157q273 0 429.5 157.5t156.5 438.5t-157 441.5t-429 160.5q-270 0 -424.5 -160.5t-154.5 -441.5zM524 647 q0 173 102 275t273 102q46 0 88 -9.5t68.5 -23t46.5 -27t28 -22.5l9 -10l-56 -70q-2 3 -6 7t-19 14.5t-32.5 19t-47.5 15t-63 6.5q-132 0 -204 -73t-72 -204q0 -122 75 -192t181 -70q45 0 85 10.5t65 26t43.5 31t25.5 25.5l8 11l54 -63q-3 -6 -8.5 -15.5t-29 -34.5 t-53.5 -44.5t-84 -35t-118 -15.5q-151 0 -255 99.5t-104 266.5z" />
<glyph unicode="&#xaa;" horiz-adv-x="925" d="M78 842q0 231 543 264v31q0 81 -46 119t-149 38q-42 0 -81 -8t-65 -19t-46.5 -22.5t-29.5 -19.5l-9 -8l-52 71q3 4 9.5 11t32.5 25.5t57.5 32t87 25t119.5 11.5q162 0 240.5 -63.5t78.5 -199.5v-475h-119l-26 103q-8 -16 -23.5 -33t-45 -39.5t-80 -36.5t-114.5 -14 q-139 0 -210.5 53.5t-71.5 153.5zM223 854q0 -127 193 -127q49 0 88.5 13.5t60 32.5t34.5 38.5t18 32.5l4 14v162q-67 -5 -116.5 -10.5t-106 -18t-92 -29t-59.5 -44.5t-24 -64z" />
<glyph unicode="&#xab;" horiz-adv-x="1150" d="M197 512l354 350l72 -80l-275 -272l273 -277l-72 -81zM584 512l354 350l72 -80l-275 -272l273 -277l-72 -81z" />
<glyph unicode="&#xac;" horiz-adv-x="1060" d="M125 586v129h809v-469h-135v340h-674z" />
<glyph unicode="&#xad;" horiz-adv-x="731" d="M94 504v129h543v-129h-543z" />
<glyph unicode="&#xae;" horiz-adv-x="1472" d="M123 928q0 285 164 453.5t448 168.5q282 0 448.5 -169t166.5 -453t-164 -452.5t-451 -168.5q-289 0 -450.5 168t-161.5 453zM240 928q0 -252 127.5 -389.5t365.5 -137.5q239 0 369.5 138t130.5 389q0 252 -131 393t-369 141q-236 0 -364.5 -142.5t-128.5 -391.5zM541 602 v649h194q137 0 205 -44t68 -142q0 -155 -162 -197l155 -266h-102l-147 256h-121v-256h-90zM631 922h106q78 0 127 34t49 107q0 62 -43.5 89.5t-130.5 27.5h-108v-258z" />
<glyph unicode="&#xaf;" horiz-adv-x="942" d="M240 1294v90h440v-90h-440z" />
<glyph unicode="&#xb0;" horiz-adv-x="976" d="M113 1174q0 176 100 281.5t276 105.5q171 0 273 -106.5t102 -280.5q0 -175 -100 -280.5t-275 -105.5q-180 0 -278 104.5t-98 281.5zM248 1176q0 -121 62.5 -193t178.5 -72q114 0 177 72t63 193t-63 192.5t-177 71.5q-116 0 -178.5 -71.5t-62.5 -192.5z" />
<glyph unicode="&#xb1;" horiz-adv-x="1116" d="M80 293v129h956v-129h-956zM156 1012v129h338v340h137v-340h334v-129h-334v-340h-137v340h-338z" />
<glyph unicode="&#xb2;" horiz-adv-x="966" d="M92 1239q3 8 9.5 21t35 45.5t65 58t103 46t146.5 20.5q185 0 276.5 -80t91.5 -211q0 -67 -31 -136.5t-78.5 -127.5t-113 -115.5t-125 -99.5t-123.5 -80h506v-109h-754v88q12 6 31.5 17.5t77 47.5t109.5 73t115.5 91.5t109 106t77 112.5t31.5 115q0 191 -227 191 q-48 0 -89 -11.5t-65.5 -27.5t-42.5 -32.5t-25 -27.5l-7 -12z" />
<glyph unicode="&#xb3;" horiz-adv-x="952" d="M68 633l86 53q1 -3 3.5 -8t12.5 -19.5t22.5 -27.5t35 -29t48.5 -27.5t63.5 -19.5t80.5 -8q130 0 196 55.5t66 147.5q0 77 -68 127.5t-180 50.5q-82 0 -104 -15l-2 -2l-66 64l324 323h-461v105h643v-68l-326 -313q190 -1 294 -75t104 -199q0 -146 -107 -226t-309 -80 q-63 0 -116.5 10.5t-88.5 27.5t-63.5 37.5t-44.5 40.5t-26 37t-13 27z" />
<glyph unicode="&#xb4;" horiz-adv-x="487" d="M119 1180l198 293l158 -17l-235 -285z" />
<glyph unicode="&#xb5;" horiz-adv-x="1228" d="M174 -512v1536h166v-684q0 -106 72.5 -164.5t197.5 -58.5q58 0 108 12.5t80.5 30.5t52.5 35.5t31 30.5l9 12v786h164v-1024h-148l-14 104q-10 -15 -29.5 -33t-58 -43t-104.5 -41t-146 -16q-123 0 -215 45v-528h-166z" />
<glyph unicode="&#xb6;" horiz-adv-x="1486" d="M113 922q0 205 141 307t442 102h678v-145h-139v-1186h-172v1186h-229v-1186h-168v500q-276 0 -414.5 99.5t-138.5 322.5z" />
<glyph unicode="&#xb7;" horiz-adv-x="569" d="M203 614v154h157v-154h-157z" />
<glyph unicode="&#xb8;" horiz-adv-x="555" d="M100 -424l43 47q6 -7 18.5 -17.5t54 -28t87.5 -17.5q160 0 160 125q0 41 -33.5 67.5t-73 34.5t-73 15t-33.5 14l26 178h86l-20 -139q0 -3 23 -7t56 -13t66.5 -24t56.5 -47.5t23 -76.5q0 -95 -59.5 -148t-179.5 -53q-48 0 -89 9.5t-65.5 22.5t-42 26t-24.5 22z" />
<glyph unicode="&#xb9;" horiz-adv-x="776" d="M129 1206q77 14 161.5 79.5t84.5 117.5h166v-932h-166v729q-115 -93 -232 -104z" />
<glyph unicode="&#xba;" horiz-adv-x="999" d="M86 1014q0 179 104.5 279t309.5 100q203 0 307 -100t104 -279q0 -178 -106 -278.5t-305 -100.5q-205 0 -309.5 100t-104.5 279zM240 1014q0 -137 64 -211t196 -74t196 74t64 211q0 278 -260 278t-260 -278z" />
<glyph unicode="&#xbb;" horiz-adv-x="1150" d="M141 229l275 273l-273 278l72 82l350 -362l-352 -348zM528 229l275 273l-273 278l72 82l350 -362l-352 -348z" />
<glyph unicode="&#xbc;" horiz-adv-x="1732" d="M129 1206q77 14 161.5 79.5t84.5 117.5h166v-932h-166v729q-115 -93 -232 -104zM512 49l725 1151l106 -59l-725 -1149zM895 -100q73 128 145 297.5t111 332.5l143 -8q-75 -306 -243 -622h333v331l50 156h100v-487h121v-99h-121v-211h-150v211h-483z" />
<glyph unicode="&#xbd;" horiz-adv-x="1878" d="M129 1206q77 14 161.5 79.5t84.5 117.5h166v-932h-166v729q-115 -93 -232 -104zM512 49l725 1151l106 -59l-725 -1149zM1004 358q3 8 9.5 21t34.5 45.5t64.5 58t103 46t146.5 20.5q185 0 277 -80t92 -211q0 -67 -31 -136.5t-78.5 -127t-113.5 -115.5t-124.5 -99.5 t-123.5 -80.5h505v-109h-753v88q12 6 31.5 17.5t77 47.5t109.5 73.5t115.5 91.5t109 106t77 113t31.5 115q0 190 -228 190q-48 0 -89 -11.5t-65.5 -27.5t-42.5 -32t-25 -27l-7 -12z" />
<glyph unicode="&#xbe;" horiz-adv-x="1849" d="M68 633l86 53q1 -3 3.5 -8t12.5 -19.5t22.5 -27.5t35 -29t48.5 -27.5t63.5 -19.5t80.5 -8q130 0 196 55.5t66 147.5q0 77 -68 127.5t-180 50.5q-82 0 -104 -15l-2 -2l-66 64l324 323h-461v105h643v-68l-326 -313q190 -1 294 -75t104 -199q0 -146 -107 -226t-309 -80 q-63 0 -116.5 10.5t-88.5 27.5t-63.5 37.5t-44.5 40.5t-26 37t-13 27zM627 49l725 1151l106 -59l-725 -1149zM1010 -100q73 128 145 297.5t111 332.5l143 -8q-74 -302 -244 -622h334v331l49 156h101v-487h120v-99h-120v-211h-150v211h-483z" />
<glyph unicode="&#xbf;" horiz-adv-x="978" d="M88 -199q0 87 27 151.5t70.5 105t96.5 75t106 71.5t97 83t72.5 121.5t30.5 175.5h98q6 -56 6 -101q0 -90 -23.5 -158.5t-61 -111t-82.5 -76t-90 -62t-82.5 -60.5t-61 -80.5t-23.5 -112.5q0 -45 14 -82.5t46.5 -71t94.5 -52.5t148 -19q64 0 116.5 16.5t82 39.5t50 46.5 t27.5 40.5l7 16l107 -65q-1 -5 -4.5 -13.5t-17.5 -32.5t-33 -46t-54 -48.5t-77.5 -46t-106 -32.5t-136.5 -13q-97 0 -174 20t-126.5 53.5t-83 78.5t-47 92t-13.5 98zM555 870v154h158v-154h-158z" />
<glyph unicode="&#xc0;" horiz-adv-x="1368" d="M51 0l518 1331h230l518 -1331h-176l-137 344h-644l-135 -344h-174zM403 459h558l-279 733zM408 1733l157 16l199 -293l-121 -8z" />
<glyph unicode="&#xc1;" horiz-adv-x="1368" d="M51 0l518 1331h230l518 -1331h-176l-137 344h-644l-135 -344h-174zM403 459h558l-279 733zM594 1456l199 293l157 -16l-235 -285z" />
<glyph unicode="&#xc2;" horiz-adv-x="1368" d="M51 0l518 1331h230l518 -1331h-176l-137 344h-644l-135 -344h-174zM362 1595l277 203h92l275 -203l-56 -102l-266 195l-266 -195zM403 459h558l-279 733z" />
<glyph unicode="&#xc3;" horiz-adv-x="1368" d="M51 0l518 1331h230l518 -1331h-176l-137 344h-644l-135 -344h-174zM311 1606q3 4 8 11.5t23.5 26.5t40.5 33.5t59 26.5t78 12q64 0 132 -26t130.5 -52t112.5 -26q40 0 74.5 12t48.5 24l14 13l35 -82q-2 -4 -5.5 -10t-18.5 -22t-34 -28t-52 -22t-72 -10q-71 0 -191 50 t-182 50q-44 0 -85 -18.5t-60 -36.5l-19 -19zM403 459h558l-279 733z" />
<glyph unicode="&#xc4;" horiz-adv-x="1368" d="M51 0l518 1331h230l518 -1331h-176l-137 344h-644l-135 -344h-174zM403 459h558l-279 733zM428 1526v141h145v-141h-145zM793 1526v141h145v-141h-145z" />
<glyph unicode="&#xc5;" horiz-adv-x="1368" d="M51 0l518 1331h230l518 -1331h-176l-137 344h-644l-135 -344h-174zM403 459h558l-279 733zM473 1690q0 93 60.5 153t150.5 60q87 0 147 -60t60 -153q0 -94 -58.5 -152.5t-148.5 -58.5q-94 0 -152.5 58t-58.5 153zM553 1690q0 -61 37.5 -99.5t93.5 -38.5q55 0 92 38.5 t37 99.5t-37.5 99t-91.5 38q-57 0 -94 -37.5t-37 -99.5z" />
<glyph unicode="&#xc6;" horiz-adv-x="1890" d="M-33 0l877 1331h909v-137h-666v-455h611v-133h-611v-469h719v-137h-891v344h-540l-223 -344h-185zM446 459h469v735h-16z" />
<glyph unicode="&#xc7;" horiz-adv-x="1370" d="M113 655q0 319 185 511t501 192q68 0 131 -11.5t109.5 -30t87 -41.5t67 -45.5t46 -41t28.5 -30.5l8 -11l-66 -111q-7 7 -20.5 19t-56.5 42.5t-87.5 53.5t-109.5 42t-127 19q-244 0 -382 -149.5t-138 -407.5q0 -251 138.5 -394.5t371.5 -143.5q84 0 162.5 21.5t130.5 52.5 t91.5 61.5t58.5 51.5l18 22l67 -115q-6 -9 -17.5 -24.5t-55.5 -55.5t-97.5 -71t-144 -58.5t-193.5 -30.5l-16 -116q0 -3 16.5 -6.5t41.5 -8t54.5 -15.5t54.5 -27t41.5 -45t16.5 -66q0 -95 -60 -148t-180 -53q-48 0 -88.5 9.5t-65 22.5t-42 26t-24.5 22l-7 10l43 47 q6 -7 18.5 -17.5t54 -28t87.5 -17.5q160 0 160 125q0 41 -33.5 67.5t-73 34.5t-73 15t-33.5 14l22 157q-294 17 -457 198t-163 484z" />
<glyph unicode="&#xc8;" d="M227 0v1331h838v-137h-666v-455h611v-133h-611v-469h719v-137h-891zM379 1733l158 16l198 -293l-121 -8z" />
<glyph unicode="&#xc9;" d="M227 0v1331h838v-137h-666v-455h611v-133h-611v-469h719v-137h-891zM565 1456l199 293l158 -16l-236 -285z" />
<glyph unicode="&#xca;" d="M227 0v1331h838v-137h-666v-455h611v-133h-611v-469h719v-137h-891zM334 1595l276 203h92l275 -203l-55 -102l-267 195l-266 -195z" />
<glyph unicode="&#xcb;" d="M227 0v1331h838v-137h-666v-455h611v-133h-611v-469h719v-137h-891zM399 1526v141h146v-141h-146zM764 1526v141h145v-141h-145z" />
<glyph unicode="&#xcc;" horiz-adv-x="626" d="M35 1733l158 16l198 -293l-121 -8zM227 0v1331h172v-1331h-172z" />
<glyph unicode="&#xcd;" horiz-adv-x="626" d="M221 1456l199 293l158 -16l-236 -285zM227 0v1331h172v-1331h-172z" />
<glyph unicode="&#xce;" horiz-adv-x="626" d="M-10 1595l276 203h92l275 -203l-55 -102l-267 195l-266 -195zM227 0v1331h172v-1331h-172z" />
<glyph unicode="&#xcf;" horiz-adv-x="626" d="M55 1526v141h146v-141h-146zM227 0v1331h172v-1331h-172zM420 1526v141h145v-141h-145z" />
<glyph unicode="&#xd0;" horiz-adv-x="1517" d="M57 604v113h170v614h478q335 0 517.5 -172t182.5 -497q0 -323 -180 -492.5t-518 -169.5h-480v604h-170zM399 143h310q254 0 387 130.5t133 388.5t-134.5 392t-389.5 134h-306v-471h461v-113h-461v-461z" />
<glyph unicode="&#xd1;" horiz-adv-x="1574" d="M227 0v1331h181l778 -1100l-4 48v1052h168v-1331h-185l-778 1098h-4l10 -64v-1034h-166zM432 1606q3 4 8 11.5t23.5 26.5t40.5 33.5t59 26.5t78 12q64 0 132 -26t130.5 -52t112.5 -26q40 0 74 12t48 24l15 13l35 -82q-2 -4 -5.5 -10t-18.5 -22t-34 -28t-52 -22t-72 -10 q-71 0 -191 50t-182 50q-44 0 -85 -18.5t-60 -36.5l-19 -19z" />
<glyph unicode="&#xd2;" horiz-adv-x="1566" d="M113 664q0 319 177.5 506.5t491.5 187.5t493 -187.5t179 -506.5q0 -320 -178.5 -506.5t-493.5 -186.5q-314 0 -491.5 186.5t-177.5 506.5zM289 664q0 -255 130.5 -401t362.5 -146t364 146.5t132 400.5q0 252 -132.5 400t-363.5 148q-230 0 -361.5 -148t-131.5 -400z M506 1733l158 16l198 -293l-121 -8z" />
<glyph unicode="&#xd3;" horiz-adv-x="1566" d="M113 664q0 319 177.5 506.5t491.5 187.5t493 -187.5t179 -506.5q0 -320 -178.5 -506.5t-493.5 -186.5q-314 0 -491.5 186.5t-177.5 506.5zM289 664q0 -255 130.5 -401t362.5 -146t364 146.5t132 400.5q0 252 -132.5 400t-363.5 148q-230 0 -361.5 -148t-131.5 -400z M692 1456l199 293l158 -16l-236 -285z" />
<glyph unicode="&#xd4;" horiz-adv-x="1566" d="M113 664q0 319 177.5 506.5t491.5 187.5t493 -187.5t179 -506.5q0 -320 -178.5 -506.5t-493.5 -186.5q-314 0 -491.5 186.5t-177.5 506.5zM289 664q0 -255 130.5 -401t362.5 -146t364 146.5t132 400.5q0 252 -132.5 400t-363.5 148q-230 0 -361.5 -148t-131.5 -400z M459 1595l276 203h92l275 -203l-55 -102l-267 195l-266 -195z" />
<glyph unicode="&#xd5;" horiz-adv-x="1566" d="M113 664q0 319 177.5 506.5t491.5 187.5t493 -187.5t179 -506.5q0 -320 -178.5 -506.5t-493.5 -186.5q-314 0 -491.5 186.5t-177.5 506.5zM289 664q0 -255 130.5 -401t362.5 -146t364 146.5t132 400.5q0 252 -132.5 400t-363.5 148q-230 0 -361.5 -148t-131.5 -400z M410 1606q2 4 7 11.5t23.5 26.5t40.5 33.5t59 26.5t78 12q64 0 132 -26t130.5 -52t112.5 -26q40 0 74.5 12t48.5 24l14 13l35 -82q-2 -4 -5.5 -10t-18.5 -22t-34 -28t-52 -22t-72 -10q-71 0 -191 50t-182 50q-44 0 -85 -18.5t-60 -36.5l-19 -19z" />
<glyph unicode="&#xd6;" horiz-adv-x="1566" d="M113 664q0 319 177.5 506.5t491.5 187.5t493 -187.5t179 -506.5q0 -320 -178.5 -506.5t-493.5 -186.5q-314 0 -491.5 186.5t-177.5 506.5zM289 664q0 -255 130.5 -401t362.5 -146t364 146.5t132 400.5q0 252 -132.5 400t-363.5 148q-230 0 -361.5 -148t-131.5 -400z M526 1526v141h146v-141h-146zM891 1526v141h145v-141h-145z" />
<glyph unicode="&#xd7;" horiz-adv-x="833" d="M80 420l235 235l-235 238l96 102l240 -241l241 241l97 -102l-238 -238l236 -235l-97 -105l-239 240l-238 -240z" />
<glyph unicode="&#xd8;" horiz-adv-x="1566" d="M113 664q0 319 177.5 506.5t491.5 187.5q157 0 279 -49l88 182l78 -12l-97 -201q156 -82 240 -240.5t84 -373.5q0 -320 -178.5 -506.5t-493.5 -186.5q-112 0 -233 31l-90 -209l-78 12q10 23 43.5 103t52.5 121q-175 75 -269.5 239.5t-94.5 395.5zM289 664 q0 -177 64.5 -304t185.5 -190l456 1001q-96 41 -213 41q-230 0 -361.5 -148t-131.5 -400zM610 141q76 -24 172 -24q232 0 364 146.5t132 400.5q0 161 -56 282t-161 189z" />
<glyph unicode="&#xd9;" horiz-adv-x="1513" d="M207 434v897h172v-862q0 -157 95.5 -249.5t281.5 -92.5q187 0 283 92.5t96 249.5v862h172v-897q0 -99 -33 -181.5t-98.5 -146.5t-172.5 -99.5t-247 -35.5q-139 0 -246 35.5t-172 99.5t-98 146.5t-33 181.5zM463 1733l158 16l198 -293l-121 -8z" />
<glyph unicode="&#xda;" horiz-adv-x="1513" d="M207 434v897h172v-862q0 -157 95.5 -249.5t281.5 -92.5q187 0 283 92.5t96 249.5v862h172v-897q0 -99 -33 -181.5t-98.5 -146.5t-172.5 -99.5t-247 -35.5q-139 0 -246 35.5t-172 99.5t-98 146.5t-33 181.5zM649 1456l199 293l158 -16l-236 -285z" />
<glyph unicode="&#xdb;" horiz-adv-x="1513" d="M207 434v897h172v-862q0 -157 95.5 -249.5t281.5 -92.5q187 0 283 92.5t96 249.5v862h172v-897q0 -99 -33 -181.5t-98.5 -146.5t-172.5 -99.5t-247 -35.5q-139 0 -246 35.5t-172 99.5t-98 146.5t-33 181.5zM418 1595l276 203h92l275 -203l-55 -102l-267 195l-266 -195z " />
<glyph unicode="&#xdc;" horiz-adv-x="1513" d="M207 434v897h172v-862q0 -157 95.5 -249.5t281.5 -92.5q187 0 283 92.5t96 249.5v862h172v-897q0 -99 -33 -181.5t-98.5 -146.5t-172.5 -99.5t-247 -35.5q-139 0 -246 35.5t-172 99.5t-98 146.5t-33 181.5zM483 1526v141h146v-141h-146zM848 1526v141h145v-141h-145z" />
<glyph unicode="&#xdd;" horiz-adv-x="1245" d="M2 1331h193l426 -639l430 639h192l-534 -796v-535h-172v535zM567 1456l199 293l158 -16l-236 -285z" />
<glyph unicode="&#xde;" horiz-adv-x="1187" d="M227 0v1331h160v-233h205q238 0 368 -108t130 -322q0 -99 -29 -177.5t-76.5 -129.5t-113 -85t-134.5 -48.5t-145 -14.5h-205v-213h-160zM387 348h188q74 0 133.5 15.5t109 50t77 97.5t27.5 151q0 150 -90.5 223t-253.5 73h-191v-610z" />
<glyph unicode="&#xdf;" horiz-adv-x="1259" d="M174 0v1120q0 215 119 324.5t328 109.5q188 0 290.5 -83.5t102.5 -241.5q0 -181 -217 -283q188 -41 283.5 -154.5t95.5 -312.5q0 -253 -119 -380.5t-332 -127.5q-62 0 -112.5 7t-78 16.5t-46.5 19t-25 16.5l-6 7l24 106q5 -5 17 -12.5t62.5 -20t115.5 -12.5 q157 0 243.5 93t86.5 284q0 207 -111 290t-365 83l2 24l-2 115q7 0 18.5 1.5t45 7.5t64 14.5t67.5 26t63.5 39.5t45 56.5t18.5 75.5q0 105 -61.5 161t-172.5 56q-133 0 -205.5 -78t-72.5 -227v-1120h-166z" />
<glyph unicode="&#xe0;" horiz-adv-x="1087" d="M78 264q0 62 25.5 114.5t66.5 89.5t101 66.5t119.5 48.5t130.5 32.5t127 20.5t116 11v31q0 129 -60 188.5t-192 59.5q-53 0 -100 -11.5t-76.5 -28t-52 -32.5t-31.5 -28l-10 -11l-92 78q4 7 11.5 17.5t39 38t70.5 48.5t108 38.5t149 17.5q204 0 302 -90.5t98 -282.5v-680 h-137l-25 152q-8 -18 -19.5 -37t-38.5 -46.5t-60.5 -48t-88.5 -35t-119 -14.5q-174 0 -268 77t-94 216zM246 281q0 -191 243 -191q58 0 107.5 18.5t77 41t50.5 54t29 44.5t11 26v256q-82 -7 -146.5 -16t-137.5 -27.5t-121.5 -44t-80.5 -67t-32 -94.5zM287 1456l157 17 l199 -293l-121 -9z" />
<glyph unicode="&#xe1;" horiz-adv-x="1087" d="M78 264q0 62 25.5 114.5t66.5 89.5t101 66.5t119.5 48.5t130.5 32.5t127 20.5t116 11v31q0 129 -60 188.5t-192 59.5q-53 0 -100 -11.5t-76.5 -28t-52 -32.5t-31.5 -28l-10 -11l-92 78q4 7 11.5 17.5t39 38t70.5 48.5t108 38.5t149 17.5q204 0 302 -90.5t98 -282.5v-680 h-137l-25 152q-8 -18 -19.5 -37t-38.5 -46.5t-60.5 -48t-88.5 -35t-119 -14.5q-174 0 -268 77t-94 216zM246 281q0 -191 243 -191q58 0 107.5 18.5t77 41t50.5 54t29 44.5t11 26v256q-82 -7 -146.5 -16t-137.5 -27.5t-121.5 -44t-80.5 -67t-32 -94.5zM473 1180l199 293 l157 -17l-235 -285z" />
<glyph unicode="&#xe2;" horiz-adv-x="1087" d="M78 264q0 62 25.5 114.5t66.5 89.5t101 66.5t119.5 48.5t130.5 32.5t127 20.5t116 11v31q0 129 -60 188.5t-192 59.5q-53 0 -100 -11.5t-76.5 -28t-52 -32.5t-31.5 -28l-10 -11l-92 78q4 7 11.5 17.5t39 38t70.5 48.5t108 38.5t149 17.5q204 0 302 -90.5t98 -282.5v-680 h-137l-25 152q-8 -18 -19.5 -37t-38.5 -46.5t-60.5 -48t-88.5 -35t-119 -14.5q-174 0 -268 77t-94 216zM240 1319l276 203h92l275 -203l-56 -102l-266 194l-266 -194zM246 281q0 -191 243 -191q58 0 107.5 18.5t77 41t50.5 54t29 44.5t11 26v256q-82 -7 -146.5 -16 t-137.5 -27.5t-121.5 -44t-80.5 -67t-32 -94.5z" />
<glyph unicode="&#xe3;" horiz-adv-x="1087" d="M78 264q0 62 25.5 114.5t66.5 89.5t101 66.5t119.5 48.5t130.5 32.5t127 20.5t116 11v31q0 129 -60 188.5t-192 59.5q-53 0 -100 -11.5t-76.5 -28t-52 -32.5t-31.5 -28l-10 -11l-92 78q4 7 11.5 17.5t39 38t70.5 48.5t108 38.5t149 17.5q204 0 302 -90.5t98 -282.5v-680 h-137l-25 152q-8 -18 -19.5 -37t-38.5 -46.5t-60.5 -48t-88.5 -35t-119 -14.5q-174 0 -268 77t-94 216zM190 1329q3 5 8 12t23.5 26.5t40.5 34t59 26.5t78 12q51 0 105.5 -16.5t93 -36t87 -36t89.5 -16.5q40 0 74 12.5t48 24.5l15 12l35 -81q-2 -4 -5.5 -10t-18.5 -22 t-34 -28.5t-52 -22.5t-72 -10q-46 0 -99 16t-92 34.5t-89.5 34.5t-92.5 16q-44 0 -85 -18.5t-60 -36.5l-19 -19zM246 281q0 -191 243 -191q58 0 107.5 18.5t77 41t50.5 54t29 44.5t11 26v256q-82 -7 -146.5 -16t-137.5 -27.5t-121.5 -44t-80.5 -67t-32 -94.5z" />
<glyph unicode="&#xe4;" horiz-adv-x="1087" d="M78 264q0 62 25.5 114.5t66.5 89.5t101 66.5t119.5 48.5t130.5 32.5t127 20.5t116 11v31q0 129 -60 188.5t-192 59.5q-53 0 -100 -11.5t-76.5 -28t-52 -32.5t-31.5 -28l-10 -11l-92 78q4 7 11.5 17.5t39 38t70.5 48.5t108 38.5t149 17.5q204 0 302 -90.5t98 -282.5v-680 h-137l-25 152q-8 -18 -19.5 -37t-38.5 -46.5t-60.5 -48t-88.5 -35t-119 -14.5q-174 0 -268 77t-94 216zM246 281q0 -191 243 -191q58 0 107.5 18.5t77 41t50.5 54t29 44.5t11 26v256q-82 -7 -146.5 -16t-137.5 -27.5t-121.5 -44t-80.5 -67t-32 -94.5zM305 1249v142h146v-142 h-146zM670 1249v142h145v-142h-145z" />
<glyph unicode="&#xe5;" horiz-adv-x="1087" d="M78 264q0 62 25.5 114.5t66.5 89.5t101 66.5t119.5 48.5t130.5 32.5t127 20.5t116 11v31q0 129 -60 188.5t-192 59.5q-53 0 -100 -11.5t-76.5 -28t-52 -32.5t-31.5 -28l-10 -11l-92 78q4 7 11.5 17.5t39 38t70.5 48.5t108 38.5t149 17.5q204 0 302 -90.5t98 -282.5v-680 h-137l-25 152q-8 -18 -19.5 -37t-38.5 -46.5t-60.5 -48t-88.5 -35t-119 -14.5q-174 0 -268 77t-94 216zM246 281q0 -191 243 -191q58 0 107.5 18.5t77 41t50.5 54t29 44.5t11 26v256q-82 -7 -146.5 -16t-137.5 -27.5t-121.5 -44t-80.5 -67t-32 -94.5zM352 1413 q0 93 60.5 153t150.5 60q87 0 147 -60t60 -153q0 -94 -58.5 -152.5t-148.5 -58.5q-94 0 -152.5 58t-58.5 153zM432 1413q0 -61 37.5 -99t93.5 -38q55 0 92 38t37 99t-37.5 99t-91.5 38q-57 0 -94 -37.5t-37 -99.5z" />
<glyph unicode="&#xe6;" horiz-adv-x="1761" d="M78 264q0 62 26 114.5t67 89.5t101 66.5t119.5 48.5t131 32.5t127.5 20.5t116 11v31q0 129 -61 188.5t-193 59.5q-53 0 -100 -11.5t-76.5 -28t-52 -32.5t-31.5 -28l-10 -11l-92 78q4 7 11.5 17.5t39 38t70.5 48.5t108 38.5t149 17.5q144 0 226 -44.5t114 -140.5 q136 185 389 185q204 0 316.5 -127t112.5 -351q0 -33 -4 -60t-8 -37l-5 -11h-735v-4q0 -174 91.5 -269.5t254.5 -95.5q60 0 113 14t86.5 33.5t58.5 39.5t36 34l11 14l98 -63q-4 -8 -13 -21.5t-43.5 -48t-77 -60.5t-117 -47.5t-160.5 -21.5q-326 0 -447 230 q-116 -230 -385 -230q-174 0 -268 77t-94 216zM246 283q0 -193 243 -193q55 0 100 19.5t73 53.5t48.5 71t31 80t15.5 72t7 56v50v40q-69 -6 -124 -13t-118 -19.5t-109.5 -31t-86 -43.5t-60 -61t-20.5 -81zM936 590h598q2 6 2 24q0 145 -72 229.5t-207 84.5 q-148 0 -230 -92.5t-91 -245.5z" />
<glyph unicode="&#xe7;" horiz-adv-x="1011" d="M86 502q0 264 129.5 407.5t384.5 143.5q71 0 133 -12.5t101 -31t67.5 -36.5t40.5 -31l12 -12l-51 -103q-4 4 -12.5 11t-36 24.5t-58 30.5t-78.5 24t-97 11q-187 0 -276 -104t-89 -320q0 -210 92 -309t258 -99q53 0 102.5 12.5t82.5 31t58.5 36.5t37.5 30l12 13l86 -63 q-3 -6 -9.5 -16.5t-32.5 -38t-58 -50t-89 -44.5t-124 -30l-17 -122q0 -3 23.5 -7t56.5 -13t66 -24t56.5 -47.5t23.5 -76.5q0 -95 -60 -148t-180 -53q-48 0 -88.5 9.5t-65 22.5t-42 26t-24.5 22l-7 10l43 47q6 -7 18 -17.5t53.5 -28t87.5 -17.5q160 0 160 125 q0 41 -33.5 67.5t-73 34.5t-73 15t-33.5 14l23 155q-244 2 -372 135.5t-128 395.5z" />
<glyph unicode="&#xe8;" horiz-adv-x="1081" d="M86 492q0 260 132 410.5t362 150.5q204 0 316 -127t112 -351q0 -33 -4 -60t-8 -37l-5 -11h-735v-4q0 -174 91.5 -269.5t254.5 -95.5q60 0 113 14t86.5 33.5t58.5 39.5t36 34l11 14l99 -63q-4 -8 -13 -21.5t-43.5 -48t-77.5 -60.5t-117.5 -47.5t-160.5 -21.5 q-237 0 -372.5 132t-135.5 389zM258 590h598q2 6 2 24q0 145 -71.5 229.5t-206.5 84.5q-148 0 -230.5 -92.5t-91.5 -245.5zM303 1456l158 17l198 -293l-120 -9z" />
<glyph unicode="&#xe9;" horiz-adv-x="1081" d="M86 492q0 260 132 410.5t362 150.5q204 0 316 -127t112 -351q0 -33 -4 -60t-8 -37l-5 -11h-735v-4q0 -174 91.5 -269.5t254.5 -95.5q60 0 113 14t86.5 33.5t58.5 39.5t36 34l11 14l99 -63q-4 -8 -13 -21.5t-43.5 -48t-77.5 -60.5t-117.5 -47.5t-160.5 -21.5 q-237 0 -372.5 132t-135.5 389zM258 590h598q2 6 2 24q0 145 -71.5 229.5t-206.5 84.5q-148 0 -230.5 -92.5t-91.5 -245.5zM489 1180l199 293l158 -17l-236 -285z" />
<glyph unicode="&#xea;" horiz-adv-x="1081" d="M86 492q0 260 132 410.5t362 150.5q204 0 316 -127t112 -351q0 -33 -4 -60t-8 -37l-5 -11h-735v-4q0 -174 91.5 -269.5t254.5 -95.5q60 0 113 14t86.5 33.5t58.5 39.5t36 34l11 14l99 -63q-4 -8 -13 -21.5t-43.5 -48t-77.5 -60.5t-117.5 -47.5t-160.5 -21.5 q-237 0 -372.5 132t-135.5 389zM258 590h598q2 6 2 24q0 145 -71.5 229.5t-206.5 84.5q-148 0 -230.5 -92.5t-91.5 -245.5zM258 1319l277 203h92l274 -203l-55 -102l-266 194l-267 -194z" />
<glyph unicode="&#xeb;" horiz-adv-x="1081" d="M86 492q0 260 132 410.5t362 150.5q204 0 316 -127t112 -351q0 -33 -4 -60t-8 -37l-5 -11h-735v-4q0 -174 91.5 -269.5t254.5 -95.5q60 0 113 14t86.5 33.5t58.5 39.5t36 34l11 14l99 -63q-4 -8 -13 -21.5t-43.5 -48t-77.5 -60.5t-117.5 -47.5t-160.5 -21.5 q-237 0 -372.5 132t-135.5 389zM258 590h598q2 6 2 24q0 145 -71.5 229.5t-206.5 84.5q-148 0 -230.5 -92.5t-91.5 -245.5zM324 1249v142h145v-142h-145zM688 1249v142h146v-142h-146z" />
<glyph unicode="&#xec;" horiz-adv-x="514" d="M-18 1456l157 17l199 -293l-121 -9zM174 0v1024h166v-1024h-166z" />
<glyph unicode="&#xed;" horiz-adv-x="514" d="M168 1180l199 293l157 -17l-235 -285zM174 0v1024h166v-1024h-166z" />
<glyph unicode="&#xee;" horiz-adv-x="514" d="M-66 1319l277 203h92l275 -203l-56 -102l-266 194l-266 -194zM174 0v1024h166v-1024h-166z" />
<glyph unicode="&#xef;" horiz-adv-x="514" d="M2 1249v142h145v-142h-145zM174 0v1024h166v-1024h-166zM367 1249v142h145v-142h-145z" />
<glyph unicode="&#xf0;" horiz-adv-x="1214" d="M88 512q0 254 129.5 397.5t370.5 143.5q97 0 186.5 -36.5t157.5 -103.5q-58 238 -223 406l-258 -125l-31 63l235 113q-55 47 -131 96l113 50q76 -41 133 -89l195 95l30 -64l-168 -82q281 -281 281 -839q0 -271 -130 -418.5t-380 -147.5q-244 0 -377 144t-133 397z M256 512q0 -198 84 -307t258 -109q172 0 257 109t85 307q0 118 -35.5 210t-114 149t-192.5 57q-173 0 -257.5 -109.5t-84.5 -306.5z" />
<glyph unicode="&#xf1;" d="M174 0v1024h148l14 -104q105 133 338 133q175 0 278 -87.5t103 -250.5v-715h-164v684q0 106 -73.5 164.5t-199.5 58.5q-57 0 -107 -12.5t-80 -30.5t-52 -35.5t-31 -30.5l-8 -12v-786h-166zM205 1327q3 5 8 12t23.5 26.5t40.5 34t59 26.5t78 12q51 0 105 -16.5t93 -36 t87 -36t89 -16.5q40 0 74.5 12.5t49.5 24.5l14 12l35 -82q-2 -4 -5.5 -10t-19 -22t-34 -28t-52 -22t-72.5 -10q-58 0 -124.5 25t-130.5 50.5t-117 25.5q-44 0 -85 -18.5t-60 -36.5l-19 -19z" />
<glyph unicode="&#xf2;" horiz-adv-x="1193" d="M86 512q0 255 131 398t379 143q249 0 379.5 -143t130.5 -398q0 -253 -132.5 -397t-377.5 -144q-248 0 -379 143t-131 398zM256 512q0 -198 84 -307t256 -109q174 0 258 109t84 307q0 197 -84.5 306.5t-257.5 109.5q-172 0 -256 -109.5t-84 -306.5zM322 1456l157 17 l199 -293l-121 -9z" />
<glyph unicode="&#xf3;" horiz-adv-x="1193" d="M86 512q0 255 131 398t379 143q249 0 379.5 -143t130.5 -398q0 -253 -132.5 -397t-377.5 -144q-248 0 -379 143t-131 398zM256 512q0 -198 84 -307t256 -109q174 0 258 109t84 307q0 197 -84.5 306.5t-257.5 109.5q-172 0 -256 -109.5t-84 -306.5zM508 1180l199 293 l157 -17l-235 -285z" />
<glyph unicode="&#xf4;" horiz-adv-x="1193" d="M86 512q0 255 131 398t379 143q249 0 379.5 -143t130.5 -398q0 -253 -132.5 -397t-377.5 -144q-248 0 -379 143t-131 398zM256 512q0 -198 84 -307t256 -109q174 0 258 109t84 307q0 197 -84.5 306.5t-257.5 109.5q-172 0 -256 -109.5t-84 -306.5zM272 1319l277 203h92 l274 -203l-55 -102l-266 194l-266 -194z" />
<glyph unicode="&#xf5;" horiz-adv-x="1193" d="M86 512q0 255 131 398t379 143q249 0 379.5 -143t130.5 -398q0 -253 -132.5 -397t-377.5 -144q-248 0 -379 143t-131 398zM223 1329q3 5 8 12t23.5 26.5t40.5 34t59 26.5t78 12q51 0 105.5 -16.5t93 -36t87 -36t89.5 -16.5q40 0 74.5 12.5t48.5 24.5l14 12l35 -81 q-2 -4 -5.5 -10t-18.5 -22t-34 -28.5t-52 -22.5t-72 -10q-46 0 -99 16t-92.5 34.5t-89.5 34.5t-92 16q-44 0 -85 -18.5t-60 -36.5l-19 -19zM256 512q0 -198 84 -307t256 -109q174 0 258 109t84 307q0 197 -84.5 306.5t-257.5 109.5q-172 0 -256 -109.5t-84 -306.5z" />
<glyph unicode="&#xf6;" horiz-adv-x="1193" d="M86 512q0 255 131 398t379 143q249 0 379.5 -143t130.5 -398q0 -253 -132.5 -397t-377.5 -144q-248 0 -379 143t-131 398zM256 512q0 -198 84 -307t256 -109q174 0 258 109t84 307q0 197 -84.5 306.5t-257.5 109.5q-172 0 -256 -109.5t-84 -306.5zM340 1249v142h145v-142 h-145zM705 1249v142h145v-142h-145z" />
<glyph unicode="&#xf7;" horiz-adv-x="1116" d="M80 455v129h956v-129h-956zM475 59v154h158v-154h-158zM479 827v154h158v-154h-158z" />
<glyph unicode="&#xf8;" horiz-adv-x="1234" d="M86 512q0 255 131 398t379 143q99 0 197 -31l141 309l113 -12l-156 -340q106 -65 160.5 -184.5t54.5 -282.5q0 -253 -132.5 -397t-377.5 -144q-82 0 -156 19l-161 -357l-111 13l172 377q-125 61 -189.5 186t-64.5 303zM256 512q0 -264 141 -362l342 753q-64 25 -143 25 q-172 0 -256 -109.5t-84 -306.5zM494 106q52 -10 102 -10q174 0 258 109t84 307q0 226 -109 332z" />
<glyph unicode="&#xf9;" d="M158 309v715h166v-684q0 -106 72.5 -164.5t197.5 -58.5q58 0 108 12.5t80.5 30.5t52 35.5t30.5 30.5l9 12v786h164v-1024h-147l-14 104q-10 -15 -29.5 -33t-58 -43t-104.5 -41t-146 -16q-175 0 -278 87.5t-103 250.5zM324 1456l157 17l199 -293l-121 -9z" />
<glyph unicode="&#xfa;" d="M158 309v715h166v-684q0 -106 72.5 -164.5t197.5 -58.5q58 0 108 12.5t80.5 30.5t52 35.5t30.5 30.5l9 12v786h164v-1024h-147l-14 104q-10 -15 -29.5 -33t-58 -43t-104.5 -41t-146 -16q-175 0 -278 87.5t-103 250.5zM510 1180l199 293l157 -17l-235 -285z" />
<glyph unicode="&#xfb;" d="M158 309v715h166v-684q0 -106 72.5 -164.5t197.5 -58.5q58 0 108 12.5t80.5 30.5t52 35.5t30.5 30.5l9 12v786h164v-1024h-147l-14 104q-10 -15 -29.5 -33t-58 -43t-104.5 -41t-146 -16q-175 0 -278 87.5t-103 250.5zM276 1319l277 203h92l275 -203l-56 -102l-266 194 l-266 -194z" />
<glyph unicode="&#xfc;" d="M158 309v715h166v-684q0 -106 72.5 -164.5t197.5 -58.5q58 0 108 12.5t80.5 30.5t52 35.5t30.5 30.5l9 12v786h164v-1024h-147l-14 104q-10 -15 -29.5 -33t-58 -43t-104.5 -41t-146 -16q-175 0 -278 87.5t-103 250.5zM344 1249v142h145v-142h-145zM709 1249v142h145v-142 h-145z" />
<glyph unicode="&#xfd;" horiz-adv-x="1085" d="M33 1024h182l354 -850h4l297 850h183l-412 -1049q-63 -160 -125 -269.5t-140 -178t-161 -68.5q-41 0 -77 9.5t-52 18.5l-16 9l28 135q43 -24 88 -24q84 0 155.5 103.5t145.5 295.5zM477 1180l199 293l158 -17l-236 -285z" />
<glyph unicode="&#xfe;" horiz-adv-x="1224" d="M174 -512v2048h164v-664h4q3 7 10 19.5t34.5 43.5t61 55t93 43.5t127.5 19.5q214 0 342.5 -136.5t128.5 -375.5q0 -259 -126.5 -414.5t-359.5 -155.5q-197 0 -315 125v-608h-164zM338 238q2 -5 9.5 -17t28.5 -34t48.5 -40.5t74 -32.5t99.5 -14q190 0 281.5 115t91.5 322 q0 193 -91.5 290t-261.5 97q-59 0 -108.5 -18.5t-78.5 -42.5t-52 -55.5t-30 -47t-11 -27.5v-495z" />
<glyph unicode="&#xff;" horiz-adv-x="1085" d="M33 1024h182l354 -850h4l297 850h183l-412 -1049q-63 -160 -125 -269.5t-140 -178t-161 -68.5q-41 0 -77 9.5t-52 18.5l-16 9l28 135q43 -24 88 -24q84 0 155.5 103.5t145.5 295.5zM311 1249v142h146v-142h-146zM676 1249v142h145v-142h-145z" />
<glyph unicode="&#x100;" horiz-adv-x="1368" d="M51 0l518 1331h230l518 -1331h-176l-137 344h-644l-135 -344h-174zM403 459h558l-279 733zM463 1571v90h440v-90h-440z" />
<glyph unicode="&#x101;" horiz-adv-x="1087" d="M78 264q0 62 25.5 114.5t66.5 89.5t101 66.5t119.5 48.5t130.5 32.5t127 20.5t116 11v31q0 129 -60 188.5t-192 59.5q-53 0 -100 -11.5t-76.5 -28t-52 -32.5t-31.5 -28l-10 -11l-92 78q4 7 11.5 17.5t39 38t70.5 48.5t108 38.5t149 17.5q204 0 302 -90.5t98 -282.5v-680 h-137l-25 152q-8 -18 -19.5 -37t-38.5 -46.5t-60.5 -48t-88.5 -35t-119 -14.5q-174 0 -268 77t-94 216zM246 281q0 -191 243 -191q58 0 107.5 18.5t77 41t50.5 54t29 44.5t11 26v256q-82 -7 -146.5 -16t-137.5 -27.5t-121.5 -44t-80.5 -67t-32 -94.5zM342 1294v90h440v-90 h-440z" />
<glyph unicode="&#x102;" horiz-adv-x="1368" d="M51 0l518 1331h230l518 -1331h-176l-137 344h-644l-135 -344h-174zM328 1665l131 21l8 2q2 -5 5.5 -13t20 -29t38.5 -37t63 -29t90 -13t89 12.5t62.5 30.5t37.5 35.5t21 30.5l5 12l10 -2l131 -21q-1 -4 -3.5 -11.5t-13 -29.5t-25.5 -41.5t-43.5 -44t-63.5 -41.5 t-89.5 -29t-117.5 -12q-87 0 -155.5 21.5t-104.5 52t-59.5 61.5t-30.5 53zM403 459h558l-279 733z" />
<glyph unicode="&#x103;" horiz-adv-x="1087" d="M78 264q0 62 25.5 114.5t66.5 89.5t101 66.5t119.5 48.5t130.5 32.5t127 20.5t116 11v31q0 129 -60 188.5t-192 59.5q-53 0 -100 -11.5t-76.5 -28t-52 -32.5t-31.5 -28l-10 -11l-92 78q4 7 11.5 17.5t39 38t70.5 48.5t108 38.5t149 17.5q204 0 302 -90.5t98 -282.5v-680 h-137l-25 152q-8 -18 -19.5 -37t-38.5 -46.5t-60.5 -48t-88.5 -35t-119 -14.5q-174 0 -268 77t-94 216zM207 1389l131 20l8 2q2 -5 5.5 -13t20 -29t38.5 -37t63 -29t90 -13t89 12.5t62.5 30t37.5 35.5t20 30l6 13l10 -2l132 -20q-1 -4 -3.5 -11.5t-13 -29.5t-25.5 -41.5 t-44 -44t-64 -41.5t-89.5 -29t-117.5 -12q-87 0 -155.5 21.5t-104.5 52t-59.5 61.5t-29.5 53zM246 281q0 -191 243 -191q58 0 107.5 18.5t77 41t50.5 54t29 44.5t11 26v256q-82 -7 -146.5 -16t-137.5 -27.5t-121.5 -44t-80.5 -67t-32 -94.5z" />
<glyph unicode="&#x104;" horiz-adv-x="1368" d="M51 0l518 1331h230l518 -1331q-9 -4 -23 -11t-51 -32t-65 -53.5t-51 -75t-23 -96.5q0 -156 260 -156v-88q-379 0 -379 240q0 87 57 155.5t136 116.5h-37l-137 344h-644l-135 -344h-174zM403 459h558l-279 733z" />
<glyph unicode="&#x105;" horiz-adv-x="1087" d="M78 264q0 62 25.5 114.5t66.5 89.5t101 66.5t119.5 48.5t130.5 32.5t127 20.5t116 11v31q0 129 -60 188.5t-192 59.5q-53 0 -100 -11.5t-76.5 -28t-52 -32.5t-31.5 -28l-10 -11l-92 78q4 7 11.5 17.5t39 38t70.5 48.5t108 38.5t149 17.5q204 0 302 -90.5t98 -282.5v-680 h-2q-9 -4 -23 -11t-51 -32t-65 -53.5t-51 -75t-23 -96.5q0 -156 260 -156v-88q-379 0 -379 240q0 154 197 274l-25 150q-8 -18 -19.5 -37t-38.5 -46.5t-60.5 -48t-88.5 -35t-119 -14.5q-174 0 -268 77t-94 216zM246 281q0 -191 243 -191q58 0 107.5 18.5t77 41t50.5 54 t29 44.5t11 26v256q-82 -7 -146.5 -16t-137.5 -27.5t-121.5 -44t-80.5 -67t-32 -94.5z" />
<glyph unicode="&#x106;" horiz-adv-x="1370" d="M113 655q0 319 185 511t501 192q68 0 131 -11.5t109.5 -30t87 -41.5t67 -45.5t46 -41t28.5 -30.5l8 -11l-66 -111q-7 7 -20.5 19t-56.5 42.5t-87.5 53.5t-109.5 42t-127 19q-244 0 -382 -149.5t-138 -407.5q0 -251 138.5 -394.5t371.5 -143.5q84 0 162.5 21.5t130.5 52.5 t91.5 61.5t58.5 51.5l18 22l67 -115q-6 -10 -18 -26t-58.5 -57.5t-102 -73t-151.5 -57.5t-204 -26q-321 0 -500.5 183t-179.5 501zM705 1456l198 293l158 -16l-236 -285z" />
<glyph unicode="&#x107;" horiz-adv-x="1011" d="M86 502q0 264 129.5 407.5t384.5 143.5q71 0 133 -12.5t101 -31t67.5 -36.5t40.5 -31l12 -12l-51 -103q-4 4 -12.5 11t-36 24.5t-58 30.5t-78.5 24t-97 11q-187 0 -276 -104t-89 -320q0 -210 92 -309t258 -99q53 0 102.5 12.5t82.5 31t58.5 36.5t37.5 30l12 13l86 -63 q-4 -8 -11.5 -20t-39.5 -44t-72.5 -56.5t-112.5 -44.5t-157 -20q-247 0 -376.5 134t-129.5 397zM535 1180l198 293l158 -17l-236 -285z" />
<glyph unicode="&#x10c;" horiz-adv-x="1370" d="M113 655q0 319 185 511t501 192q68 0 131 -11.5t109.5 -30t87 -41.5t67 -45.5t46 -41t28.5 -30.5l8 -11l-66 -111q-7 7 -20.5 19t-56.5 42.5t-87.5 53.5t-109.5 42t-127 19q-244 0 -382 -149.5t-138 -407.5q0 -251 138.5 -394.5t371.5 -143.5q84 0 162.5 21.5t130.5 52.5 t91.5 61.5t58.5 51.5l18 22l67 -115q-6 -10 -18 -26t-58.5 -57.5t-102 -73t-151.5 -57.5t-204 -26q-321 0 -500.5 183t-179.5 501zM473 1653l55 100l265 -197l268 197l55 -100l-276 -203h-92z" />
<glyph unicode="&#x10d;" horiz-adv-x="1011" d="M86 502q0 264 129.5 407.5t384.5 143.5q71 0 133 -12.5t101 -31t67.5 -36.5t40.5 -31l12 -12l-51 -103q-4 4 -12.5 11t-36 24.5t-58 30.5t-78.5 24t-97 11q-187 0 -276 -104t-89 -320q0 -210 92 -309t258 -99q53 0 102.5 12.5t82.5 31t58.5 36.5t37.5 30l12 13l86 -63 q-4 -8 -11.5 -20t-39.5 -44t-72.5 -56.5t-112.5 -44.5t-157 -20q-247 0 -376.5 134t-129.5 397zM303 1376l55 101l265 -197l268 197l55 -101l-276 -202h-92z" />
<glyph unicode="&#x10e;" horiz-adv-x="1517" d="M227 0v1331h478q335 0 517.5 -172t182.5 -497q0 -323 -180 -492.5t-518 -169.5h-480zM334 1653l55 100l264 -197l269 197l55 -100l-277 -203h-92zM399 143h310q254 0 387 130.5t133 388.5t-134.5 392t-389.5 134h-306v-1045z" />
<glyph unicode="&#x10f;" horiz-adv-x="1226" d="M86 483q0 170 54.5 297t165.5 200t267 73q64 0 119.5 -13.5t89 -32.5t58.5 -37.5t35 -31.5l10 -14h4v612h164v-1536h-148l-14 141q-12 -23 -31.5 -46t-58 -54t-101.5 -50.5t-141 -19.5q-214 0 -343.5 137t-129.5 375zM256 487q0 -193 90 -289t260 -96q58 0 108 18.5 t79.5 42t53 54.5t31 46t11.5 26v495q-3 6 -8.5 15.5t-27.5 33.5t-49.5 42.5t-74.5 33.5t-102 15q-189 0 -280 -115t-91 -322zM1184 1130q30 81 53 209t23 220h12l114 2q0 -98 -31 -232t-69 -213z" />
<glyph unicode="&#x110;" horiz-adv-x="1517" d="M57 604v113h170v614h478q335 0 517.5 -172t182.5 -497q0 -323 -180 -492.5t-518 -169.5h-480v604h-170zM399 143h310q254 0 387 130.5t133 388.5t-134.5 392t-389.5 134h-306v-471h461v-113h-461v-461z" />
<glyph unicode="&#x111;" horiz-adv-x="1226" d="M86 483q0 170 54.5 297t165.5 200t267 73q64 0 119.5 -13.5t89 -32.5t58.5 -37.5t35 -31.5l10 -14h4v336h-299v116h299v160h164v-160h139v-102l-139 -14v-1260h-148l-14 141q-12 -23 -31.5 -46t-58 -54t-101.5 -50.5t-141 -19.5q-214 0 -343.5 137t-129.5 375zM256 487 q0 -193 90 -289t260 -96q58 0 108 18.5t79.5 42t53 54.5t31 46t11.5 26v495q-3 6 -8.5 15.5t-27.5 33.5t-49.5 42.5t-74.5 33.5t-102 15q-189 0 -280 -115t-91 -322z" />
<glyph unicode="&#x112;" d="M227 0v1331h838v-137h-666v-455h611v-133h-611v-469h719v-137h-891zM434 1571v90h440v-90h-440z" />
<glyph unicode="&#x113;" horiz-adv-x="1081" d="M86 492q0 260 132 410.5t362 150.5q204 0 316 -127t112 -351q0 -33 -4 -60t-8 -37l-5 -11h-735v-4q0 -174 91.5 -269.5t254.5 -95.5q60 0 113 14t86.5 33.5t58.5 39.5t36 34l11 14l99 -63q-4 -8 -13 -21.5t-43.5 -48t-77.5 -60.5t-117.5 -47.5t-160.5 -21.5 q-237 0 -372.5 132t-135.5 389zM258 590h598q2 6 2 24q0 145 -71.5 229.5t-206.5 84.5q-148 0 -230.5 -92.5t-91.5 -245.5zM360 1294v90h441v-90h-441z" />
<glyph unicode="&#x116;" d="M227 0v1331h838v-137h-666v-455h611v-133h-611v-469h719v-137h-891zM582 1526v141h147v-141h-147z" />
<glyph unicode="&#x117;" horiz-adv-x="1081" d="M86 492q0 260 132 410.5t362 150.5q204 0 316 -127t112 -351q0 -33 -4 -60t-8 -37l-5 -11h-735v-4q0 -174 91.5 -269.5t254.5 -95.5q60 0 113 14t86.5 33.5t58.5 39.5t36 34l11 14l99 -63q-4 -8 -13 -21.5t-43.5 -48t-77.5 -60.5t-117.5 -47.5t-160.5 -21.5 q-237 0 -372.5 132t-135.5 389zM258 590h598q2 6 2 24q0 145 -71.5 229.5t-206.5 84.5q-148 0 -230.5 -92.5t-91.5 -245.5zM506 1249v142h147v-142h-147z" />
<glyph unicode="&#x118;" d="M227 0v1331h838v-137h-666v-455h611v-133h-611v-469h719v-137h-2q-9 -4 -23 -11t-51 -32t-65 -53.5t-51 -75t-23 -96.5q0 -156 260 -156v-88q-379 0 -379 240q0 87 57 155.5t136 116.5h-750z" />
<glyph unicode="&#x119;" horiz-adv-x="1081" d="M86 492q0 260 132 410.5t362 150.5q204 0 316 -127t112 -351q0 -33 -4 -60t-8 -37l-5 -11h-735v-4q0 -174 91.5 -269.5t254.5 -95.5q60 0 113 14t86.5 33.5t58.5 39.5t36 34l11 14l99 -63q-3 -5 -9 -14.5t-29 -34.5t-50 -47t-73.5 -46t-99.5 -38q-19 -10 -39 -22.5 t-48.5 -37t-50 -51.5t-37 -66t-15.5 -81q0 -156 260 -156v-88q-379 0 -379 240q0 136 150 243q-234 3 -367 134t-133 387zM258 590h598q2 6 2 24q0 145 -71.5 229.5t-206.5 84.5q-148 0 -230.5 -92.5t-91.5 -245.5z" />
<glyph unicode="&#x11a;" d="M227 0v1331h838v-137h-666v-455h611v-133h-611v-469h719v-137h-891zM336 1653l55 100l264 -197l269 197l55 -100l-277 -203h-92z" />
<glyph unicode="&#x11b;" horiz-adv-x="1081" d="M86 492q0 260 132 410.5t362 150.5q204 0 316 -127t112 -351q0 -33 -4 -60t-8 -37l-5 -11h-735v-4q0 -174 91.5 -269.5t254.5 -95.5q60 0 113 14t86.5 33.5t58.5 39.5t36 34l11 14l99 -63q-4 -8 -13 -21.5t-43.5 -48t-77.5 -60.5t-117.5 -47.5t-160.5 -21.5 q-237 0 -372.5 132t-135.5 389zM258 590h598q2 6 2 24q0 145 -71.5 229.5t-206.5 84.5q-148 0 -230.5 -92.5t-91.5 -245.5zM260 1376l55 101l265 -197l268 197l55 -101l-276 -202h-92z" />
<glyph unicode="&#x11e;" horiz-adv-x="1486" d="M113 662q0 322 184.5 509t515.5 187q81 0 157.5 -14.5t126.5 -35t88.5 -40.5t56.5 -34l18 -15l-50 -117q-22 12 -59.5 30.5t-138.5 49t-185 30.5q-270 0 -404 -144t-134 -406q0 -259 131.5 -402t357.5 -143q84 0 152 20t106 46t66.5 62t37.5 55t15 38v252h-324v133h469 v-723h-120l-15 111q-159 -140 -424 -140q-299 0 -463.5 184t-164.5 507zM473 1665l131 21l8 2q2 -5 5.5 -13t20 -29t38.5 -37t63 -29t90 -13t89 12.5t62.5 30.5t37.5 35.5t20 30.5l6 12l11 -2l131 -21q-1 -4 -3.5 -11.5t-13 -29.5t-25.5 -41.5t-44 -44t-64 -41.5t-89.5 -29 t-117.5 -12q-87 0 -155.5 21.5t-104.5 52t-59.5 61.5t-29.5 53z" />
<glyph unicode="&#x11f;" horiz-adv-x="1085" d="M49 -182q0 127 77.5 206.5t221.5 110.5q-51 45 -51 109q0 57 33 110q-100 42 -155.5 124.5t-55.5 199.5q0 98 36 172t98.5 117.5t139.5 64.5t166 21q186 0 301 -93t115 -280q0 -178 -113 -272.5t-307 -94.5q-51 0 -98 6q-25 -20 -25 -77q0 -32 23 -53t44.5 -27.5 t41.5 -7.5h6q268 0 398 -84t130 -254q0 -169 -121.5 -263t-380.5 -94q-524 0 -524 359zM172 1391l131 20l8 2q2 -5 5.5 -13t20 -29t38.5 -37t63 -29t90 -13t89 12.5t62.5 30t37.5 35.5t21 30l5 13l11 -2l131 -20q-1 -4 -3.5 -11.5t-13 -29.5t-25.5 -41.5t-44 -44t-64 -41.5 t-89.5 -29t-117.5 -12q-87 0 -155.5 21.5t-104.5 52t-59.5 61.5t-30.5 53zM209 -184q0 -230 364 -230q340 0 340 230q0 112 -88.5 163.5t-277.5 51.5q-338 0 -338 -215zM279 678q0 -117 72.5 -183.5t199.5 -66.5q126 0 195 66t69 186q0 128 -71.5 189t-192.5 61 q-59 0 -106.5 -13.5t-85.5 -42t-59 -78.5t-21 -118z" />
<glyph unicode="&#x122;" horiz-adv-x="1486" d="M113 662q0 322 184.5 509t515.5 187q81 0 157.5 -14.5t126.5 -35t88.5 -40.5t56.5 -34l18 -15l-50 -117q-22 12 -59.5 30.5t-138.5 49t-185 30.5q-270 0 -404 -144t-134 -406q0 -259 131.5 -402t357.5 -143q84 0 152 20t106 46t66.5 62t37.5 55t15 38v252h-324v133h469 v-723h-120l-15 111q-159 -140 -424 -140q-299 0 -463.5 184t-164.5 507zM621 -543q67 55 101.5 128.5t35.5 183.5h-51v133h149q8 -60 8 -127q0 -271 -178 -369z" />
<glyph unicode="&#x123;" horiz-adv-x="1085" d="M49 -182q0 127 77.5 206.5t221.5 110.5q-51 45 -51 109q0 57 33 110q-100 42 -155.5 124.5t-55.5 199.5q0 98 36 172t98.5 117.5t139.5 64.5t166 21q186 0 301 -93t115 -280q0 -178 -113 -272.5t-307 -94.5q-51 0 -98 6q-25 -20 -25 -77q0 -32 23 -53t44.5 -27.5 t41.5 -7.5h6q268 0 398 -84t130 -254q0 -169 -121.5 -263t-380.5 -94q-524 0 -524 359zM209 -184q0 -230 364 -230q340 0 340 230q0 112 -88.5 163.5t-277.5 51.5q-338 0 -338 -215zM279 678q0 -117 72.5 -183.5t199.5 -66.5q126 0 195 66t69 186q0 128 -71.5 189t-192.5 61 q-59 0 -106.5 -13.5t-85.5 -42t-59 -78.5t-21 -118zM449 1311q0 270 178 368l65 -51q-68 -55 -102 -128t-35 -183h51v-133h-149q-8 60 -8 127z" />
<glyph unicode="&#x12a;" horiz-adv-x="626" d="M90 1571v90h440v-90h-440zM227 0v1331h172v-1331h-172z" />
<glyph unicode="&#x12b;" horiz-adv-x="514" d="M37 1294v90h440v-90h-440zM174 0v1024h166v-1024h-166z" />
<glyph unicode="&#x12e;" horiz-adv-x="626" d="M68 -272q0 155 192 272h-33v1331h172v-1331q-9 -4 -23 -11t-51 -32t-65 -53.5t-51 -75t-23 -96.5q0 -156 260 -156v-88q-378 0 -378 240z" />
<glyph unicode="&#x12f;" horiz-adv-x="514" d="M8 -272q0 87 57 155.5t136 116.5h-27v1024h166v-1024q-9 -4 -23 -11t-51 -32t-65 -53.5t-51 -75t-23 -96.5q0 -156 260 -156v-88q-379 0 -379 240zM184 1249v142h148v-142h-148z" />
<glyph unicode="&#x130;" horiz-adv-x="626" d="M227 0v1331h172v-1331h-172zM240 1526v141h147v-141h-147z" />
<glyph unicode="&#x131;" horiz-adv-x="514" d="M174 0v1024h166v-1024h-166z" />
<glyph unicode="&#x136;" horiz-adv-x="1376" d="M227 0v1331h172v-700l181 125l518 575h192l-575 -641l622 -690h-200l-543 592l-195 -135v-457h-172zM535 -543q67 55 101.5 128.5t35.5 183.5h-51v133h149q8 -60 8 -127q0 -271 -178 -369z" />
<glyph unicode="&#x137;" horiz-adv-x="1050" d="M174 0v1536h166v-956l98 65l377 379h191l-437 -449l465 -575h-198l-402 494l-94 -48v-446h-166zM428 -543q67 55 101.5 128.5t35.5 183.5h-51v133h150q8 -60 8 -127q0 -271 -178 -369z" />
<glyph unicode="&#x139;" horiz-adv-x="1126" d="M217 1456l199 293l157 -16l-235 -285zM227 0v1331h172v-1194h703v-137h-875z" />
<glyph unicode="&#x13a;" horiz-adv-x="514" d="M174 0v1536h166v-1536h-166zM201 1640l198 293l158 -16l-235 -285z" />
<glyph unicode="&#x13b;" horiz-adv-x="1126" d="M227 0v1331h172v-1194h703v-137h-875zM459 -543q67 55 101.5 128.5t35.5 183.5h-51v133h149q8 -60 8 -127q0 -271 -178 -369z" />
<glyph unicode="&#x13c;" horiz-adv-x="514" d="M106 -543q68 55 102.5 128.5t35.5 183.5h-51v133h149q8 -60 8 -127q0 -271 -178 -369zM174 0v1536h166v-1536h-166z" />
<glyph unicode="&#x13d;" horiz-adv-x="1126" d="M0 1653l55 100l264 -197l269 197l55 -100l-276 -203h-93zM227 0v1331h172v-1194h703v-137h-875z" />
<glyph unicode="&#x13e;" horiz-adv-x="514" d="M174 0v1536h166v-1536h-166zM477 1130q30 81 53 209t23 220h12l115 2q0 -98 -31 -232t-69 -213z" />
<glyph unicode="&#x141;" horiz-adv-x="1167" d="M51 489l205 129v713h172v-606l301 190l45 -73l-346 -217v-488h702v-137h-874v516l-162 -100z" />
<glyph unicode="&#x142;" horiz-adv-x="636" d="M16 608l220 146v782h165v-672l230 154l47 -72l-277 -184v-762h-165v651l-173 -114z" />
<glyph unicode="&#x143;" horiz-adv-x="1574" d="M227 0v1331h181l778 -1100l-4 48v1052h168v-1331h-185l-778 1098h-4l10 -64v-1034h-166zM717 1456l198 293l158 -16l-235 -285z" />
<glyph unicode="&#x144;" d="M174 0v1024h148l14 -104q105 133 338 133q175 0 278 -87.5t103 -250.5v-715h-164v684q0 106 -73.5 164.5t-199.5 58.5q-57 0 -107 -12.5t-80 -30.5t-52 -35.5t-31 -30.5l-8 -12v-786h-166zM489 1182l199 293l158 -17l-236 -284z" />
<glyph unicode="&#x145;" horiz-adv-x="1574" d="M227 0v1331h181l778 -1100l-4 48v1052h168v-1331h-185l-778 1098h-4l10 -64v-1034h-166zM631 -543q67 55 101.5 128.5t35.5 183.5h-51v133h149q8 -60 8 -127q0 -271 -178 -369z" />
<glyph unicode="&#x146;" d="M174 0v1024h148l14 -104q105 133 338 133q175 0 278 -87.5t103 -250.5v-715h-164v684q0 106 -73.5 164.5t-199.5 58.5q-57 0 -107 -12.5t-80 -30.5t-52 -35.5t-31 -30.5l-8 -12v-786h-166zM492 -543q67 55 101.5 128.5t35.5 183.5h-51v133h149q8 -60 8 -127 q0 -271 -178 -369z" />
<glyph unicode="&#x147;" horiz-adv-x="1574" d="M227 0v1331h181l778 -1100l-4 48v1052h168v-1331h-185l-778 1098h-4l10 -64v-1034h-166zM518 1653l55 100l265 -197l268 197l55 -100l-276 -203h-92z" />
<glyph unicode="&#x148;" d="M174 0v1024h148l14 -104q105 133 338 133q175 0 278 -87.5t103 -250.5v-715h-164v684q0 106 -73.5 164.5t-199.5 58.5q-57 0 -107 -12.5t-80 -30.5t-52 -35.5t-31 -30.5l-8 -12v-786h-166zM258 1378l55 101l265 -197l268 197l55 -101l-276 -202h-93z" />
<glyph unicode="&#x14c;" horiz-adv-x="1566" d="M113 664q0 319 177.5 506.5t491.5 187.5t493 -187.5t179 -506.5q0 -320 -178.5 -506.5t-493.5 -186.5q-314 0 -491.5 186.5t-177.5 506.5zM289 664q0 -255 130.5 -401t362.5 -146t364 146.5t132 400.5q0 252 -132.5 400t-363.5 148q-230 0 -361.5 -148t-131.5 -400z M561 1571v90h440v-90h-440z" />
<glyph unicode="&#x14d;" horiz-adv-x="1193" d="M86 512q0 255 131 398t379 143q249 0 379.5 -143t130.5 -398q0 -253 -132.5 -397t-377.5 -144q-248 0 -379 143t-131 398zM256 512q0 -198 84 -307t256 -109q174 0 258 109t84 307q0 197 -84.5 306.5t-257.5 109.5q-172 0 -256 -109.5t-84 -306.5zM377 1294v90h440v-90 h-440z" />
<glyph unicode="&#x150;" horiz-adv-x="1566" d="M113 664q0 319 177.5 506.5t491.5 187.5t493 -187.5t179 -506.5q0 -320 -178.5 -506.5t-493.5 -186.5q-314 0 -491.5 186.5t-177.5 506.5zM289 664q0 -255 130.5 -401t362.5 -146t364 146.5t132 400.5q0 252 -132.5 400t-363.5 148q-230 0 -361.5 -148t-131.5 -400z M563 1509l131 299l101 -39l-111 -272zM872 1509l129 299l103 -39l-111 -272z" />
<glyph unicode="&#x151;" horiz-adv-x="1193" d="M86 512q0 255 131 398t379 143q249 0 379.5 -143t130.5 -398q0 -253 -132.5 -397t-377.5 -144q-248 0 -379 143t-131 398zM256 512q0 -198 84 -307t256 -109q174 0 258 109t84 307q0 197 -84.5 306.5t-257.5 109.5q-172 0 -256 -109.5t-84 -306.5zM377 1233l131 299 l100 -39l-110 -272zM686 1233l129 299l103 -39l-111 -272z" />
<glyph unicode="&#x152;" horiz-adv-x="2265" d="M113 664q0 319 177.5 506.5t491.5 187.5t496 -191v164h838v-137h-666v-438v-17h610v-133h-608q-2 -12 -2 -37v-432h721v-137h-893v160q-183 -189 -496 -189q-314 0 -491.5 186.5t-177.5 506.5zM289 664q0 -255 130.5 -401t362.5 -146q227 0 357.5 138t138.5 382v51 q-8 241 -140 382.5t-356 141.5q-230 0 -361.5 -148t-131.5 -400z" />
<glyph unicode="&#x153;" horiz-adv-x="1933" d="M86 512q0 255 131 398t379 143q302 0 430 -211q64 102 167.5 156.5t238.5 54.5q204 0 316 -127t112 -351q0 -33 -4 -60t-8 -37l-5 -11h-735v-4q0 -174 91.5 -269.5t254.5 -95.5q60 0 113 14t86.5 33.5t58.5 39.5t36 34l11 14l99 -63q-4 -8 -13 -21.5t-43.5 -48 t-77.5 -60.5t-117.5 -47.5t-160.5 -21.5q-300 0 -428 201q-131 -201 -422 -201q-248 0 -379 143t-131 398zM256 512q0 -198 84 -307t256 -109q169 0 253 103.5t89 292.5v24q-2 196 -86 304t-256 108t-256 -109.5t-84 -306.5zM1110 590h598q2 6 2 24q0 145 -71.5 229.5 t-206.5 84.5q-148 0 -230.5 -92.5t-91.5 -245.5z" />
<glyph unicode="&#x154;" horiz-adv-x="1271" d="M227 0v1331h365q237 0 368.5 -109t131.5 -313q0 -163 -73.5 -268t-197.5 -152l373 -489h-201l-342 455h-264v-455h-160zM387 590h197q162 0 246.5 72.5t84.5 240.5q0 147 -90.5 222t-261.5 75h-176v-610zM506 1456l199 293l157 -16l-235 -285z" />
<glyph unicode="&#x155;" horiz-adv-x="778" d="M174 0v1024h131l21 -158q11 25 27.5 49.5t48.5 59.5t82.5 56.5t111.5 21.5q55 0 95.5 -11.5t53.5 -22.5l13 -11l-33 -134q-45 33 -143 33q-47 0 -89 -18.5t-69 -44.5t-47 -52t-29 -44l-8 -19v-729h-166zM322 1180l198 293l158 -17l-236 -285z" />
<glyph unicode="&#x156;" horiz-adv-x="1271" d="M227 0v1331h365q237 0 368.5 -109t131.5 -313q0 -163 -73.5 -268t-197.5 -152l373 -489h-201l-342 455h-264v-455h-160zM387 590h197q162 0 246.5 72.5t84.5 240.5q0 147 -90.5 222t-261.5 75h-176v-610zM494 -543q67 55 101.5 128.5t35.5 183.5h-51v133h149 q8 -60 8 -127q0 -271 -178 -369z" />
<glyph unicode="&#x157;" horiz-adv-x="778" d="M100 -543q68 55 102.5 128.5t35.5 183.5h-52v133h150q8 -60 8 -127q0 -271 -178 -369zM174 0v1024h131l21 -158q11 25 27.5 49.5t48.5 59.5t82.5 56.5t111.5 21.5q55 0 95.5 -11.5t53.5 -22.5l13 -11l-33 -134q-45 33 -143 33q-47 0 -89 -18.5t-69 -44.5t-47 -52t-29 -44 l-8 -19v-729h-166z" />
<glyph unicode="&#x158;" horiz-adv-x="1271" d="M227 0v1331h365q237 0 368.5 -109t131.5 -313q0 -163 -73.5 -268t-197.5 -152l373 -489h-201l-342 455h-264v-455h-160zM274 1653l56 100l264 -197l268 197l56 -100l-277 -203h-92zM387 590h197q162 0 246.5 72.5t84.5 240.5q0 147 -90.5 222t-261.5 75h-176v-610z" />
<glyph unicode="&#x159;" horiz-adv-x="778" d="M90 1376l55 101l265 -197l268 197l55 -101l-276 -202h-92zM174 0v1024h131l21 -158q11 25 27.5 49.5t48.5 59.5t82.5 56.5t111.5 21.5q55 0 95.5 -11.5t53.5 -22.5l13 -11l-33 -134q-45 33 -143 33q-47 0 -89 -18.5t-69 -44.5t-47 -52t-29 -44l-8 -19v-729h-166z" />
<glyph unicode="&#x15a;" horiz-adv-x="1200" d="M111 178l88 119q6 -7 16.5 -19.5t49 -44.5t83 -56t116.5 -44t150 -20q148 0 227 69t79 178q0 50 -25.5 88.5t-69 63t-100 44.5t-119 38t-125 38t-119 49.5t-100 68t-69 98t-25.5 135.5q0 169 123.5 272t339.5 103q85 0 158 -16t116.5 -39t74.5 -46t44 -39l12 -16 l-55 -115q-5 6 -15 15.5t-43.5 33.5t-70.5 42.5t-95.5 33.5t-119.5 15q-144 0 -222.5 -62.5t-78.5 -171.5q0 -53 26 -94t69.5 -67.5t100 -48t119 -40t125 -38t119 -47.5t100 -64t69.5 -92t26 -127q0 -184 -128 -294t-358 -110q-74 0 -141 11.5t-115.5 29.5t-89.5 40 t-67.5 44.5t-45 40.5t-26.5 29zM549 1456l199 293l157 -16l-235 -285z" />
<glyph unicode="&#x15b;" horiz-adv-x="1003" d="M70 211l100 76q4 -8 11.5 -21t36 -45.5t63.5 -58t95 -46t128 -20.5q127 0 190.5 52t63.5 126q0 51 -34 86.5t-88.5 56t-120 38t-131.5 39t-120.5 51.5t-88.5 84.5t-34 128.5q0 133 104.5 214t286.5 81q68 0 128 -11.5t97 -27.5t64.5 -32.5t38.5 -27.5l12 -12l-38 -108 q-5 4 -15 10.5t-42 23.5t-65.5 30t-82.5 23.5t-97 10.5q-107 0 -167 -43.5t-60 -110.5q0 -40 21 -70.5t57 -51t83 -37t98.5 -31t102.5 -30t98 -38.5t83 -51.5t57 -73t21 -100.5q0 -65 -23 -121t-71 -102.5t-132 -73.5t-196 -27q-74 0 -138 13t-107 34.5t-77.5 47t-55 51 t-33.5 47t-18 34.5zM446 1180l199 293l158 -17l-236 -285z" />
<glyph unicode="&#x15e;" horiz-adv-x="1200" d="M111 178l88 119q6 -7 16.5 -19.5t49 -44.5t83 -56t116.5 -44t150 -20q148 0 227 69t79 178q0 50 -25.5 88.5t-69 63t-100 44.5t-119 38t-125 38t-119 49.5t-100 68t-69 98t-25.5 135.5q0 169 123.5 272t339.5 103q85 0 158 -16t116.5 -39t74.5 -46t44 -39l12 -16 l-55 -115q-5 6 -15 15.5t-43.5 33.5t-70.5 42.5t-95.5 33.5t-119.5 15q-144 0 -222.5 -62.5t-78.5 -171.5q0 -53 26 -94t69.5 -67.5t100 -48t119 -40t125 -38t119 -47.5t100 -64t69.5 -92t26 -127q0 -182 -124.5 -291.5t-349.5 -112.5l-16 -116q0 -3 23 -7t56 -13t66.5 -24 t56.5 -47.5t23 -76.5q0 -95 -59.5 -148t-179.5 -53q-48 0 -89 9.5t-65.5 22.5t-42 26t-24.5 22l-7 10l43 47q6 -7 18.5 -17.5t54 -28t87.5 -17.5q160 0 160 125q0 41 -33.5 67.5t-73 34.5t-73 15t-33.5 14l22 159q-86 7 -161 30.5t-120 52t-78 56t-47 46.5z" />
<glyph unicode="&#x15f;" horiz-adv-x="1003" d="M70 211l100 76q4 -8 11.5 -21t36 -45.5t63.5 -58t95 -46t128 -20.5q127 0 190.5 52t63.5 126q0 51 -34 86.5t-88.5 56t-120 38t-131.5 39t-120.5 51.5t-88.5 84.5t-34 128.5q0 133 104.5 214t286.5 81q68 0 128 -11.5t97 -27.5t64.5 -32.5t38.5 -27.5l12 -12l-38 -108 q-5 4 -15 10.5t-42 23.5t-65.5 30t-82.5 23.5t-97 10.5q-107 0 -167 -43.5t-60 -110.5q0 -40 21 -70.5t57 -51t83 -37t98.5 -31t102.5 -30t98 -38.5t83 -51.5t57 -73t21 -100.5q0 -65 -23 -121t-71 -102t-131 -73t-193 -28l-16 -116q0 -3 23 -7t56 -13t66.5 -24t56.5 -47.5 t23 -76.5q0 -95 -60 -148t-180 -53q-48 0 -88.5 9.5t-65 22.5t-42 26t-24.5 22l-7 10l43 47q6 -7 18.5 -17.5t54 -28t87.5 -17.5q159 0 159 125q0 41 -33.5 67.5t-73 34.5t-73 15t-33.5 14l23 159q-60 6 -111.5 22.5t-86.5 38t-63.5 45.5t-44.5 47t-27 41.5t-15 30.5z" />
<glyph unicode="&#x160;" horiz-adv-x="1200" d="M111 178l88 119q6 -7 16.5 -19.5t49 -44.5t83 -56t116.5 -44t150 -20q148 0 227 69t79 178q0 50 -25.5 88.5t-69 63t-100 44.5t-119 38t-125 38t-119 49.5t-100 68t-69 98t-25.5 135.5q0 169 123.5 272t339.5 103q85 0 158 -16t116.5 -39t74.5 -46t44 -39l12 -16 l-55 -115q-5 6 -15 15.5t-43.5 33.5t-70.5 42.5t-95.5 33.5t-119.5 15q-144 0 -222.5 -62.5t-78.5 -171.5q0 -53 26 -94t69.5 -67.5t100 -48t119 -40t125 -38t119 -47.5t100 -64t69.5 -92t26 -127q0 -184 -128 -294t-358 -110q-74 0 -141 11.5t-115.5 29.5t-89.5 40 t-67.5 44.5t-45 40.5t-26.5 29zM319 1653l56 100l264 -197l268 197l56 -100l-277 -203h-92z" />
<glyph unicode="&#x161;" horiz-adv-x="1003" d="M70 211l100 76q4 -8 11.5 -21t36 -45.5t63.5 -58t95 -46t128 -20.5q127 0 190.5 52t63.5 126q0 51 -34 86.5t-88.5 56t-120 38t-131.5 39t-120.5 51.5t-88.5 84.5t-34 128.5q0 133 104.5 214t286.5 81q68 0 128 -11.5t97 -27.5t64.5 -32.5t38.5 -27.5l12 -12l-38 -108 q-5 4 -15 10.5t-42 23.5t-65.5 30t-82.5 23.5t-97 10.5q-107 0 -167 -43.5t-60 -110.5q0 -40 21 -70.5t57 -51t83 -37t98.5 -31t102.5 -30t98 -38.5t83 -51.5t57 -73t21 -100.5q0 -65 -23 -121t-71 -102.5t-132 -73.5t-196 -27q-74 0 -138 13t-107 34.5t-77.5 47t-55 51 t-33.5 47t-18 34.5zM197 1376l55 101l264 -197l268 197l56 -101l-277 -202h-92z" />
<glyph unicode="&#x162;" horiz-adv-x="997" d="M12 1194v137h973v-137h-401v-1194h-172v1194h-400zM350 -543q67 55 101.5 128.5t35.5 183.5h-51v133h150q8 -60 8 -127q0 -271 -178 -369z" />
<glyph unicode="&#x163;" horiz-adv-x="776" d="M94 891v129l127 2v317l133 17l31 2v-334h313v-133h-313v-580q0 -102 32.5 -152t104.5 -50q44 0 86.5 5t63.5 10l20 5v-115q-7 -5 -22.5 -12t-72.5 -19t-126 -12q-128 0 -189 73t-61 230v617h-127zM248 -543q67 55 101.5 128.5t35.5 183.5h-51v133h149q9 -67 9 -127 q0 -271 -179 -369z" />
<glyph unicode="&#x164;" horiz-adv-x="997" d="M12 1194v137h973v-137h-401v-1194h-172v1194h-400zM178 1653l55 100l265 -197l268 197l55 -100l-276 -203h-92z" />
<glyph unicode="&#x165;" horiz-adv-x="776" d="M94 891v129l127 2v317l133 17l31 2v-334h313v-133h-313v-580q0 -102 32.5 -152t104.5 -50q44 0 86.5 5t63.5 10l20 5v-115q-7 -5 -22.5 -12t-72.5 -19t-126 -12q-128 0 -189 73t-61 230v617h-127zM588 1130q30 81 53 209t23 220h12l115 2q0 -98 -31.5 -231.5 t-69.5 -213.5z" />
<glyph unicode="&#x16a;" horiz-adv-x="1513" d="M207 434v897h172v-862q0 -157 95.5 -249.5t281.5 -92.5q187 0 283 92.5t96 249.5v862h172v-897q0 -99 -33 -181.5t-98.5 -146.5t-172.5 -99.5t-247 -35.5q-139 0 -246 35.5t-172 99.5t-98 146.5t-33 181.5zM518 1571v90h440v-90h-440z" />
<glyph unicode="&#x16b;" d="M158 309v715h166v-684q0 -106 72.5 -164.5t197.5 -58.5q58 0 108 12.5t80.5 30.5t52 35.5t30.5 30.5l9 12v786h164v-1024h-147l-14 104q-10 -15 -29.5 -33t-58 -43t-104.5 -41t-146 -16q-175 0 -278 87.5t-103 250.5zM379 1294v90h440v-90h-440z" />
<glyph unicode="&#x16e;" horiz-adv-x="1513" d="M207 434v897h172v-862q0 -157 95.5 -249.5t281.5 -92.5q187 0 283 92.5t96 249.5v862h172v-897q0 -99 -33 -181.5t-98.5 -146.5t-172.5 -99.5t-247 -35.5q-139 0 -246 35.5t-172 99.5t-98 146.5t-33 181.5zM528 1690q0 93 60.5 153t150.5 60q87 0 147 -60t60 -153 q0 -94 -58.5 -152.5t-148.5 -58.5q-94 0 -152.5 58t-58.5 153zM608 1690q0 -61 37.5 -99.5t93.5 -38.5q55 0 92 38.5t37 99.5t-37.5 99t-91.5 38q-57 0 -94 -37.5t-37 -99.5z" />
<glyph unicode="&#x16f;" d="M158 309v715h166v-684q0 -106 72.5 -164.5t197.5 -58.5q58 0 108 12.5t80.5 30.5t52 35.5t30.5 30.5l9 12v786h164v-1024h-147l-14 104q-10 -15 -29.5 -33t-58 -43t-104.5 -41t-146 -16q-175 0 -278 87.5t-103 250.5zM389 1413q0 93 60.5 153t150.5 60q87 0 147 -60 t60 -153q0 -94 -58.5 -152.5t-148.5 -58.5q-94 0 -152.5 58t-58.5 153zM469 1413q0 -61 37.5 -99t93.5 -38q55 0 92 38t37 99t-37.5 99t-91.5 38q-57 0 -94 -37.5t-37 -99.5z" />
<glyph unicode="&#x170;" horiz-adv-x="1513" d="M207 434v897h172v-862q0 -157 95.5 -249.5t281.5 -92.5q187 0 283 92.5t96 249.5v862h172v-897q0 -99 -33 -181.5t-98.5 -146.5t-172.5 -99.5t-247 -35.5q-139 0 -246 35.5t-172 99.5t-98 146.5t-33 181.5zM520 1509l131 299l101 -39l-111 -272zM829 1509l129 299 l103 -39l-111 -272z" />
<glyph unicode="&#x171;" d="M158 309v715h166v-684q0 -106 72.5 -164.5t197.5 -58.5q58 0 108 12.5t80.5 30.5t52 35.5t30.5 30.5l9 12v786h164v-1024h-147l-14 104q-10 -15 -29.5 -33t-58 -43t-104.5 -41t-146 -16q-175 0 -278 87.5t-103 250.5zM381 1233l131 299l100 -39l-110 -272zM690 1233 l129 299l103 -39l-111 -272z" />
<glyph unicode="&#x172;" horiz-adv-x="1513" d="M207 434v897h172v-862q0 -157 95.5 -249.5t281.5 -92.5q187 0 283 92.5t96 249.5v862h172v-897q0 -165 -90 -283t-269 -159q-20 -10 -38.5 -21t-49.5 -36t-53 -51.5t-38.5 -67t-16.5 -84.5q0 -156 260 -156v-88q-379 0 -379 240q0 136 149 243h-26q-139 0 -246 35.5 t-172 99.5t-98 146.5t-33 181.5z" />
<glyph unicode="&#x173;" d="M158 309v715h166v-684q0 -106 72.5 -164.5t197.5 -58.5q58 0 108 12.5t80.5 30.5t52 35.5t30.5 30.5l9 12v786h164v-1024h-2q-9 -4 -23 -11t-51 -32t-65 -53.5t-51 -75t-23 -96.5q0 -156 260 -156v-88q-378 0 -378 240q0 155 192 272h-6l-14 104q-10 -15 -29.5 -33 t-58 -43t-104.5 -41t-146 -16q-175 0 -278 87.5t-103 250.5z" />
<glyph unicode="&#x178;" horiz-adv-x="1245" d="M2 1331h193l426 -639l430 639h192l-534 -796v-535h-172v535zM401 1526v141h146v-141h-146zM766 1526v141h145v-141h-145z" />
<glyph unicode="&#x179;" horiz-adv-x="1251" d="M94 0v121l844 1073h-844v137h1063v-121l-844 -1073h844v-137h-1063zM571 1456l199 293l158 -16l-236 -285z" />
<glyph unicode="&#x17a;" horiz-adv-x="991" d="M82 0v115l604 780h-555v129h764v-115l-600 -780h608v-129h-821zM444 1180l199 293l158 -17l-236 -285z" />
<glyph unicode="&#x17b;" horiz-adv-x="1251" d="M94 0v121l844 1073h-844v137h1063v-121l-844 -1073h844v-137h-1063zM588 1526v141h147v-141h-147z" />
<glyph unicode="&#x17c;" horiz-adv-x="991" d="M82 0v115l604 780h-555v129h764v-115l-600 -780h608v-129h-821zM461 1249v142h147v-142h-147z" />
<glyph unicode="&#x17d;" horiz-adv-x="1251" d="M94 0v121l844 1073h-844v137h1063v-121l-844 -1073h844v-137h-1063zM342 1653l55 100l265 -197l268 197l55 -100l-276 -203h-93z" />
<glyph unicode="&#x17e;" horiz-adv-x="991" d="M82 0v115l604 780h-555v129h764v-115l-600 -780h608v-129h-821zM213 1376l55 101l264 -197l269 197l55 -101l-276 -202h-93z" />
<glyph unicode="&#x17f;" horiz-adv-x="559" d="M176 0v1169q0 198 70 291.5t237 93.5q50 0 91.5 -7t65 -17t39.5 -20.5t22 -17.5l6 -7l-35 -99q-5 4 -15.5 10.5t-52 17.5t-94.5 11q-90 0 -130 -62t-40 -210v-1153h-164z" />
<glyph unicode="&#x192;" horiz-adv-x="743" d="M-78 -504l45 135q31 -18 82 -18q73 0 124.5 73.5t51.5 221.5v983h-127v129l127 4v145q0 198 70 291.5t237 93.5q50 0 91.5 -7t65 -17t39.5 -20.5t22 -17.5l6 -7l-35 -99q-5 4 -15.5 10.5t-52 17.5t-94.5 11q-90 0 -130 -62t-40 -210v-129h352v-133h-352v-983 q0 -119 -28 -208.5t-75.5 -140.5t-102.5 -75.5t-117 -24.5q-46 0 -82 9.5t-49 18.5z" />
<glyph unicode="&#x237;" horiz-adv-x="534" d="M-106 -504l43 135q32 -18 81 -18q74 0 125.5 73.5t51.5 221.5v1116h163v-1116q0 -119 -27.5 -208.5t-75 -140.5t-102 -75.5t-116.5 -24.5q-46 0 -82 9.5t-49 18.5z" />
<glyph unicode="&#x2c6;" horiz-adv-x="798" d="M76 1319l276 203h92l275 -203l-55 -102l-267 194l-266 -194z" />
<glyph unicode="&#x2c7;" horiz-adv-x="798" d="M78 1376l55 101l264 -197l269 197l55 -101l-277 -202h-92z" />
<glyph unicode="&#x2d8;" horiz-adv-x="837" d="M63 1389l132 20l8 2q2 -5 5.5 -13t20 -29t38.5 -37t63 -29t90 -13t89 12.5t62.5 30t37.5 35.5t21 30l5 13l10 -2l131 -20q-1 -4 -3.5 -11.5t-13 -29.5t-25.5 -41.5t-43.5 -44t-63.5 -41.5t-89.5 -29t-117.5 -12t-117 11.5t-90 30t-64 40.5t-43.5 44.5t-26 41t-13.5 30.5z " />
<glyph unicode="&#x2d9;" horiz-adv-x="864" d="M430 1249v142h148v-142h-148z" />
<glyph unicode="&#x2da;" horiz-adv-x="976" d="M154 1413q0 93 60.5 153t150.5 60q87 0 146.5 -60t59.5 -153q0 -94 -58 -152.5t-148 -58.5q-94 0 -152.5 58t-58.5 153zM233 1413q0 -61 38 -99t94 -38q55 0 92 38t37 99t-37.5 99t-91.5 38q-57 0 -94.5 -37.5t-37.5 -99.5z" />
<glyph unicode="&#x2db;" horiz-adv-x="552" d="M78 -272q0 59 30 114t72 91t84.5 63.5t72.5 39.5l30 13l43 -49q-9 -4 -23 -11t-51 -32t-65 -53.5t-51 -75t-23 -96.5q0 -156 260 -156v-88q-379 0 -379 240z" />
<glyph unicode="&#x2dc;" horiz-adv-x="942" d="M92 1329q3 5 8 12t23.5 26.5t40.5 34t59 26.5t78 12q51 0 105.5 -16.5t93 -36t87 -36t89.5 -16.5q40 0 74 12.5t48 24.5l15 12l35 -81q-2 -4 -5.5 -10t-18.5 -22t-34 -28.5t-52 -22.5t-72 -10q-46 0 -99 16t-92 34.5t-89.5 34.5t-92.5 16q-44 0 -85 -18.5t-60 -36.5 l-19 -19z" />
<glyph unicode="&#x2dd;" horiz-adv-x="886" d="M145 1233l131 299l101 -39l-111 -272zM455 1233l129 299l102 -39l-111 -272z" />
<glyph unicode="&#x384;" horiz-adv-x="487" d="M176 1174l133 385l109 -33l-158 -377z" />
<glyph unicode="&#x385;" horiz-adv-x="487" d="M-70 1249v142h146v-142h-146zM141 1174l133 385l109 -33l-158 -377zM393 1249v142h146v-142h-146z" />
<glyph unicode="&#x386;" horiz-adv-x="1368" d="M51 0l518 1331h230l518 -1331h-176l-137 344h-644l-135 -344h-174zM86 1174l133 385l109 -33l-158 -377zM403 459h558l-279 733z" />
<glyph unicode="&#x388;" horiz-adv-x="1355" d="M33 1174l133 385l108 -33l-157 -377zM371 0v1331h837v-137h-665v-455h610v-133h-610v-469h719v-137h-891z" />
<glyph unicode="&#x389;" horiz-adv-x="1671" d="M33 1174l133 385l108 -33l-157 -377zM371 0v1331h172v-604h729v604h172v-1331h-172v594h-729v-594h-172z" />
<glyph unicode="&#x38a;" horiz-adv-x="770" d="M33 1174l133 385l108 -33l-157 -377zM371 0v1331h172v-1331h-172z" />
<glyph unicode="&#x38c;" horiz-adv-x="1628" d="M33 1174l133 385l108 -33l-157 -377zM174 664q0 319 178 506.5t492 187.5t493 -187.5t179 -506.5q0 -320 -178.5 -506.5t-493.5 -186.5q-314 0 -492 186.5t-178 506.5zM350 664q0 -255 131 -401t363 -146t363.5 146t131.5 401q0 252 -132.5 400t-362.5 148t-362 -148 t-132 -400z" />
<glyph unicode="&#x38e;" horiz-adv-x="1478" d="M-29 1174l133 385l109 -33l-158 -377zM236 1331h192l426 -639l430 639h193l-535 -796v-535h-172v535z" />
<glyph unicode="&#x38f;" horiz-adv-x="1624" d="M33 1174l133 385l108 -33l-157 -377zM170 694q0 139 43.5 259t126 210.5t212 142.5t290.5 52t290 -52t211 -142.5t125 -210.5t43 -259q0 -362 -290 -571h262v-123h-510v131q9 2 26 8t53 24.5t71 43.5t74.5 69t69 97t49 131t19.5 168q0 154 -53 274t-166 193t-274 73 q-121 0 -217 -42t-156 -115.5t-91.5 -171t-31.5 -211.5q0 -92 20 -171.5t52.5 -133t71 -97t77.5 -68.5t71.5 -42t52.5 -23l20 -6v-131h-510v123h260q-291 209 -291 571z" />
<glyph unicode="&#x390;" horiz-adv-x="514" d="M-20 1249v142h145v-142h-145zM174 0v1024h166v-1024h-166zM178 1174l133 385l109 -33l-158 -377zM442 1249v142h146v-142h-146z" />
<glyph unicode="&#x391;" horiz-adv-x="1368" d="M51 0l518 1331h230l518 -1331h-176l-137 344h-644l-135 -344h-174zM403 459h558l-279 733z" />
<glyph unicode="&#x392;" horiz-adv-x="1273" d="M227 0v1331h404q227 0 340.5 -92t113.5 -246q0 -180 -167 -284q116 -38 179.5 -123t63.5 -203q0 -186 -125.5 -284.5t-400.5 -98.5h-408zM381 131h246q194 0 282 65t88 197q0 117 -75.5 176.5t-212.5 59.5h-328v-498zM381 745h319q35 0 71 11t73 35t60.5 72t23.5 112 q0 114 -79 170.5t-226 56.5h-242v-457z" />
<glyph unicode="&#x393;" horiz-adv-x="974" d="M227 0v1331h744v-137h-572v-1194h-172z" />
<glyph unicode="&#x394;" horiz-adv-x="1368" d="M70 0v135l497 1196h232l499 -1196v-135h-1228zM242 137h878l-438 1061z" />
<glyph unicode="&#x395;" d="M227 0v1331h838v-137h-666v-455h611v-133h-611v-469h719v-137h-891z" />
<glyph unicode="&#x396;" horiz-adv-x="1251" d="M94 0v121l844 1073h-844v137h1063v-121l-844 -1073h844v-137h-1063z" />
<glyph unicode="&#x397;" horiz-adv-x="1527" d="M227 0v1331h172v-604h729v604h172v-1331h-172v594h-729v-594h-172z" />
<glyph unicode="&#x398;" horiz-adv-x="1566" d="M113 664q0 319 177.5 506.5t491.5 187.5t493 -187.5t179 -506.5q0 -320 -178.5 -506.5t-493.5 -186.5q-314 0 -491.5 186.5t-177.5 506.5zM289 664q0 -255 130.5 -401t362.5 -146t364 146.5t132 400.5q0 252 -132.5 400t-363.5 148q-230 0 -361.5 -148t-131.5 -400z M496 598v125h575v-125h-575z" />
<glyph unicode="&#x399;" horiz-adv-x="626" d="M227 0v1331h172v-1331h-172z" />
<glyph unicode="&#x39a;" horiz-adv-x="1376" d="M227 0v1331h172v-700l181 125l518 575h192l-575 -641l622 -690h-200l-543 592l-195 -135v-457h-172z" />
<glyph unicode="&#x39b;" horiz-adv-x="1327" d="M51 0l498 1331h229l498 -1331h-176l-438 1192l-437 -1192h-174z" />
<glyph unicode="&#x39c;" horiz-adv-x="2013" d="M227 0v1331h224l555 -1155h2l555 1155h225v-1331h-166v1092h-2l-528 -1092h-168l-531 1092v-1092h-166z" />
<glyph unicode="&#x39d;" horiz-adv-x="1574" d="M227 0v1331h181l778 -1100l-4 48v1052h168v-1331h-185l-778 1098h-4l10 -64v-1034h-166z" />
<glyph unicode="&#x39e;" horiz-adv-x="1251" d="M94 0v137h1063v-137h-1063zM94 1194v137h1063v-137h-1063zM303 592v137h645v-137h-645z" />
<glyph unicode="&#x39f;" horiz-adv-x="1566" d="M113 664q0 319 177.5 506.5t491.5 187.5t493 -187.5t179 -506.5q0 -320 -178.5 -506.5t-493.5 -186.5q-314 0 -491.5 186.5t-177.5 506.5zM289 664q0 -255 130.5 -401t362.5 -146t364 146.5t132 400.5q0 252 -132.5 400t-363.5 148q-230 0 -361.5 -148t-131.5 -400z" />
<glyph unicode="&#x3a0;" horiz-adv-x="1490" d="M227 0v1331h1037v-1331h-172v1194h-693v-1194h-172z" />
<glyph unicode="&#x3a1;" horiz-adv-x="1169" d="M227 0v1331h365q238 0 368 -106.5t130 -315.5q0 -119 -43 -208.5t-116 -139.5t-158 -74t-181 -24h-205v-463h-160zM387 590h172q74 0 134.5 15.5t111.5 50t79.5 97.5t28.5 150q0 149 -94 223t-258 74h-174v-610z" />
<glyph unicode="&#x3a3;" horiz-adv-x="1165" d="M94 0v129l408 541l-355 532v129h924v-137h-719l346 -526l-391 -531h805v-137h-1018z" />
<glyph unicode="&#x3a4;" horiz-adv-x="997" d="M12 1194v137h973v-137h-401v-1194h-172v1194h-400z" />
<glyph unicode="&#x3a5;" horiz-adv-x="1245" d="M2 1331h193l426 -639l430 639h192l-534 -796v-535h-172v535z" />
<glyph unicode="&#x3a6;" horiz-adv-x="1714" d="M113 664q0 584 665 591v76h156v-76q668 -7 668 -587q0 -303 -175.5 -447.5t-492.5 -146.5v-74h-156v74q-319 2 -492 144.5t-173 445.5zM281 664q0 -237 124 -343t373 -108v909q-248 -3 -372.5 -112t-124.5 -346zM934 211q248 2 374 111t126 346t-123 343t-377 109v-909z " />
<glyph unicode="&#x3a7;" horiz-adv-x="1366" d="M43 0l535 666l-523 665h197l432 -545l432 545h195l-523 -665l537 -666h-205l-436 545l-436 -545h-205z" />
<glyph unicode="&#x3a8;" horiz-adv-x="1677" d="M133 889v442h172v-416q0 -186 119.5 -288t343.5 -103v807h154v-807q221 1 335.5 102t114.5 289v416h172v-442q0 -238 -154.5 -374.5t-467.5 -137.5v-377h-154v377q-160 1 -282 38t-199 105t-115.5 160.5t-38.5 208.5z" />
<glyph unicode="&#x3a9;" horiz-adv-x="1566" d="M113 694q0 139 43.5 259t125.5 210.5t211.5 142.5t290.5 52t290 -52t211.5 -142.5t125.5 -210.5t43 -259q0 -362 -291 -571h262v-123h-510v131q9 2 26 8t53.5 24.5t71.5 43.5t74.5 69t69 97t49 131t19.5 168q0 114 -31 211.5t-91 171t-155.5 115.5t-216.5 42 q-161 0 -274.5 -73t-167 -193t-53.5 -274q0 -92 20 -171.5t52 -133t71 -97t78 -68.5t71 -42t52 -23l20 -6v-131h-510v123h260q-290 209 -290 571z" />
<glyph unicode="&#x3aa;" horiz-adv-x="626" d="M59 1556v142h146v-142h-146zM227 0v1331h172v-1331h-172zM424 1556v142h145v-142h-145z" />
<glyph unicode="&#x3ab;" horiz-adv-x="1245" d="M2 1331h193l426 -639l430 639h192l-534 -796v-535h-172v535zM401 1526v141h146v-141h-146zM766 1526v141h145v-141h-145z" />
<glyph unicode="&#x3ac;" horiz-adv-x="1226" d="M86 483q0 260 128.5 415t369.5 155q194 0 307 -135l14 106h148v-1024h-148l-14 141q-12 -23 -31.5 -46t-58 -54t-101.5 -50.5t-141 -19.5q-214 0 -343.5 137t-129.5 375zM256 487q0 -391 350 -391q58 0 108 19t79.5 43.5t53 56.5t31 47t11.5 27v483q-3 6 -8.5 16.5 t-27.5 37.5t-49.5 47.5t-74.5 37.5t-102 17q-190 0 -280.5 -114.5t-90.5 -326.5zM541 1174l133 385l108 -33l-157 -377z" />
<glyph unicode="&#x3ad;" horiz-adv-x="993" d="M90 291q0 94 51.5 157.5t132.5 96.5q-137 80 -137 227q0 129 101 205t294 76q69 0 129 -11t96 -26t63 -30.5t38 -26.5l10 -11l-41 -104q-4 4 -11.5 9.5t-33.5 21t-56.5 27t-79 21t-101.5 9.5q-123 0 -187.5 -46.5t-64.5 -123.5q0 -45 19.5 -80t47.5 -53t56 -29t48 -14 l19 -2h199v-109h-195q-107 0 -171 -47.5t-64 -126.5q0 -90 73 -148.5t216 -58.5q70 0 128 14t91 34t55.5 40.5t30.5 34.5l8 14l92 -79q-1 -4 -4 -10.5t-16 -25t-30.5 -36t-50.5 -38t-73.5 -35.5t-102 -25.5t-132.5 -10.5q-218 0 -332.5 88t-114.5 232zM418 1174l133 385 l108 -33l-157 -377z" />
<glyph unicode="&#x3ae;" d="M174 0v1024h148l14 -104q105 133 338 133q175 0 278 -87.5t103 -250.5v-1227h-164v1196q0 106 -73.5 164.5t-199.5 58.5q-57 0 -107 -12.5t-80 -30.5t-52 -35.5t-31 -30.5l-8 -12v-786h-166zM532 1174l134 385l108 -33l-158 -377z" />
<glyph unicode="&#x3af;" horiz-adv-x="514" d="M174 0v1024h166v-1024h-166zM205 1174l133 385l108 -33l-157 -377z" />
<glyph unicode="&#x3b0;" horiz-adv-x="1198" d="M158 326v698h166v-684q0 -109 73.5 -170t198.5 -61q127 0 202.5 61t75.5 170v684h164v-698q0 -169 -115 -262t-327 -93q-210 0 -324 93t-114 262zM330 1249v142h143v-142h-143zM528 1174l134 385l108 -33l-158 -377zM793 1249v142h145v-142h-145z" />
<glyph unicode="&#x3b1;" horiz-adv-x="1226" d="M86 483q0 260 128.5 415t369.5 155q194 0 307 -135l14 106h148v-1024h-148l-14 141q-12 -23 -31.5 -46t-58 -54t-101.5 -50.5t-141 -19.5q-214 0 -343.5 137t-129.5 375zM256 487q0 -391 350 -391q58 0 108 19t79.5 43.5t53 56.5t31 47t11.5 27v483q-3 6 -8.5 16.5 t-27.5 37.5t-49.5 47.5t-74.5 37.5t-102 17q-190 0 -280.5 -114.5t-90.5 -326.5z" />
<glyph unicode="&#x3b2;" horiz-adv-x="1226" d="M174 -512v1632q0 434 432 434q189 0 298.5 -96.5t109.5 -257.5q0 -205 -207 -319q334 -77 334 -416q0 -217 -131.5 -355.5t-350.5 -138.5q-67 0 -124.5 13.5t-92 32.5t-59 37.5t-33.5 31.5l-10 14v-612h-166zM340 236q5 -10 13.5 -22t31.5 -34t50.5 -39t72 -30t94.5 -13 q173 0 272 104t99 271q0 168 -95.5 247t-310.5 79v123q6 1 16 2.5t40 10t57 20t59.5 33.5t56.5 49t40 68t16 89q0 109 -62.5 170t-183.5 61q-144 0 -205 -77.5t-61 -243.5v-868z" />
<glyph unicode="&#x3b3;" horiz-adv-x="1050" d="M35 1024h180l311 -860l310 860h182l-410 -1024v-512h-166v512z" />
<glyph unicode="&#x3b4;" horiz-adv-x="1193" d="M86 512q0 180 66.5 306.5t195.5 185.5q-129 90 -129 262q0 71 34.5 127.5t93 91t130 52t150.5 17.5q69 0 133 -10.5t105 -25t72.5 -29t45.5 -25.5l14 -10l-43 -115q-6 3 -16 8.5t-43.5 20t-68.5 25t-87.5 19.5t-103.5 9q-112 0 -189 -42.5t-77 -135.5q0 -95 51 -139.5 t141 -52.5q6 0 17.5 1t17.5 1q249 0 379.5 -143t130.5 -398q0 -253 -132.5 -397t-377.5 -144q-248 0 -379 143t-131 398zM256 512q0 -198 84 -307t256 -109q174 0 258 109t84 307q0 197 -84.5 306.5t-257.5 109.5q-172 0 -256 -109.5t-84 -306.5z" />
<glyph unicode="&#x3b5;" horiz-adv-x="993" d="M90 291q0 94 51.5 157.5t132.5 96.5q-137 80 -137 227q0 129 101 205t294 76q69 0 129 -11t96 -26t63 -30.5t38 -26.5l10 -11l-41 -104q-4 4 -11.5 9.5t-33.5 21t-56.5 27t-79 21t-101.5 9.5q-123 0 -187.5 -46.5t-64.5 -123.5q0 -45 19.5 -80t47.5 -53t56 -29t48 -14 l19 -2h199v-109h-195q-107 0 -171 -47.5t-64 -126.5q0 -90 73 -148.5t216 -58.5q70 0 128 14t91 34t55.5 40.5t30.5 34.5l8 14l92 -79q-1 -4 -4 -10.5t-16 -25t-30.5 -36t-50.5 -38t-73.5 -35.5t-102 -25.5t-132.5 -10.5q-218 0 -332.5 88t-114.5 232z" />
<glyph unicode="&#x3b6;" horiz-adv-x="944" d="M106 1407v129h820v-115q-95 -105 -169.5 -192.5t-168.5 -210t-156 -223.5t-105.5 -209.5t-43.5 -190.5q0 -64 28 -113t71.5 -78t104 -47.5t118.5 -25t122 -6.5q125 0 181.5 -40t56.5 -132q0 -76 -16.5 -152.5t-32.5 -115.5l-17 -39l-133 16q6 14 15 38t24.5 86.5 t15.5 111.5q0 61 -34.5 81.5t-135.5 20.5q-536 0 -536 389q0 102 57 237.5t152.5 276.5t193 263t205.5 241h-617z" />
<glyph unicode="&#x3b7;" d="M174 0v1024h148l14 -104q105 133 338 133q175 0 278 -87.5t103 -250.5v-1227h-164v1196q0 106 -73.5 164.5t-199.5 58.5q-57 0 -107 -12.5t-80 -30.5t-52 -35.5t-31 -30.5l-8 -12v-786h-166z" />
<glyph unicode="&#x3b8;" horiz-adv-x="1228" d="M104 762q0 792 510 792t510 -792q0 -791 -510 -791t-510 791zM272 698q8 -315 89 -459.5t253 -144.5q171 0 252.5 145t87.5 459h-682zM272 836h682q-8 309 -89 452.5t-251 143.5q-171 0 -252.5 -143.5t-89.5 -452.5z" />
<glyph unicode="&#x3b9;" horiz-adv-x="514" d="M174 0v1024h166v-1024h-166z" />
<glyph unicode="&#x3ba;" horiz-adv-x="1050" d="M174 0v1024h166v-451l131 72l344 379h191l-406 -449l434 -575h-198l-375 498l-121 -54v-444h-166z" />
<glyph unicode="&#x3bb;" horiz-adv-x="1105" d="M29 0l516 1020q-23 69 -37 110t-34.5 94.5t-38 83.5t-39 59.5t-45 42.5t-50.5 13q-22 0 -43 -4.5t-31 -8.5l-10 -5v117q4 4 12 9t40.5 14t74.5 9q46 0 87.5 -24.5t75.5 -65.5t68.5 -108t63 -137.5t63.5 -169.5l375 -1049h-178l-281 842h-2l-401 -842h-186z" />
<glyph unicode="&#x3bc;" horiz-adv-x="1228" d="M174 -512v1536h166v-684q0 -106 72.5 -164.5t197.5 -58.5q58 0 108 12.5t80.5 30.5t52.5 35.5t31 30.5l9 12v786h164v-1024h-148l-14 104q-10 -15 -29.5 -33t-58 -43t-104.5 -41t-146 -16q-123 0 -215 45v-528h-166z" />
<glyph unicode="&#x3bd;" horiz-adv-x="1050" d="M35 1024h180l311 -852l310 852h182l-402 -1024h-182z" />
<glyph unicode="&#x3be;" horiz-adv-x="987" d="M86 440q0 321 297 420q-207 108 -207 340q0 175 118.5 264.5t313.5 89.5q62 0 117.5 -10.5t90.5 -25t60.5 -29t36.5 -25.5l11 -10l-45 -102q-4 3 -11 8t-32 17.5t-52.5 22t-72 17.5t-90.5 8q-131 0 -207 -60t-76 -179q0 -58 20.5 -104.5t56 -75t75 -48.5t85 -29 t77.5 -12.5t61 -3.5h125v-122h-150q-235 -4 -334.5 -87.5t-99.5 -254.5q0 -324 496 -324q127 0 186 -40.5t59 -131.5q0 -76 -20 -152.5t-40 -115.5l-20 -39l-116 16q6 14 15 38t24.5 86.5t15.5 111.5q0 61 -36.5 81.5t-141.5 20.5q-80 0 -153.5 9.5t-156 38.5t-142 75.5 t-99 128t-39.5 188.5z" />
<glyph unicode="&#x3bf;" horiz-adv-x="1193" d="M86 512q0 255 131 398t379 143q249 0 379.5 -143t130.5 -398q0 -253 -132.5 -397t-377.5 -144q-248 0 -379 143t-131 398zM256 512q0 -198 84 -307t256 -109q174 0 258 109t84 307q0 197 -84.5 306.5t-257.5 109.5q-172 0 -256 -109.5t-84 -306.5z" />
<glyph unicode="&#x3c0;" horiz-adv-x="1208" d="M174 0v1024h860v-1024h-164v891h-530v-891h-166z" />
<glyph unicode="&#x3c1;" horiz-adv-x="1208" d="M158 -512v1112q0 94 29 175t85 143.5t146 98.5t203 36q246 0 374.5 -134t128.5 -378q0 -259 -126.5 -413.5t-360.5 -154.5q-64 0 -119.5 13t-90 31.5t-59.5 37.5t-36 32l-10 13v-612h-164zM322 236q6 -10 14 -22t31 -35t50 -39.5t71.5 -30t95.5 -13.5q188 0 279 116.5 t91 324.5q0 391 -338 391q-75 0 -133 -27t-92 -72.5t-51.5 -100.5t-17.5 -116v-376z" />
<glyph unicode="&#x3c2;" horiz-adv-x="1011" d="M86 502q0 264 129.5 407.5t384.5 143.5q71 0 133 -12.5t101 -31t67.5 -36.5t40.5 -31l12 -12l-51 -103q-4 4 -12.5 11t-36 24.5t-58 30.5t-78.5 24t-97 11q-187 0 -276 -104t-89 -320q0 -108 25 -182t78 -117t126.5 -61.5t178.5 -18.5q111 0 166 -41t55 -131 q0 -76 -20 -152.5t-40 -115.5l-20 -39l-117 16q6 14 15 38t24.5 86.5t15.5 111.5q0 60 -32 81t-119 21q-250 0 -378 121t-128 381z" />
<glyph unicode="&#x3c3;" horiz-adv-x="1222" d="M86 512q0 255 131 398t379 143h25q103 -1 318.5 -15t246.5 -14v-133q-23 0 -199 4q119 -140 119 -383q0 -253 -132.5 -397t-377.5 -144q-248 0 -379 143t-131 398zM256 512q0 -198 84 -307t256 -109q174 0 258 109t84 307q0 310 -201 391h-2l-2 2q-67 23 -137 23 q-172 0 -256 -109.5t-84 -306.5z" />
<glyph unicode="&#x3c4;" horiz-adv-x="825" d="M61 891v129l170 4h549v-133h-387v-580q0 -102 32.5 -152t104.5 -50q44 0 86.5 5t63.5 10l20 5v-115q-7 -5 -22.5 -12t-72.5 -19t-126 -12q-128 0 -189 73t-61 230v617h-168z" />
<glyph unicode="&#x3c5;" horiz-adv-x="1198" d="M158 326v698h166v-684q0 -109 73.5 -170t198.5 -61q127 0 202.5 61t75.5 170v684h164v-698q0 -169 -115 -262t-327 -93q-210 0 -324 93t-114 262z" />
<glyph unicode="&#x3c6;" horiz-adv-x="1443" d="M86 512q0 253 145 395.5t412 145.5v278h156v-278q267 -3 412 -145.5t145 -395.5q0 -255 -145 -396.5t-412 -144.5v-483h-156v483q-267 3 -412 144.5t-145 396.5zM256 512q0 -410 387 -416v832q-387 -9 -387 -416zM799 98q389 6 389 414q0 407 -389 416v-830z" />
<glyph unicode="&#x3c7;" horiz-adv-x="1079" d="M27 -512l407 770l-397 766h194l308 -664h2l307 664h192l-397 -766l410 -770h-193l-319 680h-2l-320 -680h-192z" />
<glyph unicode="&#x3c8;" horiz-adv-x="1509" d="M141 403v621h158v-590q0 -150 106.5 -237.5t270.5 -87.5v1222h158v-1222q164 0 270 87.5t106 237.5v590h158v-621q0 -133 -71.5 -232t-191.5 -149t-271 -51v-483h-158v483q-151 1 -271 51t-192 149t-72 232z" />
<glyph unicode="&#x3c9;" horiz-adv-x="1665" d="M117 516q0 106 16 199.5t38.5 150.5t45.5 99t39 59l16 18l140 -43q-6 -6 -15.5 -18.5t-33.5 -57.5t-42.5 -96.5t-33.5 -136.5t-15 -178q0 -192 68.5 -293.5t198.5 -101.5q67 0 112.5 17.5t66 48t28.5 60t8 66.5v434h157v-434q0 -37 8 -66.5t28.5 -60t66 -48t112.5 -17.5 q130 0 198.5 101.5t68.5 293.5q0 93 -14.5 177.5t-35 138.5t-41 94.5t-34.5 58.5l-15 18l140 43q6 -6 16.5 -18t37.5 -58t47 -101t37 -149t17 -200q0 -266 -103.5 -405.5t-307.5 -139.5q-214 0 -306 129q-95 -129 -303 -129q-204 0 -307.5 139.5t-103.5 405.5z" />
<glyph unicode="&#x3ca;" horiz-adv-x="514" d="M2 1249v142h145v-142h-145zM174 0v1024h166v-1024h-166zM367 1249v142h145v-142h-145z" />
<glyph unicode="&#x3cb;" horiz-adv-x="1198" d="M158 326v698h166v-684q0 -109 73.5 -170t198.5 -61q127 0 202.5 61t75.5 170v684h164v-698q0 -169 -115 -262t-327 -93q-210 0 -324 93t-114 262zM342 1249v142h145v-142h-145zM707 1249v142h145v-142h-145z" />
<glyph unicode="&#x3cc;" horiz-adv-x="1193" d="M86 512q0 255 131 398t379 143q249 0 379.5 -143t130.5 -398q0 -253 -132.5 -397t-377.5 -144q-248 0 -379 143t-131 398zM256 512q0 -198 84 -307t256 -109q174 0 258 109t84 307q0 197 -84.5 306.5t-257.5 109.5q-172 0 -256 -109.5t-84 -306.5zM526 1174l133 385 l109 -33l-158 -377z" />
<glyph unicode="&#x3cd;" horiz-adv-x="1198" d="M158 326v698h166v-684q0 -109 73.5 -170t198.5 -61q127 0 202.5 61t75.5 170v684h164v-698q0 -169 -115 -262t-327 -93q-210 0 -324 93t-114 262zM528 1174l134 385l108 -33l-158 -377z" />
<glyph unicode="&#x3ce;" horiz-adv-x="1665" d="M117 516q0 106 16 199.5t38.5 150.5t45.5 99t39 59l16 18l140 -43q-6 -6 -15.5 -18.5t-33.5 -57.5t-42.5 -96.5t-33.5 -136.5t-15 -178q0 -192 68.5 -293.5t198.5 -101.5q67 0 112.5 17.5t66 48t28.5 60t8 66.5v434h157v-434q0 -37 8 -66.5t28.5 -60t66 -48t112.5 -17.5 q130 0 198.5 101.5t68.5 293.5q0 93 -14.5 177.5t-35 138.5t-41 94.5t-34.5 58.5l-15 18l140 43q6 -6 16.5 -18t37.5 -58t47 -101t37 -149t17 -200q0 -266 -103.5 -405.5t-307.5 -139.5q-214 0 -306 129q-95 -129 -303 -129q-204 0 -307.5 139.5t-103.5 405.5zM762 1174 l133 385l109 -33l-158 -377z" />
<glyph unicode="&#x400;" d="M227 0v1331h838v-137h-666v-455h611v-133h-611v-469h719v-137h-891zM379 1733l158 16l198 -293l-121 -8z" />
<glyph unicode="&#x401;" d="M227 0v1331h838v-137h-666v-455h611v-133h-611v-469h719v-137h-891zM399 1526v141h146v-141h-146zM764 1526v141h145v-141h-145z" />
<glyph unicode="&#x402;" horiz-adv-x="1499" d="M12 1198v133h973v-133h-401v-520q6 6 18 16t52 36t84 45.5t114 35.5t143 16q202 0 288.5 -81.5t86.5 -253.5v-109q0 -119 -27 -202.5t-76.5 -128t-108 -63t-134.5 -18.5q-49 0 -91 9.5t-67 23t-43 27t-25 23.5l-7 9l20 117l8.5 -8.5t24 -19.5t38.5 -24.5t51.5 -19 t63.5 -8.5q38 0 69.5 10t63 35t50 77.5t18.5 127.5v103q0 128 -59 177.5t-207 49.5q-64 0 -126.5 -16t-107.5 -41t-71.5 -43t-42.5 -33v-547h-172v1198h-400z" />
<glyph unicode="&#x403;" horiz-adv-x="974" d="M227 0v1331h744v-137h-572v-1194h-172zM457 1456l198 293l158 -16l-235 -285z" />
<glyph unicode="&#x404;" horiz-adv-x="1376" d="M113 655q0 319 185 511t501 192q68 0 131 -11.5t109.5 -30t87 -41.5t67 -45.5t46 -41t28.5 -30.5l8 -11l-57 -103q-8 7 -22 18t-58.5 40t-90 51.5t-111.5 40.5t-128 18q-225 0 -359.5 -128t-154.5 -353h768v-131h-770q15 -227 150.5 -355t355.5 -128q84 0 162.5 21.5 t130.5 52.5t91.5 61.5t58.5 51.5l18 22l67 -115q-6 -10 -18 -26t-58.5 -57.5t-102 -73t-151.5 -57.5t-204 -26q-321 0 -500.5 183t-179.5 501z" />
<glyph unicode="&#x405;" horiz-adv-x="1200" d="M111 178l88 119q6 -7 16.5 -19.5t49 -44.5t83 -56t116.5 -44t150 -20q148 0 227 69t79 178q0 50 -25.5 88.5t-69 63t-100 44.5t-119 38t-125 38t-119 49.5t-100 68t-69 98t-25.5 135.5q0 169 123.5 272t339.5 103q85 0 158 -16t116.5 -39t74.5 -46t44 -39l12 -16 l-55 -115q-5 6 -15 15.5t-43.5 33.5t-70.5 42.5t-95.5 33.5t-119.5 15q-144 0 -222.5 -62.5t-78.5 -171.5q0 -53 26 -94t69.5 -67.5t100 -48t119 -40t125 -38t119 -47.5t100 -64t69.5 -92t26 -127q0 -184 -128 -294t-358 -110q-74 0 -141 11.5t-115.5 29.5t-89.5 40 t-67.5 44.5t-45 40.5t-26.5 29z" />
<glyph unicode="&#x406;" horiz-adv-x="626" d="M227 0v1331h172v-1331h-172z" />
<glyph unicode="&#x407;" horiz-adv-x="626" d="M59 1526v141h146v-141h-146zM227 0v1331h172v-1331h-172zM424 1526v141h145v-141h-145z" />
<glyph unicode="&#x408;" horiz-adv-x="888" d="M14 139l88 70q3 -4 8 -11t23.5 -24t39 -30t54.5 -24t70 -11q213 0 213 274v948h172v-948q0 -120 -27.5 -203t-79.5 -127.5t-114.5 -63t-145.5 -18.5q-62 0 -115.5 17.5t-86 42t-56.5 49t-33 42.5z" />
<glyph unicode="&#x409;" horiz-adv-x="2099" d="M51 0l8 141q23 -10 64 -10q78 0 131 68t86.5 216.5t48 370.5t14.5 545h822v-534h215q268 0 407.5 -96t139.5 -289q0 -412 -535 -412h-401v1194h-484q-3 -1217 -405 -1217q-34 0 -61.5 5.5t-38.5 11.5zM1225 129h219q195 0 287 69t92 210q0 136 -95 200t-288 64h-215v-543 z" />
<glyph unicode="&#x40a;" horiz-adv-x="2174" d="M227 0v1331h172v-604h729v604h172v-534h216q268 0 407 -96t139 -289q0 -412 -534 -412h-400v594h-729v-594h-172zM1300 129h220q195 0 286.5 69t91.5 210q0 136 -94.5 200t-287.5 64h-216v-543z" />
<glyph unicode="&#x40b;" horiz-adv-x="1579" d="M12 1198v133h973v-133h-401v-520q6 6 18 16t52 36t84 45.5t114 35.5t143 16q202 0 288.5 -81.5t86.5 -253.5v-492h-172v453q0 128 -59 177.5t-207 49.5q-64 0 -126.5 -16t-107.5 -41t-71.5 -43t-42.5 -33v-547h-172v1198h-400z" />
<glyph unicode="&#x40c;" horiz-adv-x="1376" d="M227 0v1331h172v-700l181 125l518 575h192l-575 -641l622 -690h-200l-543 592l-195 -135v-457h-172zM561 1456l199 293l158 -16l-236 -285z" />
<glyph unicode="&#x40d;" horiz-adv-x="1546" d="M227 0v1331h164v-1016l-10 -61h4l766 1057l8 20h158l-2 -4l4 4v-1331h-164v1008l8 69h-2l-766 -1057l-8 -20h-160zM506 1733l158 16l198 -293l-121 -8z" />
<glyph unicode="&#x40e;" horiz-adv-x="1294" d="M27 1331h192l498 -837l366 837h187l-461 -993q-41 -88 -84.5 -153t-85 -105t-87.5 -64.5t-88 -33.5t-91 -9q-42 0 -75.5 6.5t-46.5 13.5l-13 7v127q46 -16 112 -16q80 0 146.5 47.5t132.5 163.5zM346 1665l131 21l8 2q2 -5 5.5 -13t20 -29t38.5 -37t63 -29t90 -13 t89 12.5t62.5 30.5t38 35.5t20.5 30.5l6 12l10 -2l131 -21q-1 -4 -3.5 -11.5t-13 -29.5t-25.5 -41.5t-44 -44t-64 -41.5t-89.5 -29t-117.5 -12q-87 0 -155.5 21.5t-104.5 52t-59.5 61.5t-30.5 53z" />
<glyph unicode="&#x40f;" horiz-adv-x="1490" d="M227 0v1331h172v-1194h693v1194h172v-1331h-441l-6 -432h-145l-8 432h-437z" />
<glyph unicode="&#x410;" horiz-adv-x="1368" d="M51 0l518 1331h230l518 -1331h-176l-137 344h-644l-135 -344h-174zM403 459h558l-279 733z" />
<glyph unicode="&#x411;" horiz-adv-x="1273" d="M227 0v1331h783v-137h-611v-397h215q268 0 407.5 -96t139.5 -289q0 -412 -534 -412h-400zM399 129h219q195 0 287 69t92 210q0 136 -95 200t-288 64h-215v-543z" />
<glyph unicode="&#x412;" horiz-adv-x="1273" d="M227 0v1331h404q227 0 340.5 -92t113.5 -246q0 -180 -167 -284q116 -38 179.5 -123t63.5 -203q0 -186 -125.5 -284.5t-400.5 -98.5h-408zM381 131h246q194 0 282 65t88 197q0 117 -75.5 176.5t-212.5 59.5h-328v-498zM381 745h319q35 0 71 11t73 35t60.5 72t23.5 112 q0 114 -79 170.5t-226 56.5h-242v-457z" />
<glyph unicode="&#x413;" horiz-adv-x="974" d="M227 0v1331h744v-137h-572v-1194h-172z" />
<glyph unicode="&#x414;" horiz-adv-x="1482" d="M94 137h133q86 165 126 434.5t40 759.5h819v-1194h160l-16 -467h-131l-8 330h-975l-9 -330h-122zM395 137h647v1057h-491q-4 -413 -42 -656t-114 -401z" />
<glyph unicode="&#x415;" d="M227 0v1331h838v-137h-666v-455h611v-133h-611v-469h719v-137h-891z" />
<glyph unicode="&#x416;" horiz-adv-x="2007" d="M41 0l530 682l-508 649h201l434 -565h193v565h162v-565h178l477 565h201l-539 -616l598 -715h-201l-522 629h-192v-629h-162v629h-191l-458 -629h-201z" />
<glyph unicode="&#x417;" horiz-adv-x="1146" d="M41 199l90 96q4 -7 12 -19.5t38.5 -44t67.5 -55.5t101.5 -43.5t138.5 -19.5q182 0 274.5 70t92.5 196q0 119 -83 178t-234 59h-226v123h236q43 0 89.5 17t88 47t68 79t26.5 107q0 109 -76.5 172.5t-230.5 63.5q-65 0 -124 -14.5t-97 -35.5t-66 -42t-41 -35l-12 -15 l-61 103q5 7 15 18.5t47 41t81.5 52.5t120.5 41.5t162 18.5q225 0 337.5 -93.5t112.5 -256.5q0 -103 -52 -182t-134 -130q110 -39 170.5 -120.5t60.5 -204.5q0 -183 -136 -291.5t-398 -108.5q-77 0 -144 12.5t-112.5 32.5t-82.5 44.5t-58.5 49t-36 44.5t-20.5 32z" />
<glyph unicode="&#x418;" horiz-adv-x="1546" d="M227 0v1331h164v-1016l-10 -61h4l766 1057l8 20h158l-2 -4l4 4v-1331h-164v1008l8 69h-2l-766 -1057l-8 -20h-160z" />
<glyph unicode="&#x419;" horiz-adv-x="1546" d="M227 0v1331h164v-1016l-10 -61h4l766 1057l8 20h158l-2 -4l4 4v-1331h-164v1008l8 69h-2l-766 -1057l-8 -20h-160zM426 1665l131 21l8 2q2 -5 5.5 -13t20 -29t38.5 -37t63 -29t90 -13t89 12.5t62.5 30.5t37.5 35.5t21 30.5l5 12l11 -2l131 -21q-1 -4 -3.5 -11.5 t-13 -29.5t-25.5 -41.5t-44 -44t-64 -41.5t-89.5 -29t-117.5 -12q-87 0 -155.5 21.5t-104.5 52t-59.5 61.5t-30.5 53z" />
<glyph unicode="&#x41a;" horiz-adv-x="1376" d="M227 0v1331h172v-700l181 125l518 575h192l-575 -641l622 -690h-200l-543 592l-195 -135v-457h-172z" />
<glyph unicode="&#x41b;" horiz-adv-x="1452" d="M51 0l8 141q23 -10 64 -10q78 0 131 68t86.5 216.5t48 370.5t14.5 545h820v-1331h-172v1194h-484q-3 -1217 -405 -1217q-34 0 -61.5 5.5t-38.5 11.5z" />
<glyph unicode="&#x41c;" horiz-adv-x="2013" d="M227 0v1331h224l555 -1155h2l555 1155h225v-1331h-166v1092h-2l-528 -1092h-168l-531 1092v-1092h-166z" />
<glyph unicode="&#x41d;" horiz-adv-x="1527" d="M227 0v1331h172v-604h729v604h172v-1331h-172v594h-729v-594h-172z" />
<glyph unicode="&#x41e;" horiz-adv-x="1566" d="M113 664q0 319 177.5 506.5t491.5 187.5t493 -187.5t179 -506.5q0 -320 -178.5 -506.5t-493.5 -186.5q-314 0 -491.5 186.5t-177.5 506.5zM289 664q0 -255 130.5 -401t362.5 -146t364 146.5t132 400.5q0 252 -132.5 400t-363.5 148q-230 0 -361.5 -148t-131.5 -400z" />
<glyph unicode="&#x41f;" horiz-adv-x="1490" d="M227 0v1331h1037v-1331h-172v1194h-693v-1194h-172z" />
<glyph unicode="&#x420;" horiz-adv-x="1169" d="M227 0v1331h365q238 0 368 -106.5t130 -315.5q0 -119 -43 -208.5t-116 -139.5t-158 -74t-181 -24h-205v-463h-160zM387 590h172q74 0 134.5 15.5t111.5 50t79.5 97.5t28.5 150q0 149 -94 223t-258 74h-174v-610z" />
<glyph unicode="&#x421;" horiz-adv-x="1370" d="M113 655q0 319 185 511t501 192q68 0 131 -11.5t109.5 -30t87 -41.5t67 -45.5t46 -41t28.5 -30.5l8 -11l-66 -111q-7 7 -20.5 19t-56.5 42.5t-87.5 53.5t-109.5 42t-127 19q-244 0 -382 -149.5t-138 -407.5q0 -251 138.5 -394.5t371.5 -143.5q84 0 162.5 21.5t130.5 52.5 t91.5 61.5t58.5 51.5l18 22l67 -115q-6 -10 -18 -26t-58.5 -57.5t-102 -73t-151.5 -57.5t-204 -26q-321 0 -500.5 183t-179.5 501z" />
<glyph unicode="&#x422;" horiz-adv-x="997" d="M12 1194v137h973v-137h-401v-1194h-172v1194h-400z" />
<glyph unicode="&#x423;" horiz-adv-x="1294" d="M27 1331h192l498 -837l366 837h187l-461 -993q-41 -88 -84.5 -153t-85 -105t-87.5 -64.5t-88 -33.5t-91 -9q-42 0 -75.5 6.5t-46.5 13.5l-13 7v127q46 -16 112 -16q80 0 146.5 47.5t132.5 163.5z" />
<glyph unicode="&#x424;" horiz-adv-x="1714" d="M113 664q0 584 665 591v76h156v-76q668 -7 668 -587q0 -303 -175.5 -447.5t-492.5 -146.5v-74h-156v74q-319 2 -492 144.5t-173 445.5zM281 664q0 -237 124 -343t373 -108v909q-248 -3 -372.5 -112t-124.5 -346zM934 211q248 2 374 111t126 346t-123 343t-377 109v-909z " />
<glyph unicode="&#x425;" horiz-adv-x="1366" d="M43 0l535 666l-523 665h197l432 -545l432 545h195l-523 -665l537 -666h-205l-436 545l-436 -545h-205z" />
<glyph unicode="&#x426;" horiz-adv-x="1533" d="M227 0v1331h172v-1194h693v1194h172v-1194h159l-8 -467h-145v330h-1043z" />
<glyph unicode="&#x427;" horiz-adv-x="1363" d="M178 809v522h172v-491q0 -132 67 -192t212 -60q183 0 336 74v669h172v-1331h-172v528q-7 -4 -22 -12t-52 -21.5t-80.5 -24.5t-109.5 -19.5t-136 -8.5q-387 0 -387 367z" />
<glyph unicode="&#x428;" horiz-adv-x="2043" d="M227 0v1331h172v-1194h537v1194h172v-1194h537v1194h172v-1331h-1590z" />
<glyph unicode="&#x429;" horiz-adv-x="2088" d="M227 0v1331h172v-1194h537v1194h172v-1194h537v1194h172v-1194h159l-8 -467h-145v330h-1596z" />
<glyph unicode="&#x42a;" horiz-adv-x="1458" d="M12 1194v137h572v-534h215q268 0 407.5 -96t139.5 -289q0 -412 -535 -412h-399v1194h-400zM584 129h219q195 0 287 69t92 210q0 136 -95 200t-288 64h-215v-543z" />
<glyph unicode="&#x42b;" horiz-adv-x="1832" d="M227 0v1331h172v-534h215q268 0 407.5 -96t139.5 -289q0 -412 -534 -412h-400zM399 129h219q195 0 287 69t92 210q0 136 -95 200t-288 64h-215v-543zM1436 0v1331h172v-1331h-172z" />
<glyph unicode="&#x42c;" horiz-adv-x="1273" d="M227 0v1331h172v-534h215q268 0 407.5 -96t139.5 -289q0 -412 -534 -412h-400zM399 129h219q195 0 287 69t92 210q0 136 -95 200t-288 64h-215v-543z" />
<glyph unicode="&#x42d;" horiz-adv-x="1345" d="M29 184l77 113q6 -7 17.5 -19.5t53 -43.5t88.5 -54.5t123 -43t157 -19.5q222 0 356.5 123.5t149.5 357.5h-785v133h785q-15 239 -139 362.5t-371 123.5q-73 0 -140 -13.5t-110 -32.5t-75.5 -38t-47.5 -33l-14 -13l-60 103q6 7 17 18t53 40t91.5 51.5t133 40.5t176.5 18 q326 0 497 -189t171 -514q0 -318 -178.5 -501t-493.5 -183q-79 0 -151 11.5t-124 30.5t-96.5 41.5t-73.5 45.5t-49 42t-29 30z" />
<glyph unicode="&#x42e;" horiz-adv-x="2154" d="M227 0v1331h172v-604h295q19 291 198.5 461t477.5 170q314 0 493 -187.5t179 -506.5q0 -320 -178.5 -506.5t-493.5 -186.5q-298 0 -477 166.5t-199 456.5h-295v-594h-172zM877 664q0 -255 130.5 -401t362.5 -146t364 146.5t132 400.5q0 252 -132.5 400t-363.5 148 q-230 0 -361.5 -148t-131.5 -400z" />
<glyph unicode="&#x42f;" horiz-adv-x="1292" d="M123 0l305 526q-129 36 -213 136t-84 253q0 98 37 178.5t99.5 131.5t140.5 78.5t163 27.5h494v-1331h-160v510h-327l-287 -510h-168zM295 924q0 -125 87 -200t202 -75h321v551h-321q-51 0 -101.5 -19t-92.5 -52.5t-68.5 -87.5t-26.5 -117z" />
<glyph unicode="&#x430;" horiz-adv-x="1087" d="M78 264q0 62 25.5 114.5t66.5 89.5t101 66.5t119.5 48.5t130.5 32.5t127 20.5t116 11v31q0 129 -60 188.5t-192 59.5q-53 0 -100 -11.5t-76.5 -28t-52 -32.5t-31.5 -28l-10 -11l-92 78q4 7 11.5 17.5t39 38t70.5 48.5t108 38.5t149 17.5q204 0 302 -90.5t98 -282.5v-680 h-137l-25 152q-8 -18 -19.5 -37t-38.5 -46.5t-60.5 -48t-88.5 -35t-119 -14.5q-174 0 -268 77t-94 216zM246 281q0 -191 243 -191q58 0 107.5 18.5t77 41t50.5 54t29 44.5t11 26v256q-82 -7 -146.5 -16t-137.5 -27.5t-121.5 -44t-80.5 -67t-32 -94.5z" />
<glyph unicode="&#x431;" horiz-adv-x="1216" d="M106 551q0 125 6 223t22 196t43.5 171.5t72 140t105.5 112t145 77.5t190 45l324 40l14 -155l-285 -31q-227 -24 -340.5 -143t-146.5 -357q62 86 158.5 134.5t220.5 48.5q239 0 367 -143.5t128 -397.5q0 -253 -133.5 -397t-375.5 -144q-258 0 -386.5 148.5t-128.5 431.5z M279 512q0 -416 342 -416q340 0 340 416t-340 416q-164 0 -251.5 -101t-90.5 -264v-51z" />
<glyph unicode="&#x432;" horiz-adv-x="1101" d="M174 0v1024h406q206 0 293.5 -70.5t87.5 -199.5q0 -150 -158 -219q92 -28 150.5 -88.5t58.5 -147.5q0 -69 -21.5 -121t-71 -93.5t-138 -63t-214.5 -21.5h-393zM332 117h235q84 0 141.5 15t86 44t40 61t11.5 76q0 77 -63 122.5t-195 45.5h-256v-364zM332 569h276 q14 1 31 4t48 14.5t54.5 28t41.5 48.5t18 73q0 81 -52.5 125.5t-175.5 44.5h-241v-338z" />
<glyph unicode="&#x433;" horiz-adv-x="806" d="M174 0v1024h627v-133h-461v-891h-166z" />
<glyph unicode="&#x434;" horiz-adv-x="1267" d="M39 129h141q73 172 102 380t29 515h729v-895h170l-18 -422h-129l-8 293h-879l-14 -293h-115zM338 129h551v766h-434q-3 -242 -30 -424.5t-87 -341.5z" />
<glyph unicode="&#x435;" horiz-adv-x="1081" d="M86 492q0 260 132 410.5t362 150.5q204 0 316 -127t112 -351q0 -33 -4 -60t-8 -37l-5 -11h-735v-4q0 -174 91.5 -269.5t254.5 -95.5q60 0 113 14t86.5 33.5t58.5 39.5t36 34l11 14l99 -63q-4 -8 -13 -21.5t-43.5 -48t-77.5 -60.5t-117.5 -47.5t-160.5 -21.5 q-237 0 -372.5 132t-135.5 389zM258 590h598q2 6 2 24q0 145 -71.5 229.5t-206.5 84.5q-148 0 -230.5 -92.5t-91.5 -245.5z" />
<glyph unicode="&#x436;" horiz-adv-x="1536" d="M39 0l362 530l-346 494h189l293 -434h151v434h160v-434h139l322 434h188l-364 -498l364 -526h-188l-314 467h-147v-467h-160v467h-143l-320 -467h-186z" />
<glyph unicode="&#x437;" horiz-adv-x="972" d="M47 143l80 93q3 -6 8.5 -15t30.5 -33t57 -42t90.5 -33t128.5 -15q143 0 209 57t66 148q0 80 -62.5 126t-169.5 46h-194v109h198q11 0 29 3t47 14t52.5 28.5t41 52t17.5 78.5q0 77 -63.5 123.5t-188.5 46.5q-52 0 -96.5 -11t-71 -27t-45 -31.5t-25.5 -26.5l-8 -11l-82 72 q3 6 9.5 17t34 38t63.5 48t103 38t147 17q184 0 283.5 -75.5t99.5 -199.5q0 -149 -131 -229q80 -33 129 -98t49 -158q0 -146 -110.5 -234t-323.5 -88q-95 0 -171.5 17.5t-117.5 43t-68.5 51t-35.5 43.5z" />
<glyph unicode="&#x438;" horiz-adv-x="1259" d="M174 0v1024h166v-776l588 731l12 45h143v-1024h-163v762l-588 -729l-13 -33h-145z" />
<glyph unicode="&#x439;" horiz-adv-x="1259" d="M174 0v1024h166v-776l588 731l12 45h143v-1024h-163v762l-588 -729l-13 -33h-145zM283 1389l131 20l8 2q2 -5 5.5 -13t20 -29t38.5 -37t63 -29t90 -13t89 12.5t62.5 30t37.5 35.5t20 30l6 13l10 -2l131 -20q-1 -4 -3.5 -11.5t-13 -29.5t-25.5 -41.5t-43.5 -44 t-63.5 -41.5t-89.5 -29t-117.5 -12q-87 0 -155.5 21.5t-104.5 52t-59.5 61.5t-29.5 53z" />
<glyph unicode="&#x43a;" horiz-adv-x="1050" d="M174 0v1024h166v-451l131 72l344 379h191l-406 -449l434 -575h-198l-375 498l-121 -54v-444h-166z" />
<glyph unicode="&#x43b;" horiz-adv-x="1177" d="M51 -23v129h17q50 0 86 32t61.5 97.5t40 176.5t21 258.5t6.5 353.5h718v-1024h-165v891h-402q0 -190 -10 -331.5t-33.5 -255.5t-62.5 -184.5t-97 -107.5t-137 -37q-29 0 -43 2z" />
<glyph unicode="&#x43c;" horiz-adv-x="1548" d="M174 0v1024h205l395 -885l391 885h209v-1024h-147v735l6 99l-379 -834h-160l-379 831l7 -98v-733h-148z" />
<glyph unicode="&#x43d;" horiz-adv-x="1226" d="M174 0v1024h166v-426h549v426h164v-1024h-164v457h-549v-457h-166z" />
<glyph unicode="&#x43e;" horiz-adv-x="1193" d="M86 512q0 255 131 398t379 143q249 0 379.5 -143t130.5 -398q0 -253 -132.5 -397t-377.5 -144q-248 0 -379 143t-131 398zM256 512q0 -198 84 -307t256 -109q174 0 258 109t84 307q0 197 -84.5 306.5t-257.5 109.5q-172 0 -256 -109.5t-84 -306.5z" />
<glyph unicode="&#x43f;" horiz-adv-x="1208" d="M174 0v1024h860v-1024h-164v891h-530v-891h-166z" />
<glyph unicode="&#x440;" horiz-adv-x="1224" d="M174 -512v1536h148l14 -143q9 17 22 34t42.5 43.5t64.5 46t91 34t120 14.5q213 0 339 -136.5t126 -375.5q0 -170 -54.5 -297t-166 -200t-267.5 -73q-64 0 -119.5 13.5t-90 32.5t-59.5 37.5t-36 31.5l-10 14v-612h-164zM338 236q5 -10 13.5 -21.5t31.5 -33.5t50 -38.5 t71.5 -29.5t95.5 -13q371 0 371 437q0 387 -350 387q-59 0 -109 -18.5t-79.5 -43t-52.5 -55t-30.5 -47t-11.5 -27.5v-497z" />
<glyph unicode="&#x441;" horiz-adv-x="1011" d="M86 502q0 264 129.5 407.5t384.5 143.5q71 0 133 -12.5t101 -31t67.5 -36.5t40.5 -31l12 -12l-51 -103q-4 4 -12.5 11t-36 24.5t-58 30.5t-78.5 24t-97 11q-187 0 -276 -104t-89 -320q0 -210 92 -309t258 -99q53 0 102.5 12.5t82.5 31t58.5 36.5t37.5 30l12 13l86 -63 q-4 -8 -11.5 -20t-39.5 -44t-72.5 -56.5t-112.5 -44.5t-157 -20q-247 0 -376.5 134t-129.5 397z" />
<glyph unicode="&#x442;" horiz-adv-x="872" d="M27 891v133h819v-133h-328v-891h-164v891h-327z" />
<glyph unicode="&#x443;" horiz-adv-x="1085" d="M33 1024h182l354 -850h4l297 850h183l-412 -1049q-63 -160 -125 -269.5t-140 -178t-161 -68.5q-41 0 -77 9.5t-52 18.5l-16 9l28 135q43 -24 88 -24q84 0 155.5 103.5t145.5 295.5z" />
<glyph unicode="&#x444;" horiz-adv-x="1443" d="M86 512q0 253 145 395.5t412 145.5v278h156v-278q267 -3 412 -145.5t145 -395.5q0 -255 -145 -396.5t-412 -144.5v-483h-156v483q-267 3 -412 144.5t-145 396.5zM256 512q0 -410 387 -416v832q-387 -9 -387 -416zM799 98q389 6 389 414q0 407 -389 416v-830z" />
<glyph unicode="&#x445;" horiz-adv-x="1079" d="M27 0l411 516l-401 508h194l308 -408h2l307 408h192l-401 -508l414 -516h-193l-319 424h-2l-320 -424h-192z" />
<glyph unicode="&#x446;" horiz-adv-x="1261" d="M174 0v1024h166v-891h530v891h164v-891h148l-8 -426h-148v293h-852z" />
<glyph unicode="&#x447;" horiz-adv-x="1099" d="M115 651v373h168v-350q0 -91 55.5 -141t157.5 -50q75 0 141 14t95 28l28 14v485h166v-1024h-166v430l-6 -2q-5 -3 -11 -5.5t-17.5 -6.5l-23 -8t-28.5 -8t-35 -8t-41 -7.5t-47 -6t-53.5 -4t-59.5 -1.5q-153 0 -238 67.5t-85 210.5z" />
<glyph unicode="&#x448;" horiz-adv-x="1687" d="M174 0v1024h158v-891h432v891h158v-891h432v891h157v-1024h-1337z" />
<glyph unicode="&#x449;" horiz-adv-x="1738" d="M174 0v1024h158v-891h432v891h158v-891h432v891h157v-891h150l-8 -426h-148v293h-1331z" />
<glyph unicode="&#x44a;" horiz-adv-x="1224" d="M6 891v133h483v-377h205q100 0 181 -17t144.5 -53t98.5 -98t35 -145q0 -334 -455 -334h-374v891h-318zM489 117h207q143 0 216 51.5t73 165.5q0 198 -295 198h-201v-415z" />
<glyph unicode="&#x44b;" horiz-adv-x="1552" d="M174 0v1024h166v-377h205q100 0 181 -17t144.5 -53t98.5 -98t35 -145q0 -334 -455 -334h-375zM340 117h207q143 0 216 51.5t73 165.5q0 198 -295 198h-201v-415zM1214 0v1024h164v-1024h-164z" />
<glyph unicode="&#x44c;" horiz-adv-x="1077" d="M174 0v1024h166v-377h205q100 0 181 -17t144.5 -53t98.5 -98t35 -145q0 -334 -455 -334h-375zM340 117h207q143 0 216 51.5t73 165.5q0 198 -295 198h-201v-415z" />
<glyph unicode="&#x44d;" horiz-adv-x="1040" d="M47 131l62 82q4 -5 11 -13t34.5 -28t59.5 -35.5t86 -28t114 -12.5q175 0 270 93.5t109 273.5h-529v131h527q-29 334 -369 334q-53 0 -104 -10.5t-85.5 -25t-61 -29.5t-39.5 -25l-13 -11l-47 99q5 5 14 13.5t42 30.5t72 39t104.5 30.5t137.5 13.5q235 0 372.5 -138 t137.5 -378q0 -269 -146 -417.5t-392 -148.5q-77 0 -143.5 16.5t-105.5 40t-67.5 47t-39.5 39.5z" />
<glyph unicode="&#x44e;" horiz-adv-x="1609" d="M174 0v1024h166v-426h203q21 218 143.5 336.5t339.5 118.5q249 0 373.5 -142t124.5 -399q0 -258 -124.5 -399.5t-373.5 -141.5q-225 0 -349 126t-138 360h-199v-457h-166zM698 512q0 -416 330 -416q334 0 334 416t-334 416q-330 0 -330 -416z" />
<glyph unicode="&#x44f;" horiz-adv-x="1099" d="M102 705q0 319 422 319h402v-1024h-164v389h-266l-213 -389h-174l233 408q-118 31 -179 107.5t-61 189.5zM262 705q0 -145 144 -187l2 2l14 -6l4 -2q41 -8 102 -8h234v403h-221q-146 0 -212.5 -49t-66.5 -153z" />
<glyph unicode="&#x450;" horiz-adv-x="1081" d="M86 492q0 260 132 410.5t362 150.5q204 0 316 -127t112 -351q0 -33 -4 -60t-8 -37l-5 -11h-735v-4q0 -174 91.5 -269.5t254.5 -95.5q60 0 113 14t86.5 33.5t58.5 39.5t36 34l11 14l99 -63q-4 -8 -13 -21.5t-43.5 -48t-77.5 -60.5t-117.5 -47.5t-160.5 -21.5 q-237 0 -372.5 132t-135.5 389zM258 590h598q2 6 2 24q0 145 -71.5 229.5t-206.5 84.5q-148 0 -230.5 -92.5t-91.5 -245.5zM309 1456l158 17l199 -293l-121 -9z" />
<glyph unicode="&#x451;" horiz-adv-x="1081" d="M86 492q0 260 132 410.5t362 150.5q204 0 316 -127t112 -351q0 -33 -4 -60t-8 -37l-5 -11h-735v-4q0 -174 91.5 -269.5t254.5 -95.5q60 0 113 14t86.5 33.5t58.5 39.5t36 34l11 14l99 -63q-4 -8 -13 -21.5t-43.5 -48t-77.5 -60.5t-117.5 -47.5t-160.5 -21.5 q-237 0 -372.5 132t-135.5 389zM258 590h598q2 6 2 24q0 145 -71.5 229.5t-206.5 84.5q-148 0 -230.5 -92.5t-91.5 -245.5zM287 1249v142h145v-142h-145zM651 1249v142h146v-142h-146z" />
<glyph unicode="&#x452;" d="M49 1212v113l125 2v203l164 6v-207h426v-117h-426v-409h4l4 4q3 4 10 11t17.5 16t26 18.5t34.5 19.5t44.5 19t54 16t65 11t76.5 4q175 0 278 -86.5t103 -251.5v-672q0 -109 -27.5 -193.5t-74 -135t-102.5 -76t-118 -25.5q-78 0 -145 37l45 135q37 -16 74 -16 q73 0 126.5 62t57.5 194v659q0 106 -73.5 165.5t-199.5 59.5q-57 0 -107 -12.5t-80.5 -31t-52.5 -36.5t-31 -30l-9 -13v-655h-164v1212h-125z" />
<glyph unicode="&#x453;" horiz-adv-x="806" d="M174 0v1024h627v-133h-461v-891h-166zM350 1180l199 293l158 -17l-236 -285z" />
<glyph unicode="&#x454;" horiz-adv-x="1032" d="M86 504q0 259 130 404t384 145q64 0 123 -11t97.5 -27t68.5 -31.5t43 -26.5l14 -11l-43 -104q-4 3 -12.5 8.5t-36 20t-58 25t-78.5 19.5t-97 9q-177 0 -263 -82t-100 -264h512v-132h-512q12 -186 100.5 -267t253.5 -81q57 0 108 12t84 28.5t57.5 33.5t34.5 29l11 12 l78 -90q-4 -6 -12.5 -16.5t-41 -36.5t-73.5 -46t-112 -36.5t-154 -16.5q-246 0 -376 134.5t-130 398.5z" />
<glyph unicode="&#x455;" horiz-adv-x="1003" d="M70 211l100 76q4 -8 11.5 -21t36 -45.5t63.5 -58t95 -46t128 -20.5q127 0 190.5 52t63.5 126q0 51 -34 86.5t-88.5 56t-120 38t-131.5 39t-120.5 51.5t-88.5 84.5t-34 128.5q0 133 104.5 214t286.5 81q68 0 128 -11.5t97 -27.5t64.5 -32.5t38.5 -27.5l12 -12l-38 -108 q-5 4 -15 10.5t-42 23.5t-65.5 30t-82.5 23.5t-97 10.5q-107 0 -167 -43.5t-60 -110.5q0 -40 21 -70.5t57 -51t83 -37t98.5 -31t102.5 -30t98 -38.5t83 -51.5t57 -73t21 -100.5q0 -65 -23 -121t-71 -102.5t-132 -73.5t-196 -27q-74 0 -138 13t-107 34.5t-77.5 47t-55 51 t-33.5 47t-18 34.5z" />
<glyph unicode="&#x456;" horiz-adv-x="514" d="M174 0v1024h166v-1024h-166zM184 1249v142h148v-142h-148z" />
<glyph unicode="&#x457;" horiz-adv-x="514" d="M2 1249v142h145v-142h-145zM174 0v1024h166v-1024h-166zM367 1249v142h145v-142h-145z" />
<glyph unicode="&#x458;" horiz-adv-x="534" d="M-106 -504l43 135q32 -18 81 -18q74 0 125.5 73.5t51.5 221.5v1116h163v-1116q0 -119 -27.5 -208.5t-75 -140.5t-102 -75.5t-116.5 -24.5q-46 0 -82 9.5t-49 18.5zM205 1249v142h147v-142h-147z" />
<glyph unicode="&#x459;" horiz-adv-x="1738" d="M51 -23v129h17q50 0 86 32t61.5 97.5t40 176.5t21 258.5t6.5 353.5h718v-377h205q100 0 181 -17t144.5 -53t98.5 -98t35 -145q0 -334 -455 -334h-374v891h-402q0 -190 -10 -331.5t-33.5 -255.5t-62.5 -184.5t-97 -107.5t-137 -37q-29 0 -43 2zM1001 117h207 q143 0 216 51.5t73 165.5q0 198 -295 198h-201v-415z" />
<glyph unicode="&#x45a;" horiz-adv-x="1789" d="M174 0v1024h166v-426h547v426h166v-377h204q100 0 181 -17t144.5 -53t98.5 -98t35 -145q0 -334 -454 -334h-375v457h-547v-457h-166zM1053 117h207q142 0 215 51.5t73 165.5q0 198 -295 198h-200v-415z" />
<glyph unicode="&#x45b;" d="M49 1212v113l125 2v203l164 6v-207h426v-117h-426v-409h4l4 4q3 4 10 11t17.5 16t26 18.5t34.5 19.5t44.5 19t54 16t65 11t76.5 4q175 0 278 -86.5t103 -251.5v-584h-164v553q0 106 -73.5 165.5t-199.5 59.5q-57 0 -107 -12.5t-80.5 -31t-52.5 -36.5t-31 -30l-9 -13v-655 h-164v1212h-125z" />
<glyph unicode="&#x45c;" horiz-adv-x="1050" d="M174 0v1024h166v-451l131 72l344 379h191l-406 -449l434 -575h-198l-375 498l-121 -54v-444h-166zM483 1180l199 293l158 -17l-236 -285z" />
<glyph unicode="&#x45d;" horiz-adv-x="1259" d="M174 0v1024h166v-776l588 731l12 45h143v-1024h-163v762l-588 -729l-13 -33h-145zM346 1456l158 17l198 -293l-120 -9z" />
<glyph unicode="&#x45e;" horiz-adv-x="1085" d="M33 1024h182l354 -850h4l297 850h183l-412 -1049q-63 -160 -125 -269.5t-140 -178t-161 -68.5q-41 0 -77 9.5t-52 18.5l-16 9l28 135q43 -24 88 -24q84 0 155.5 103.5t145.5 295.5zM197 1389l131 20l8 2q2 -5 5.5 -13t20 -29t38.5 -37t63 -29t90 -13t89 12.5t62.5 30 t37.5 35.5t20 30l6 13l10 -2l131 -20q-1 -4 -3.5 -11.5t-13 -29.5t-25.5 -41.5t-43.5 -44t-63.5 -41.5t-89.5 -29t-117.5 -12q-87 0 -155.5 21.5t-104.5 52t-59.5 61.5t-29.5 53z" />
<glyph unicode="&#x45f;" horiz-adv-x="1249" d="M174 0v1024h166v-891h569v891h166v-1024h-366l-7 -293h-147v293h-381z" />
<glyph unicode="&#x462;" horiz-adv-x="1355" d="M12 1194v137h297v94h172v-94h504v-137h-504v-397h215q268 0 407.5 -96t139.5 -289q0 -412 -532 -412h-402v1194h-297zM481 129h219q195 0 287 69t92 210q0 136 -95 200t-288 64h-215v-543z" />
<glyph unicode="&#x463;" horiz-adv-x="1171" d="M6 891v133h264v205h164v-205h393v-109l-391 -6v-18h-2v-244h205q100 0 181.5 -17t145.5 -53t99 -98t35 -145q0 -334 -455 -334h-375v891h-264zM434 117h209q143 0 216 51.5t73 165.5q0 198 -295 198h-203v-415z" />
<glyph unicode="&#x490;" horiz-adv-x="921" d="M227 0v1331h557v205h134v-342h-519v-1194h-172z" />
<glyph unicode="&#x491;" horiz-adv-x="784" d="M174 0v1024h473v262h137v-395h-444v-891h-166z" />
<glyph unicode="&#x1e9e;" horiz-adv-x="1519" d="M207 0v897q0 202 136.5 318t412.5 116h432v-96l-268 -442q6 0 18 1t18 1q222 0 336.5 -103.5t114.5 -285.5q0 -205 -129 -320t-365 -115q-73 0 -139 10.5t-107.5 25t-72 29.5t-44.5 26l-13 10l53 125q5 -3 14.5 -8.5t41 -19.5t65 -24.5t84.5 -19t102 -8.5q166 0 254 78.5 t88 214.5q0 120 -70.5 191t-207.5 71q-43 0 -78 -11t-49 -21l-13 -11l-76 82l269 475h-258q-189 0 -283 -81.5t-94 -234.5v-870h-172z" />
<glyph unicode="&#x2000;" horiz-adv-x="966" />
<glyph unicode="&#x2001;" horiz-adv-x="1933" />
<glyph unicode="&#x2002;" horiz-adv-x="1024" />
<glyph unicode="&#x2003;" horiz-adv-x="2048" />
<glyph unicode="&#x2004;" horiz-adv-x="681" />
<glyph unicode="&#x2005;" horiz-adv-x="512" />
<glyph unicode="&#x2006;" horiz-adv-x="322" />
<glyph unicode="&#x2007;" horiz-adv-x="322" />
<glyph unicode="&#x2008;" horiz-adv-x="241" />
<glyph unicode="&#x2009;" horiz-adv-x="409" />
<glyph unicode="&#x200a;" horiz-adv-x="81" />
<glyph unicode="&#x2010;" horiz-adv-x="702" d="M80 504v129h543v-129h-543z" />
<glyph unicode="&#x2011;" horiz-adv-x="702" d="M80 504v129h543v-129h-543z" />
<glyph unicode="&#x2012;" horiz-adv-x="702" d="M80 504v129h543v-129h-543z" />
<glyph unicode="&#x2013;" horiz-adv-x="1116" d="M80 504v129h956v-129h-956z" />
<glyph unicode="&#x2014;" horiz-adv-x="1486" d="M80 504v129h1327v-129h-1327z" />
<glyph unicode="&#x2015;" horiz-adv-x="1486" d="M80 504v129h1327v-129h-1327z" />
<glyph unicode="&#x2018;" horiz-adv-x="325" d="M61 1135q0 148 52.5 258t142.5 161l76 -59q-71 -58 -108.5 -133.5t-37.5 -187.5h50v-148h-166q-9 83 -9 109z" />
<glyph unicode="&#x2019;" horiz-adv-x="325" d="M-18 1067q71 58 108 134t37 188h-49v147h164q8 -52 8 -115q0 -147 -53 -256t-142 -157z" />
<glyph unicode="&#x201a;" horiz-adv-x="325" d="M-18 -274q71 58 108 133.5t37 187.5h-49v148h164v-66q2 -20 2 -61q0 -136 -49 -244t-140 -158z" />
<glyph unicode="&#x201c;" horiz-adv-x="677" d="M61 1135q0 148 52.5 258t142.5 161l76 -59q-71 -58 -108.5 -133.5t-37.5 -187.5h50v-148h-166q-9 83 -9 109zM414 1135q0 148 52.5 258.5t141.5 160.5l76 -59q-71 -58 -108 -133.5t-37 -187.5h49v-148h-166q-8 74 -8 109z" />
<glyph unicode="&#x201d;" horiz-adv-x="677" d="M-18 1067q71 58 108 134t37 188h-49v147h164q8 -52 8 -115q0 -147 -53 -256t-142 -157zM334 1067q71 58 108 134t37 188h-49v147h164q8 -52 8 -115q0 -147 -52.5 -256t-141.5 -157z" />
<glyph unicode="&#x201e;" horiz-adv-x="677" d="M-18 -274q71 58 108 133.5t37 187.5h-49v148h164v-66q2 -20 2 -61q0 -136 -49 -244t-140 -158zM334 -274q71 58 108 133.5t37 187.5h-49v148h164v-66q2 -20 2 -61q0 -136 -48.5 -244t-139.5 -158z" />
<glyph unicode="&#x2020;" horiz-adv-x="1060" d="M125 758v129h340v444h135v-444h334v-129h-322v-1270h-161v1270h-326z" />
<glyph unicode="&#x2021;" horiz-adv-x="1060" d="M125 -35h336v889h-336v129h336v348h139v-348h334v-129h-336l2 -444v-445h334v-129h-334v-348h-139v348h-336v129z" />
<glyph unicode="&#x2022;" horiz-adv-x="702" d="M203 524v271h274v-271h-274z" />
<glyph unicode="&#x2026;" horiz-adv-x="1566" d="M203 0v154h157v-154h-157zM700 0v154h158v-154h-158zM1200 0v154h158v-154h-158z" />
<glyph unicode="&#x202f;" horiz-adv-x="386" />
<glyph unicode="&#x2030;" horiz-adv-x="2791" d="M113 971q0 176 100 281.5t276 105.5q171 0 273 -106.5t102 -280.5q0 -175 -100 -280t-275 -105q-180 0 -278 104t-98 281zM248 973q0 -121 62.5 -192.5t178.5 -71.5q114 0 177 71.5t63 192.5t-63 192.5t-177 71.5q-116 0 -178.5 -71.5t-62.5 -192.5zM545 25l680 1288 l131 -21l-680 -1288zM1051 356q0 176 100 281.5t276 105.5q171 0 273 -106.5t102 -280.5q0 -175 -100 -280t-275 -105q-180 0 -278 104t-98 281zM1186 358q0 -121 62.5 -192.5t178.5 -71.5q114 0 177 71.5t63 192.5t-63 193t-177 72q-116 0 -178.5 -72t-62.5 -193zM1927 356 q0 176 100.5 281.5t276.5 105.5q171 0 273 -106.5t102 -280.5q0 -175 -100 -280t-275 -105q-180 0 -278.5 104t-98.5 281zM2062 358q0 -121 63 -192.5t179 -71.5q114 0 177 71.5t63 192.5t-63 193t-177 72q-116 0 -179 -72t-63 -193z" />
<glyph unicode="&#x2039;" horiz-adv-x="765" d="M197 512l354 350l72 -80l-275 -272l273 -277l-72 -81z" />
<glyph unicode="&#x203a;" horiz-adv-x="765" d="M141 229l275 273l-273 278l72 82l350 -362l-352 -348z" />
<glyph unicode="&#x2044;" horiz-adv-x="923" d="M143 49l725 1151l107 -59l-725 -1149z" />
<glyph unicode="&#x205f;" horiz-adv-x="483" />
<glyph unicode="&#x2070;" horiz-adv-x="1163" d="M133 936q0 227 117.5 360.5t331.5 133.5t331 -133.5t117 -360.5q0 -228 -116.5 -361t-331.5 -133t-332 133t-117 361zM301 936q0 -184 71.5 -285.5t209.5 -101.5q136 0 208 101.5t72 285.5q0 183 -72 285t-208 102q-137 0 -209 -102t-72 -285z" />
<glyph unicode="&#x2074;" horiz-adv-x="950" d="M113 780q73 128 145 298t111 333l143 -8q-74 -304 -244 -623h334v332l49 156h101v-488h120v-98h-120v-211h-150v211h-483z" />
<glyph unicode="&#x2075;" horiz-adv-x="929" d="M51 631l88 53q2 -5 7 -14.5t25 -32.5t46 -41t73.5 -32.5t104.5 -14.5q132 0 197 60t65 155q0 77 -69.5 130.5t-190.5 53.5q-42 0 -77 -7.5t-50.5 -15t-19.5 -12.5l-70 27l56 463h512v-115h-410l-31 -254q55 10 111 10q185 0 292 -77t107 -205q0 -151 -107.5 -235.5 t-306.5 -84.5q-83 0 -149.5 19.5t-102.5 47t-60.5 55.5t-32.5 48z" />
<glyph unicode="&#x2076;" horiz-adv-x="1042" d="M133 829q0 57 6 105q12 243 128.5 369.5t303.5 126.5q52 0 97 -7t72.5 -16.5t47.5 -19t28 -16.5l9 -7l-30 -98q-11 5 -31 13.5t-77 22t-109 13.5q-265 0 -291 -330q119 70 284 70q166 0 262.5 -75.5t96.5 -207.5q0 -144 -97.5 -237t-283.5 -93q-195 0 -305.5 103.5 t-110.5 283.5zM285 786q0 -114 67 -180.5t197 -66.5q63 0 109.5 19t71.5 52.5t36.5 72t11.5 83.5q0 86 -58 142.5t-179 56.5q-149 0 -234 -80l4 -6q-26 -17 -26 -93z" />
<glyph unicode="&#x2077;" horiz-adv-x="819" d="M41 1284v119h735v-86q-127 -177 -241 -408.5t-162 -437.5h-170q49 197 155 408.5t238 404.5h-555z" />
<glyph unicode="&#x2078;" horiz-adv-x="1019" d="M113 711q0 165 239 235q-40 11 -74 28t-66.5 44t-51.5 68t-19 92q0 116 97 184t272 68q176 0 272.5 -69t96.5 -187q0 -157 -209 -226q237 -60 237 -239q0 -267 -397 -267t-397 269zM268 719q0 -88 64 -133t178 -45q116 0 180 44.5t64 133.5q0 38 -15 69t-38 50t-54 33.5 t-57.5 21.5t-55.5 11t-42 4.5t-21 0.5q-34 -6 -65.5 -17.5t-64.5 -33t-53 -57.5t-20 -82zM285 1167q0 -42 17 -75t41 -52t57 -32t59 -18t53 -7q23 2 46.5 5.5t57 16t58.5 31t43 52t18 77.5q0 80 -57.5 123t-167.5 43q-108 0 -166.5 -43t-58.5 -121z" />
<glyph unicode="&#x2079;" horiz-adv-x="1054" d="M113 1087q0 149 111.5 246t301.5 97q189 0 292.5 -98.5t103.5 -278.5q0 -19 -2 -63.5t-2 -49.5q-12 -244 -131 -371t-312 -127q-58 0 -107 7.5t-77.5 18.5t-48.5 22t-28 18l-7 8l53 90q8 -5 24 -13t72.5 -21t120.5 -13q137 0 217 87t90 263q-91 -116 -301 -116 q-167 0 -268.5 80t-101.5 214zM264 1096q0 -94 64 -153.5t186 -59.5q154 0 240 102l-9 10q25 19 25 90q0 118 -61.5 184t-190.5 66q-125 0 -189.5 -68.5t-64.5 -170.5z" />
<glyph unicode="&#x2080;" horiz-adv-x="1163" d="M133 55q0 227 117.5 360.5t331.5 133.5t331 -133.5t117 -360.5q0 -228 -116.5 -360.5t-331.5 -132.5t-332 132.5t-117 360.5zM301 55q0 -184 71.5 -285.5t209.5 -101.5q136 0 208 101.5t72 285.5q0 183 -72 285t-208 102q-137 0 -209 -102t-72 -285z" />
<glyph unicode="&#x2081;" horiz-adv-x="776" d="M129 326q77 14 161.5 79t84.5 117h166v-932h-166v729q-115 -93 -232 -104z" />
<glyph unicode="&#x2082;" horiz-adv-x="966" d="M92 358q3 8 9.5 21t35 45.5t65 58t103 46t146.5 20.5q185 0 276.5 -80t91.5 -211q0 -67 -31 -136.5t-78.5 -127t-113.5 -115.5t-124.5 -99.5t-123.5 -80.5h506v-109h-754v88q12 6 31.5 17.5t77 47.5t109.5 73.5t115.5 91.5t109 106t77 113t31.5 115q0 190 -227 190 q-48 0 -89 -11.5t-65.5 -27.5t-42.5 -32t-25 -27l-7 -12z" />
<glyph unicode="&#x2083;" horiz-adv-x="952" d="M68 -248l86 53q1 -3 3.5 -8t12.5 -19.5t22.5 -27.5t35 -29t48.5 -27.5t63.5 -19.5t80.5 -8q130 0 196 55.5t66 147.5q0 77 -68 127.5t-180 50.5q-83 0 -104 -14l-2 -2l-66 63l324 324h-461v104h643v-67l-326 -314q190 -1 294 -75t104 -199q0 -146 -107 -225.5t-309 -79.5 q-86 0 -154.5 19.5t-104.5 47.5t-59.5 56t-30.5 47z" />
<glyph unicode="&#x2084;" horiz-adv-x="950" d="M113 -100q73 128 145 297.5t111 332.5l143 -8q-74 -302 -244 -622h334v331l49 156h101v-487h120v-99h-120v-211h-150v211h-483z" />
<glyph unicode="&#x2085;" horiz-adv-x="929" d="M51 -250l88 53q2 -5 7 -14.5t25 -32.5t46 -41t73.5 -32.5t104.5 -14.5q132 0 197 60t65 155q0 77 -69.5 131t-190.5 54q-42 0 -77 -7.5t-50.5 -15t-19.5 -12.5l-70 26l56 463h512v-114h-410l-31 -254q55 10 111 10q185 0 292 -77.5t107 -205.5q0 -151 -107.5 -235 t-306.5 -84q-83 0 -149.5 19.5t-102.5 47t-60.5 55t-32.5 46.5z" />
<glyph unicode="&#x2086;" horiz-adv-x="1042" d="M133 -59q0 64 6 112q12 243 128.5 369.5t303.5 126.5q52 0 97 -7t72.5 -16.5t47.5 -19t28 -16.5l9 -7l-30 -98q-10 5 -29 13.5t-75.5 22t-112.5 13.5q-265 0 -291 -330q119 70 284 70q166 0 262.5 -75.5t96.5 -207.5q0 -143 -97.5 -236t-283.5 -93q-196 0 -306 100 t-110 279zM285 -94q0 -114 67 -181t197 -67q63 0 109.5 19t71.5 52.5t36.5 72t11.5 83.5q0 86 -58 142.5t-179 56.5q-149 0 -234 -80l4 -6q-26 -17 -26 -92z" />
<glyph unicode="&#x2087;" horiz-adv-x="819" d="M41 403v119h735v-86q-127 -177 -241 -408.5t-162 -437.5h-170q49 197 155 408.5t238 404.5h-555z" />
<glyph unicode="&#x2088;" horiz-adv-x="1019" d="M113 -170q0 48 21 88.5t57 68.5t75 46.5t86 32.5q-211 59 -211 231q0 116 97 184t272 68q176 0 272.5 -69t96.5 -187q0 -156 -209 -225q45 -11 82.5 -28.5t74.5 -45t58.5 -70.5t21.5 -96q0 -266 -397 -266t-397 268zM268 -162q0 -88 64 -133t178 -45q116 0 180 44.5 t64 133.5q0 38 -15 69t-38 50.5t-54 34t-57.5 21t-55.5 11t-42 5t-21 0.5q-34 -6 -65.5 -17.5t-64.5 -32.5t-53 -57.5t-20 -83.5zM285 287q0 -42 16.5 -75t41 -52t57.5 -32.5t59 -18.5t53 -7q23 2 46.5 6t57 16t58.5 31t43 52.5t18 77.5q0 80 -57.5 123t-167.5 43 q-108 0 -166.5 -43t-58.5 -121z" />
<glyph unicode="&#x2089;" horiz-adv-x="1054" d="M113 207q0 149 111.5 245.5t301.5 96.5q189 0 292.5 -98.5t103.5 -278.5q0 -19 -2 -63.5t-2 -49.5q-12 -244 -131 -370.5t-312 -126.5q-58 0 -107 7.5t-77.5 18t-48.5 21.5t-28 19l-7 7l53 91q8 -5 24 -13t72.5 -21.5t120.5 -13.5q137 0 217 88t90 263 q-96 -117 -301 -117q-167 0 -268.5 80.5t-101.5 214.5zM264 215q0 -94 64 -153.5t186 -59.5q154 0 240 102l-9 11q25 19 25 90q0 118 -61.5 184t-190.5 66q-125 0 -189.5 -69t-64.5 -171z" />
<glyph unicode="&#x20ac;" horiz-adv-x="1366" d="M109 457v121h135q-2 25 -2 77q0 64 2 95l-135 2v120h153q46 232 200.5 359t420.5 127q83 0 155 -17.5t116.5 -43t76.5 -51t45 -42.5l14 -18l-53 -90q-5 5 -14.5 14t-42 31.5t-69.5 40t-96 31.5t-122 14q-385 0 -463 -355h596v-122h-614q-2 -31 -2 -95q0 -52 2 -77h614 v-125h-600q35 -181 147 -267t310 -86q72 0 136 16t104.5 39t71 46t43.5 39l13 16l80 -86q-6 -8 -17.5 -21.5t-54 -48t-94 -60.5t-138.5 -47.5t-185 -21.5q-502 0 -586 482z" />
<glyph unicode="&#x20b4;" horiz-adv-x="1134" d="M145 479v90h250q39 36 125.5 103t124.5 102h-500v90h586q62 79 62 160q0 199 -265 199q-50 0 -95 -8.5t-73 -21t-49 -25t-30 -20.5l-9 -9l-43 90q3 5 10.5 14t35.5 31t63.5 39t97 31t133.5 14q186 0 279.5 -85t93.5 -212q0 -105 -74 -199h140v-88h-224 q-40 -36 -128.5 -103t-127.5 -102h480v-92h-564q-59 -78 -59 -166q0 -205 254 -205q60 0 113 12.5t86.5 30t58.5 34.5t36 29l11 13l55 -100q-4 -6 -11.5 -16.5t-38 -37t-69 -47t-106.5 -37t-147 -16.5q-197 0 -294 79t-97 229q0 106 73 198z" />
<glyph unicode="&#x2116;" horiz-adv-x="2531" d="M227 0v1331h181l778 -1100l-4 48v1052h168v-1331h-185l-778 1098h-4l10 -64v-1034h-166zM1538 1014q0 179 104.5 279t309.5 100q203 0 307 -100t104 -279q0 -178 -106 -278.5t-305 -100.5q-205 0 -309.5 100t-104.5 279zM1677 242v129h543v-129h-543zM1692 1014 q0 -137 64 -211t196 -74t196 74t64 211q0 278 -260 278t-260 -278z" />
<glyph unicode="&#x2122;" horiz-adv-x="1796" d="M137 1440v96h672v-96h-305v-621h-103v621h-264zM858 819l45 717h111l243 -610l279 610h100l25 -717h-98l-21 533l-242 -533h-88l-235 557l-19 -557h-100z" />
<glyph unicode="&#x2153;" horiz-adv-x="1863" d="M129 1206q77 14 161.5 79.5t84.5 117.5h166v-932h-166v729q-115 -93 -232 -104zM512 49l725 1151l106 -59l-725 -1149zM979 -248l86 53q1 -3 3.5 -8t12.5 -19.5t22.5 -27.5t35 -29t48.5 -27.5t63.5 -19.5t80.5 -8q130 0 196 55.5t66 147.5q0 77 -67.5 127.5t-179.5 50.5 q-84 0 -105 -14l-2 -2l-65 63l323 324h-461v104h643v-67l-325 -314q190 -1 293.5 -75t103.5 -199q0 -146 -107 -225.5t-309 -79.5q-86 0 -154.5 19.5t-104.5 47.5t-59.5 56t-30.5 47z" />
<glyph unicode="&#x2154;" horiz-adv-x="1984" d="M92 1239q3 8 9.5 21t35 45.5t65 58t103 46t146.5 20.5q185 0 276.5 -80t91.5 -211q0 -67 -31 -136.5t-78.5 -127.5t-113 -115.5t-125 -99.5t-123.5 -80h506v-109h-754v88q12 6 31.5 17.5t77 47.5t109.5 73t115.5 91.5t109 106t77 112.5t31.5 115q0 191 -227 191 q-48 0 -89 -11.5t-65.5 -27.5t-42.5 -32.5t-25 -27.5l-7 -12zM635 49l725 1151l106 -59l-725 -1149zM1100 -248l86 53q1 -3 3.5 -8t12.5 -19.5t22.5 -27.5t35 -29t48.5 -27.5t63.5 -19.5t80.5 -8q130 0 196 55.5t66 147.5q0 77 -68 127.5t-180 50.5q-83 0 -104 -14l-2 -2 l-66 63l324 324h-461v104h643v-67l-325 -314q190 -1 293.5 -75t103.5 -199q0 -146 -107 -225.5t-309 -79.5q-86 0 -154.5 19.5t-104.5 47.5t-59.5 56t-30.5 47z" />
<glyph unicode="&#x2155;" horiz-adv-x="1841" d="M129 1206q77 14 161.5 79.5t84.5 117.5h166v-932h-166v729q-115 -93 -232 -104zM512 49l725 1151l106 -59l-725 -1149zM963 -250l88 53q2 -5 7 -14.5t25 -32.5t46 -41t73.5 -32.5t104.5 -14.5q132 0 197 60t65 155q0 77 -69.5 131t-190.5 54q-42 0 -77 -7.5t-51 -15 t-20 -12.5l-69 26l55 463h512v-114h-410l-30 -254q55 10 110 10q185 0 292.5 -77.5t107.5 -205.5q0 -151 -107.5 -235t-306.5 -84q-83 0 -149.5 19.5t-102.5 47t-60.5 55t-32.5 46.5z" />
<glyph unicode="&#x2156;" horiz-adv-x="1961" d="M92 1239q3 8 9.5 21t35 45.5t65 58t103 46t146.5 20.5q185 0 276.5 -80t91.5 -211q0 -67 -31 -136.5t-78.5 -127.5t-113 -115.5t-125 -99.5t-123.5 -80h506v-109h-754v88q12 6 31.5 17.5t77 47.5t109.5 73t115.5 91.5t109 106t77 112.5t31.5 115q0 191 -227 191 q-48 0 -89 -11.5t-65.5 -27.5t-42.5 -32.5t-25 -27.5l-7 -12zM635 49l725 1151l106 -59l-725 -1149zM1083 -250l88 53q2 -5 7 -14.5t25 -32.5t46 -41t73.5 -32.5t104.5 -14.5q132 0 197.5 60t65.5 155q0 77 -69.5 131t-190.5 54q-42 0 -77 -7.5t-51 -15t-20 -12.5l-70 26 l56 463h512v-114h-410l-31 -254q55 10 111 10q185 0 292 -77.5t107 -205.5q0 -151 -107 -235t-306 -84q-60 0 -112 10.5t-87 27t-63.5 36.5t-44.5 40t-27 36.5t-15 27.5z" />
<glyph unicode="&#x2157;" horiz-adv-x="1961" d="M68 633l86 53q1 -3 3.5 -8t12.5 -19.5t22.5 -27.5t35 -29t48.5 -27.5t63.5 -19.5t80.5 -8q130 0 196 55.5t66 147.5q0 77 -68 127.5t-180 50.5q-82 0 -104 -15l-2 -2l-66 64l324 323h-461v105h643v-68l-326 -313q190 -1 294 -75t104 -199q0 -146 -107 -226t-309 -80 q-63 0 -116.5 10.5t-88.5 27.5t-63.5 37.5t-44.5 40.5t-26 37t-13 27zM635 49l725 1151l106 -59l-725 -1149zM1083 -250l88 53q2 -5 7 -14.5t25 -32.5t46 -41t73.5 -32.5t104.5 -14.5q132 0 197.5 60t65.5 155q0 77 -69.5 131t-190.5 54q-42 0 -77 -7.5t-51 -15t-20 -12.5 l-70 26l56 463h512v-114h-410l-31 -254q55 10 111 10q185 0 292 -77.5t107 -205.5q0 -151 -107 -235t-306 -84q-60 0 -112 10.5t-87 27t-63.5 36.5t-44.5 40t-27 36.5t-15 27.5z" />
<glyph unicode="&#x2158;" horiz-adv-x="1961" d="M113 780q73 128 145 298t111 333l143 -8q-74 -304 -244 -623h334v332l49 156h101v-488h120v-98h-120v-211h-150v211h-483zM635 49l725 1151l106 -59l-725 -1149zM1083 -250l88 53q2 -5 7 -14.5t25 -32.5t46 -41t73.5 -32.5t104.5 -14.5q132 0 197.5 60t65.5 155 q0 77 -69.5 131t-190.5 54q-42 0 -77 -7.5t-51 -15t-20 -12.5l-70 26l56 463h512v-114h-410l-31 -254q55 10 111 10q185 0 292 -77.5t107 -205.5q0 -151 -107 -235t-306 -84q-60 0 -112 10.5t-87 27t-63.5 36.5t-44.5 40t-27 36.5t-15 27.5z" />
<glyph unicode="&#x215b;" horiz-adv-x="1933" d="M129 1206q77 14 161.5 79.5t84.5 117.5h166v-932h-166v729q-115 -93 -232 -104zM512 49l725 1151l106 -59l-725 -1149zM1024 -170q0 48 21 88.5t57.5 68.5t75.5 46.5t86 32.5q-211 59 -211 231q0 116 97 184t271 68q176 0 272.5 -69t96.5 -187q0 -156 -209 -225 q238 -61 238 -240q0 -266 -398 -266q-397 0 -397 268zM1180 -162q0 -89 64 -133.5t177 -44.5q116 0 180 44.5t64 133.5q0 38 -15 69t-38 50.5t-54 34t-57.5 21t-55.5 11t-42 5t-21 0.5q-27 -5 -51.5 -12.5t-53 -22.5t-49 -35t-34.5 -51.5t-14 -69.5zM1196 287 q0 -42 16.5 -75t41 -52t57.5 -32.5t59 -18.5t53 -7q23 2 46.5 6t57.5 16t59 31t43 52.5t18 77.5q0 80 -58 123t-168 43q-108 0 -166.5 -43t-58.5 -121z" />
<glyph unicode="&#x215c;" horiz-adv-x="2054" d="M68 633l86 53q1 -3 3.5 -8t12.5 -19.5t22.5 -27.5t35 -29t48.5 -27.5t63.5 -19.5t80.5 -8q130 0 196 55.5t66 147.5q0 77 -68 127.5t-180 50.5q-82 0 -104 -15l-2 -2l-66 64l324 323h-461v105h643v-68l-326 -313q190 -1 294 -75t104 -199q0 -146 -107 -226t-309 -80 q-63 0 -116.5 10.5t-88.5 27.5t-63.5 37.5t-44.5 40.5t-26 37t-13 27zM635 49l725 1151l106 -59l-725 -1149zM1145 -170q0 48 21 88.5t57 68.5t75 46.5t86 32.5q-210 59 -210 231q0 116 97 184t271 68q176 0 272.5 -69t96.5 -187q0 -156 -209 -225q45 -11 82.5 -28.5 t74.5 -45t58.5 -70.5t21.5 -96q0 -266 -397 -266t-397 268zM1300 -162q0 -88 64 -133t178 -45q116 0 180 44.5t64 133.5q0 38 -15 69t-38 50.5t-54 34t-57.5 21t-55.5 11t-42 5t-21 0.5q-34 -6 -65.5 -17.5t-64.5 -32.5t-53 -57.5t-20 -83.5zM1317 287q0 -42 16.5 -75 t41 -52t57.5 -32.5t59 -18.5t53 -7q23 2 46.5 6t57 16t58.5 31t43 52.5t18 77.5q0 80 -57.5 123t-167.5 43q-108 0 -166.5 -43t-58.5 -121z" />
<glyph unicode="&#x215d;" horiz-adv-x="2031" d="M51 631l88 53q2 -5 7 -14.5t25 -32.5t46 -41t73.5 -32.5t104.5 -14.5q132 0 197 60t65 155q0 77 -69.5 130.5t-190.5 53.5q-42 0 -77 -7.5t-50.5 -15t-19.5 -12.5l-70 27l56 463h512v-115h-410l-31 -254q55 10 111 10q185 0 292 -77t107 -205q0 -151 -107.5 -235.5 t-306.5 -84.5q-83 0 -149.5 19.5t-102.5 47t-60.5 55.5t-32.5 48zM612 49l725 1151l107 -59l-725 -1149zM1124 -170q0 48 21 88.5t57.5 68.5t75.5 46.5t86 32.5q-211 59 -211 231q0 116 97 184t272 68q176 0 272 -69t96 -187q0 -156 -209 -225q238 -61 238 -240 q0 -266 -397 -266q-398 0 -398 268zM1280 -162q0 -88 64 -133t178 -45q115 0 179 44.5t64 133.5q0 52 -28.5 91t-65 57t-83 29t-69 12.5t-36.5 1.5q-34 -6 -65.5 -17.5t-64.5 -32.5t-53 -57.5t-20 -83.5zM1296 287q0 -52 24 -89.5t63 -56.5t72.5 -27.5t68.5 -11.5 q23 2 46.5 6t57 16t58.5 31t43 52.5t18 77.5q0 80 -57.5 123t-167.5 43q-108 0 -167 -43t-59 -121z" />
<glyph unicode="&#x215e;" horiz-adv-x="1869" d="M41 1284v119h735v-86q-127 -177 -241 -408.5t-162 -437.5h-170q49 197 155 408.5t238 404.5h-555zM449 49l725 1151l106 -59l-725 -1149zM961 -170q0 48 21 88.5t57 68.5t75 46.5t86 32.5q-211 59 -211 231q0 116 97 184t272 68q176 0 272 -69t96 -187q0 -156 -208 -225 q45 -11 82.5 -28.5t74.5 -45t58.5 -70.5t21.5 -96q0 -266 -397 -266t-397 268zM1116 -162q0 -88 64 -133t178 -45q116 0 180 44.5t64 133.5q0 38 -15 69t-38 50.5t-54 34t-57.5 21t-55.5 11t-42 5t-21 0.5q-34 -6 -65.5 -17.5t-64.5 -32.5t-53 -57.5t-20 -83.5zM1133 287 q0 -42 16.5 -75t41 -52t57.5 -32.5t59 -18.5t53 -7q23 2 46.5 6t57 16t58.5 31t43 52.5t18 77.5q0 80 -57.5 123t-167.5 43q-108 0 -166.5 -43t-58.5 -121z" />
<glyph unicode="&#x2191;" horiz-adv-x="1384" d="M205 635l487 485l488 -485l-95 -76l-333 346v-925h-117v925l-336 -346z" />
<glyph unicode="&#x2193;" horiz-adv-x="1462" d="M270 465l95 76l335 -348v927h115v-927l336 348l94 -76l-487 -485z" />
<glyph unicode="&#x2196;" horiz-adv-x="1179" d="M221 952l697 -57l-19 -107l-461 39l631 -639l-92 -86l-635 641l43 -469l-106 -16z" />
<glyph unicode="&#x2197;" horiz-adv-x="1179" d="M111 188l630 639l-460 -39l-19 107l696 57l-55 -694l-106 16l41 469l-635 -641z" />
<glyph unicode="&#x2198;" horiz-adv-x="1179" d="M172 866l92 86l635 -643l-41 471l107 17l55 -695l-696 58l18 106l461 -41z" />
<glyph unicode="&#x2199;" horiz-adv-x="1179" d="M160 102l57 695l107 -17l-43 -471l634 643l93 -86l-631 -641l461 41l18 -106z" />
<glyph unicode="&#x2212;" horiz-adv-x="1116" d="M80 504v129h956v-129h-956z" />
<glyph unicode="&#xe000;" horiz-adv-x="1024" d="M0 0v1024h1024v-1024h-1024z" />
<glyph unicode="&#xfb06;" horiz-adv-x="1648" d="M70 211l100 76q4 -8 11.5 -21t36 -45.5t63.5 -58t95 -46t128 -20.5q127 0 190.5 52t63.5 126q0 51 -34 86.5t-88.5 56t-120 38t-131.5 39t-120.5 51.5t-88.5 84.5t-34 128.5q0 133 104.5 214t286.5 81q28 0 68 -4q-39 73 -39 170q0 61 19.5 116.5t57.5 101t103.5 72.5 t149.5 27h366v-512h314v-133h-314v-580q0 -98 38.5 -150t111.5 -52q37 0 76.5 3t60.5 6l21 3v-121q-68 -29 -209 -29q-132 0 -197 73t-65 239v1151h-199q-114 0 -169.5 -64t-55.5 -174q0 -99 61 -174q44 -15 79 -35t48 -33l14 -12l-38 -108q-5 4 -15 10.5t-42 23.5t-65.5 30 t-82.5 23.5t-97 10.5q-107 0 -167 -43.5t-60 -110.5q0 -40 21 -70.5t57 -51t83 -37t98.5 -31t102.5 -30t98 -38.5t83 -51.5t57 -73t21 -100.5q0 -65 -23 -121t-71 -102.5t-132 -73.5t-196 -27q-74 0 -138 13t-107 34.5t-77.5 47t-55 51t-33.5 47t-18 34.5z" />
<glyph horiz-adv-x="798" d="M385 1130q30 81 53 209t23 220h12l115 2q0 -98 -31.5 -231.5t-69.5 -213.5z" />
<glyph horiz-adv-x="487" d="M43 -543q67 55 101.5 128.5t35.5 183.5h-51v133h150q8 -60 8 -127q0 -271 -178 -369z" />
<glyph horiz-adv-x="1394" d="M133 510q0 122 35 221t104 171t177.5 111.5t248.5 39.5q276 0 420 -146.5t144 -396.5t-143.5 -394.5t-420.5 -144.5q-278 0 -421.5 144.5t-143.5 394.5zM301 510q0 -188 99.5 -297t297.5 -109q195 0 295.5 109t100.5 297q0 187 -100.5 298.5t-295.5 111.5t-296 -111.5 t-101 -298.5z" />
<glyph horiz-adv-x="876" d="M129 784q63 13 140 48t139.5 86t68.5 98v8h164v-1024h-164v809q-68 -54 -158 -93.5t-174 -51.5z" />
<glyph horiz-adv-x="1136" d="M94 0v139q12 4 47.5 18t98.5 43.5t129.5 65.5t137 85.5t125.5 102t90.5 117t35.5 127.5q0 105 -66.5 159t-212.5 54q-52 0 -100 -15t-79.5 -36.5t-55 -43.5t-34.5 -37l-11 -15l-105 84q2 4 6 11.5t20.5 29t36.5 40.5t54.5 43t74.5 41t97 28.5t121 11.5q116 0 202 -26 t135.5 -72t73 -103t23.5 -125q0 -72 -32.5 -145.5t-82.5 -133.5t-120.5 -120t-136 -104t-138.5 -85h596v-139h-930z" />
<glyph horiz-adv-x="1110" d="M43 -94l98 80q3 -8 10 -20t34.5 -44t62.5 -56.5t98 -44.5t137 -20q176 0 261 77t85 216q0 118 -85 190t-238 72q-67 0 -119 -26l-76 82l414 475h-610v137h819v-96l-410 -449q223 -1 348 -106.5t125 -282.5q0 -202 -136 -314t-372 -112q-75 0 -140 13.5t-109 34.5t-80 47 t-57 52t-35.5 47t-19.5 34z" />
<glyph horiz-adv-x="1155" d="M70 113q138 178 265 434t169 489l155 -12q-40 -227 -151.5 -460.5t-249.5 -434.5h502v496l20 204h144v-700h174v-129h-174v-307h-164v307h-680z" />
<glyph horiz-adv-x="1097" d="M39 -102l98 88q4 -8 11 -20t35.5 -44t64 -56.5t97.5 -44.5t134 -20q168 0 253 85t85 225q0 119 -91.5 198.5t-244.5 79.5q-57 0 -105.5 -11t-69.5 -22t-27 -18l-89 12l68 674h651v-137h-520l-43 -393q77 18 152 18q225 0 356 -110.5t131 -295.5q0 -210 -132.5 -326 t-367.5 -116q-75 0 -140 13t-109 33.5t-80 45.5t-57 50t-35.5 45.5t-19.5 33.5z" />
<glyph horiz-adv-x="1236" d="M133 512q0 104 8 150q23 349 156.5 522.5t361.5 173.5q64 0 120.5 -9.5t91 -23.5t60 -28t35.5 -23l11 -10l-57 -107q-15 8 -41 19.5t-93 31t-118 19.5q-165 0 -262.5 -127t-114.5 -373q156 121 360 121q219 0 346 -114.5t127 -303.5q0 -94 -30 -176t-88.5 -145.5 t-152 -100.5t-212.5 -37q-243 0 -375.5 141.5t-132.5 399.5zM301 465q0 -174 85.5 -272.5t254.5 -98.5q83 0 146 29.5t98.5 79.5t53 107.5t17.5 121.5q0 58 -19.5 110.5t-58 96t-102.5 69t-145 25.5q-69 0 -127.5 -17t-96 -44.5t-59 -50.5t-35.5 -46q-12 -50 -12 -110z" />
<glyph horiz-adv-x="1003" d="M41 881v143h920v-135q-166 -264 -308 -585t-202 -611h-189q62 290 196.5 601t301.5 587h-719z" />
<glyph horiz-adv-x="1198" d="M113 344q0 67 24.5 124t67.5 97t90 67.5t102 47.5q-254 88 -254 330q0 161 123.5 254.5t331.5 93.5q210 0 333.5 -94.5t123.5 -259.5q0 -67 -23 -122t-63 -93t-83.5 -63.5t-94.5 -43.5q294 -89 294 -344q0 -186 -128.5 -276.5t-358.5 -90.5q-229 0 -357 91.5t-128 281.5z M285 350q0 -130 84 -197t229 -67q146 0 231.5 67.5t85.5 194.5q0 61 -25 110t-60 77t-82.5 48.5t-83.5 28t-72 11.5q-32 -4 -66 -12t-79.5 -28t-79.5 -48.5t-58 -76.5t-24 -108zM307 999q0 -61 22.5 -109t55 -75.5t76 -46t76.5 -25.5t67 -10q31 3 62 10t73.5 26t74.5 46 t54.5 74.5t22.5 107.5q0 116 -77 181t-216 65q-137 0 -214 -65.5t-77 -178.5z" />
<glyph horiz-adv-x="1236" d="M113 573q0 94 33 179t93.5 153t156.5 108t214 40q242 0 368 -140.5t126 -400.5q0 -105 -6 -174q-17 -331 -156 -501.5t-375 -170.5q-76 0 -141.5 14t-105 33.5t-68 39.5t-40.5 34l-11 14l84 107q4 -5 11 -12t32.5 -26.5t55 -34t79 -26.5t104.5 -12q168 0 266.5 129 t110.5 367q-126 -141 -358 -141q-220 0 -346.5 115.5t-126.5 305.5zM281 580q0 -58 19.5 -112.5t58 -100.5t102.5 -73.5t145 -27.5q67 0 124 16t95 42t60 46.5t37 41.5q14 58 14 147q0 371 -326 371q-82 0 -147.5 -31.5t-103.5 -83t-58 -112t-20 -123.5z" />
<glyph horiz-adv-x="1003" d="M70 211l100 76q4 -8 11.5 -21t36 -45.5t63.5 -58t95 -46t128 -20.5q127 0 190.5 52t63.5 126q0 51 -34 86.5t-88.5 56t-120 38t-131.5 39t-120.5 51.5t-88.5 84.5t-34 128.5q0 113 78 190t217 99l2 249h127l6 -245q60 -3 113 -15t85.5 -27.5t57 -30.5t35.5 -26l10 -10 l-38 -108q-5 4 -15 10.5t-42 23.5t-65.5 30t-82.5 23.5t-97 10.5q-107 0 -167 -43.5t-60 -110.5q0 -40 21 -70.5t57 -51t83 -37t98.5 -31t102.5 -30t98 -38.5t83 -51.5t57 -73t21 -100.5q0 -126 -86.5 -215t-266.5 -105v-215h-127l-8 215q-86 7 -155.5 34t-107.5 60 t-63.5 65.5t-33.5 54.5z" />
<glyph horiz-adv-x="1011" d="M86 504q0 243 109 384.5t327 162.5v241h129l6 -239q59 -4 111.5 -18.5t85 -31.5t56.5 -33t34 -27l10 -11l-51 -103q-4 4 -12.5 11t-36 24.5t-58 30.5t-78.5 24t-97 11q-187 0 -276 -104t-89 -320q0 -210 92 -309t258 -99q53 0 102.5 12.5t82.5 31t58.5 36.5t37.5 30 l12 13l86 -63q-3 -6 -10 -17t-33.5 -39t-60.5 -51t-93.5 -45t-128.5 -29v-221h-129l-8 221q-214 17 -325 149.5t-111 377.5z" />
<glyph horiz-adv-x="1126" d="M109 0v123h176q45 55 45 178q0 24 -2.5 73.5t-3.5 63.5h-215v117h206v94q0 87 22.5 158t69.5 127.5t128.5 87.5t191.5 31q63 0 118 -11t89 -27.5t59 -32.5t35 -27l10 -11l-39 -117q-4 3 -11.5 9t-32 20.5t-51 25.5t-67 20t-81.5 9q-141 0 -209 -73t-68 -193q0 -61 2 -90 h463v-117h-457l4 -60t3 -67q0 -120 -37 -188h620v-123h-968z" />
<glyph horiz-adv-x="1107" d="M23 1024h174l356 -504l358 504h174l-436 -602h318v-127h-330v-295h-166v295h-371v127h357z" />
<glyph horiz-adv-x="1167" d="M74 453v116h123q15 233 143.5 358.5t366.5 125.5q71 0 133 -12t100 -28.5t65.5 -33.5t38.5 -29l11 -12l-45 -102q-4 4 -12.5 10t-36 22t-58 28t-78 22t-96.5 10q-179 0 -269 -88t-102 -271h691v-116h-693q22 -357 359 -357q53 0 102.5 12t82.5 28.5t58.5 33.5t37.5 29 l12 12l86 -88q-4 -6 -13.5 -16.5t-43.5 -36.5t-75.5 -46t-112.5 -36.5t-151 -16.5q-234 0 -362.5 121.5t-140.5 360.5h-121z" />
<glyph horiz-adv-x="1032" d="M113 457v114h430q30 10 56.5 24.5t54.5 37t44.5 56.5t16.5 75q0 77 -60.5 120.5t-175.5 43.5q-46 0 -90.5 -9.5t-74.5 -23.5t-53.5 -28t-34.5 -23l-11 -10l-43 108q4 5 12.5 12t39 26.5t66.5 34t96 26.5t126 12q169 0 260.5 -70.5t91.5 -187.5q0 -128 -119 -224h162v-114 h-418q-26 -9 -50.5 -22.5t-52.5 -35.5t-45 -56.5t-17 -74.5q0 -82 65 -126t180 -44q58 0 108 14t79.5 33.5t51 39.5t30.5 34l8 14l80 -75q-2 -4 -5 -10.5t-17 -26t-31.5 -37.5t-49 -39.5t-69 -37t-93 -26t-118.5 -10.5q-177 0 -273 70t-96 192q0 126 117 224h-178z" />
<glyph horiz-adv-x="2408" d="M227 0v1024h181l636 -813l-2 31v782h160v-1024h-182l-639 817h-4l8 -49v-768h-158zM1415 768q0 179 104.5 279t309.5 100q203 0 307.5 -100t104.5 -279q0 -178 -106.5 -278.5t-305.5 -100.5q-205 0 -309.5 100t-104.5 279zM1554 -2v129h543v-129h-543zM1569 768 q0 -137 64 -211t196 -74t196 74t64 211q0 279 -260 279t-260 -279z" />
<glyph horiz-adv-x="1736" d="M86 502q0 264 129.5 407.5t384.5 143.5q48 0 88 -6q-39 70 -39 172q0 61 19.5 116.5t57.5 101t103.5 72.5t149.5 27h367v-512h313v-133h-313v-580q0 -99 38 -150.5t111 -51.5q37 0 76.5 3t60.5 6l21 3v-121q-68 -29 -209 -29q-132 0 -197 73t-65 239v1151h-199 q-114 0 -169.5 -64t-55.5 -174q0 -117 76 -186q37 -16 67 -36t41 -32l12 -12l-51 -103q-4 4 -12.5 11t-36 24.5t-58 30.5t-78.5 24t-97 11q-187 0 -276 -104t-89 -320q0 -210 92 -309t258 -99q53 0 102.5 12.5t82.5 31t58.5 36.5t37.5 30l12 13l86 -63q-4 -8 -11.5 -20 t-39.5 -44t-72.5 -56.5t-112.5 -44.5t-157 -20q-247 0 -376.5 134t-129.5 397z" />
<glyph horiz-adv-x="1226" d="M86 483q0 260 128.5 415t369.5 155q194 0 307 -135l14 106h148v-1024h-148l-14 141q-12 -23 -31.5 -46t-58 -54t-101.5 -50.5t-141 -19.5q-214 0 -343.5 137t-129.5 375zM256 487q0 -391 350 -391q58 0 108 19t79.5 43.5t53 56.5t31 47t11.5 27v483q-3 6 -8.5 16.5 t-27.5 37.5t-49.5 47.5t-74.5 37.5t-102 17q-190 0 -280.5 -114.5t-90.5 -326.5z" />
<glyph horiz-adv-x="1226" d="M86 483q0 260 128.5 415t369.5 155q194 0 307 -135l14 106h148v-1024h-148l-14 141q-12 -23 -31.5 -46t-58 -54t-101.5 -50.5t-141 -19.5q-214 0 -343.5 137t-129.5 375zM256 487q0 -391 350 -391q58 0 108 19t79.5 43.5t53 56.5t31 47t11.5 27v483q-3 6 -8.5 16.5 t-27.5 37.5t-49.5 47.5t-74.5 37.5t-102 17q-190 0 -280.5 -114.5t-90.5 -326.5zM440 1413q0 93 60.5 153t150.5 60q87 0 147 -60t60 -153q0 -94 -58.5 -152.5t-148.5 -58.5q-94 0 -152.5 58t-58.5 153zM520 1413q0 -61 37.5 -99t93.5 -38q55 0 92 38t37 99t-37.5 99 t-91.5 38q-57 0 -94 -37.5t-37 -99.5z" />
<glyph horiz-adv-x="1226" d="M86 483q0 260 128.5 415t369.5 155q194 0 307 -135l14 106h148v-1024h-148l-14 141q-12 -23 -31.5 -46t-58 -54t-101.5 -50.5t-141 -19.5q-214 0 -343.5 137t-129.5 375zM256 487q0 -391 350 -391q58 0 108 19t79.5 43.5t53 56.5t31 47t11.5 27v483q-3 6 -8.5 16.5 t-27.5 37.5t-49.5 47.5t-74.5 37.5t-102 17q-190 0 -280.5 -114.5t-90.5 -326.5zM375 1456l157 17l199 -293l-121 -9z" />
<glyph horiz-adv-x="1226" d="M86 483q0 260 128.5 415t369.5 155q194 0 307 -135l14 106h148v-1024h-148l-14 141q-12 -23 -31.5 -46t-58 -54t-101.5 -50.5t-141 -19.5q-214 0 -343.5 137t-129.5 375zM256 487q0 -391 350 -391q58 0 108 19t79.5 43.5t53 56.5t31 47t11.5 27v483q-3 6 -8.5 16.5 t-27.5 37.5t-49.5 47.5t-74.5 37.5t-102 17q-190 0 -280.5 -114.5t-90.5 -326.5zM395 1249v142h146v-142h-146zM760 1249v142h145v-142h-145z" />
<glyph horiz-adv-x="1226" d="M86 483q0 260 128.5 415t369.5 155q194 0 307 -135l14 106h148v-1024h-4q-9 -4 -23 -11t-51 -32t-65 -53.5t-51 -75t-23 -96.5q0 -156 260 -156v-88q-379 0 -379 240q0 155 192 272h-4l-14 141q-12 -23 -31.5 -46t-58 -54t-101.5 -50.5t-141 -19.5q-214 0 -343.5 137 t-129.5 375zM256 487q0 -391 350 -391q58 0 108 19t79.5 43.5t53 56.5t31 47t11.5 27v483q-3 6 -8.5 16.5t-27.5 37.5t-49.5 47.5t-74.5 37.5t-102 17q-190 0 -280.5 -114.5t-90.5 -326.5z" />
<glyph horiz-adv-x="1226" d="M86 483q0 260 128.5 415t369.5 155q194 0 307 -135l14 106h148v-1024h-148l-14 141q-12 -23 -31.5 -46t-58 -54t-101.5 -50.5t-141 -19.5q-214 0 -343.5 137t-129.5 375zM256 487q0 -391 350 -391q58 0 108 19t79.5 43.5t53 56.5t31 47t11.5 27v483q-3 6 -8.5 16.5 t-27.5 37.5t-49.5 47.5t-74.5 37.5t-102 17q-190 0 -280.5 -114.5t-90.5 -326.5zM295 1389l131 20l8 2q2 -5 5.5 -13t20 -29t38.5 -37t63 -29t90 -13t89 12.5t62.5 30t37.5 35.5t20 30l6 13l11 -2l131 -20q-1 -4 -3.5 -11.5t-13 -29.5t-25.5 -41.5t-44 -44t-64 -41.5 t-89.5 -29t-117.5 -12q-87 0 -155.5 21.5t-104.5 52t-59.5 61.5t-29.5 53z" />
<glyph horiz-adv-x="1226" d="M86 483q0 260 128.5 415t369.5 155q194 0 307 -135l14 106h148v-1024h-148l-14 141q-12 -23 -31.5 -46t-58 -54t-101.5 -50.5t-141 -19.5q-214 0 -343.5 137t-129.5 375zM256 487q0 -391 350 -391q58 0 108 19t79.5 43.5t53 56.5t31 47t11.5 27v483q-3 6 -8.5 16.5 t-27.5 37.5t-49.5 47.5t-74.5 37.5t-102 17q-190 0 -280.5 -114.5t-90.5 -326.5zM561 1180l199 293l158 -17l-236 -285z" />
<glyph horiz-adv-x="1226" d="M86 483q0 260 128.5 415t369.5 155q194 0 307 -135l14 106h148v-1024h-148l-14 141q-12 -23 -31.5 -46t-58 -54t-101.5 -50.5t-141 -19.5q-214 0 -343.5 137t-129.5 375zM256 487q0 -391 350 -391q58 0 108 19t79.5 43.5t53 56.5t31 47t11.5 27v483q-3 6 -8.5 16.5 t-27.5 37.5t-49.5 47.5t-74.5 37.5t-102 17q-190 0 -280.5 -114.5t-90.5 -326.5zM424 1294v90h440v-90h-440z" />
<glyph horiz-adv-x="1226" d="M86 483q0 260 128.5 415t369.5 155q194 0 307 -135l14 106h148v-1024h-148l-14 141q-12 -23 -31.5 -46t-58 -54t-101.5 -50.5t-141 -19.5q-214 0 -343.5 137t-129.5 375zM256 487q0 -391 350 -391q58 0 108 19t79.5 43.5t53 56.5t31 47t11.5 27v483q-3 6 -8.5 16.5 t-27.5 37.5t-49.5 47.5t-74.5 37.5t-102 17q-190 0 -280.5 -114.5t-90.5 -326.5zM328 1319l276 203h92l275 -203l-56 -102l-266 194l-266 -194z" />
<glyph horiz-adv-x="1226" d="M86 483q0 260 128.5 415t369.5 155q194 0 307 -135l14 106h148v-1024h-148l-14 141q-12 -23 -31.5 -46t-58 -54t-101.5 -50.5t-141 -19.5q-214 0 -343.5 137t-129.5 375zM256 487q0 -391 350 -391q58 0 108 19t79.5 43.5t53 56.5t31 47t11.5 27v483q-3 6 -8.5 16.5 t-27.5 37.5t-49.5 47.5t-74.5 37.5t-102 17q-190 0 -280.5 -114.5t-90.5 -326.5zM276 1329q3 5 8 12t23.5 26.5t40.5 34t59 26.5t78 12q51 0 105.5 -16.5t93 -36t87 -36t89.5 -16.5q40 0 74 12.5t48 24.5l15 12l35 -81q-2 -4 -5.5 -10t-18.5 -22t-34 -28.5t-52 -22.5 t-72 -10q-46 0 -99 16t-92 34.5t-89.5 34.5t-92.5 16q-44 0 -85 -18.5t-60 -36.5l-19 -19z" />
<glyph horiz-adv-x="1226" d="M84 -344l86 98q4 -7 11.5 -18t38.5 -39t69 -50t105.5 -39.5t146.5 -17.5q178 0 263 91.5t85 293.5v125q-4 -5 -11 -14t-35 -31t-61 -39t-89 -31t-120 -14q-235 0 -361 146.5t-126 402.5q0 241 130.5 387t342.5 146q62 0 115.5 -14t87.5 -32.5t63 -45t42 -44t24 -36.5 l14 143h148v-1069q0 -107 -25 -191.5t-70 -141t-110 -93.5t-141 -53.5t-168 -16.5q-78 0 -145 11t-112 28t-81.5 38.5t-57.5 42.5t-35 38t-19 28zM256 524q0 -428 371 -428q50 0 94.5 13.5t71 29.5t50.5 39.5t31.5 34.5t14.5 23v497q-3 8 -8.5 21t-28.5 46.5t-52 59.5 t-81 47t-113 21q-168 0 -259 -104t-91 -300z" />
<glyph horiz-adv-x="1226" d="M84 -344l86 98q4 -7 11.5 -18t38.5 -39t69 -50t105.5 -39.5t146.5 -17.5q178 0 263 91.5t85 293.5v125q-4 -5 -11 -14t-35 -31t-61 -39t-89 -31t-120 -14q-235 0 -361 146.5t-126 402.5q0 241 130.5 387t342.5 146q62 0 115.5 -14t87.5 -32.5t63 -45t42 -44t24 -36.5 l14 143h148v-1069q0 -107 -25 -191.5t-70 -141t-110 -93.5t-141 -53.5t-168 -16.5q-78 0 -145 11t-112 28t-81.5 38.5t-57.5 42.5t-35 38t-19 28zM256 524q0 -428 371 -428q50 0 94.5 13.5t71 29.5t50.5 39.5t31.5 34.5t14.5 23v497q-3 8 -8.5 21t-28.5 46.5t-52 59.5 t-81 47t-113 21q-168 0 -259 -104t-91 -300zM485 1311q0 270 179 368l65 -51q-68 -55 -102 -128t-35 -183h51v-133h-149q-9 68 -9 127z" />
<glyph horiz-adv-x="1226" d="M84 -344l86 98q4 -7 11.5 -18t38.5 -39t69 -50t105.5 -39.5t146.5 -17.5q178 0 263 91.5t85 293.5v125q-4 -5 -11 -14t-35 -31t-61 -39t-89 -31t-120 -14q-235 0 -361 146.5t-126 402.5q0 241 130.5 387t342.5 146q62 0 115.5 -14t87.5 -32.5t63 -45t42 -44t24 -36.5 l14 143h148v-1069q0 -107 -25 -191.5t-70 -141t-110 -93.5t-141 -53.5t-168 -16.5q-78 0 -145 11t-112 28t-81.5 38.5t-57.5 42.5t-35 38t-19 28zM256 524q0 -428 371 -428q50 0 94.5 13.5t71 29.5t50.5 39.5t31.5 34.5t14.5 23v497q-3 8 -8.5 21t-28.5 46.5t-52 59.5 t-81 47t-113 21q-168 0 -259 -104t-91 -300zM305 1389l131 20l8 2q2 -5 5.5 -13t20.5 -29t39 -37t63 -29t90 -13t89 12.5t62.5 30t37.5 35.5t21 30l5 13l10 -2l131 -20q-1 -4 -3.5 -11.5t-13 -29.5t-25.5 -41.5t-43.5 -44t-63.5 -41.5t-89.5 -29t-117.5 -12t-117 11.5 t-90 30t-64 40.5t-43.5 44.5t-26 41t-13.5 30.5z" />
<glyph d="M70 -344l86 98q4 -7 11.5 -18t38 -39t68.5 -50t105.5 -39.5t146.5 -17.5q178 0 263 91.5t85 293.5v127q-12 -17 -32 -35t-59 -42t-102.5 -39t-141.5 -15q-175 0 -278 87.5t-103 250.5v715h166v-684q0 -106 72.5 -164.5t197.5 -58.5q58 0 108 12.5t80.5 30.5t52 35.5 t30.5 30.5l9 12v786h164v-1069q0 -133 -38 -230.5t-108 -154.5t-161 -84t-205 -27q-78 0 -145 11t-112.5 28t-82 38.5t-57.5 42.5t-35 38t-19 28z" />
<glyph d="M70 -344l86 98q4 -7 11.5 -18t38 -39t68.5 -50t105.5 -39.5t146.5 -17.5q178 0 263 91.5t85 293.5v127q-12 -17 -32 -35t-59 -42t-102.5 -39t-141.5 -15q-175 0 -278 87.5t-103 250.5v715h166v-684q0 -106 72.5 -164.5t197.5 -58.5q58 0 108 12.5t80.5 30.5t52 35.5 t30.5 30.5l9 12v786h164v-1069q0 -133 -38 -230.5t-108 -154.5t-161 -84t-205 -27q-78 0 -145 11t-112.5 28t-82 38.5t-57.5 42.5t-35 38t-19 28zM526 1180l199 293l158 -17l-236 -285z" />
<glyph d="M70 -344l86 98q4 -7 11.5 -18t38 -39t68.5 -50t105.5 -39.5t146.5 -17.5q178 0 263 91.5t85 293.5v127q-12 -17 -32 -35t-59 -42t-102.5 -39t-141.5 -15q-175 0 -278 87.5t-103 250.5v715h166v-684q0 -106 72.5 -164.5t197.5 -58.5q58 0 108 12.5t80.5 30.5t52 35.5 t30.5 30.5l9 12v786h164v-1069q0 -133 -38 -230.5t-108 -154.5t-161 -84t-205 -27q-78 0 -145 11t-112.5 28t-82 38.5t-57.5 42.5t-35 38t-19 28zM358 1249v142h146v-142h-146zM723 1249v142h145v-142h-145z" />
<glyph horiz-adv-x="1226" d="M86 483q0 260 128.5 415t369.5 155q194 0 307 -135l14 106h148v-1024h-148l-14 141q-12 -23 -31.5 -46t-58 -54t-101.5 -50.5t-141 -19.5q-214 0 -343.5 137t-129.5 375zM256 487q0 -391 350 -391q58 0 108 19t79.5 43.5t53 56.5t31 47t11.5 27v483q-3 6 -8.5 16.5 t-27.5 37.5t-49.5 47.5t-74.5 37.5t-102 17q-190 0 -280.5 -114.5t-90.5 -326.5z" />
<glyph horiz-adv-x="1193" d="M86 512q0 174 63 298t185 187q-176 88 -176 277q0 131 109 205.5t276 74.5q70 0 158.5 -15t136.5 -15q44 0 82 7.5t54 14.5l15 8l47 -104q-6 -6 -18 -15t-55 -24.5t-93 -15.5q-61 0 -149 15t-146 15q-110 0 -184 -44t-74 -138q0 -91 65 -137.5t165 -54.5q8 0 24 1t25 1 q249 0 379.5 -143t130.5 -398q0 -253 -132.5 -397t-377.5 -144q-248 0 -379 143t-131 398zM256 512q0 -198 84 -307t256 -109q174 0 258 109t84 307q0 197 -84.5 306.5t-257.5 109.5q-172 0 -256 -109.5t-84 -306.5z" />
<glyph horiz-adv-x="1226" d="M84 -344l86 98q4 -7 11.5 -18t38.5 -39t69 -50t105.5 -39.5t146.5 -17.5q178 0 263 91.5t85 293.5v125q-4 -5 -11 -14t-35 -31t-61 -39t-89 -31t-120 -14q-235 0 -361 146.5t-126 402.5q0 241 130.5 387t342.5 146q62 0 115.5 -14t87.5 -32.5t63 -45t42 -44t24 -36.5 l14 143h148v-1069q0 -107 -25 -191.5t-70 -141t-110 -93.5t-141 -53.5t-168 -16.5q-78 0 -145 11t-112 28t-81.5 38.5t-57.5 42.5t-35 38t-19 28zM256 524q0 -428 371 -428q50 0 94.5 13.5t71 29.5t50.5 39.5t31.5 34.5t14.5 23v497q-3 8 -8.5 21t-28.5 46.5t-52 59.5 t-81 47t-113 21q-168 0 -259 -104t-91 -300z" />
<glyph d="M70 -344l86 98q4 -7 11.5 -18t38 -39t68.5 -50t105.5 -39.5t146.5 -17.5q178 0 263 91.5t85 293.5v127q-12 -17 -32 -35t-59 -42t-102.5 -39t-141.5 -15q-175 0 -278 87.5t-103 250.5v715h166v-684q0 -106 72.5 -164.5t197.5 -58.5q58 0 108 12.5t80.5 30.5t52 35.5 t30.5 30.5l9 12v786h164v-1069q0 -133 -38 -230.5t-108 -154.5t-161 -84t-205 -27q-78 0 -145 11t-112.5 28t-82 38.5t-57.5 42.5t-35 38t-19 28z" />
<glyph d="M70 -344l86 98q4 -7 11.5 -18t38 -39t68.5 -50t105.5 -39.5t146.5 -17.5q178 0 263 91.5t85 293.5v127q-12 -17 -32 -35t-59 -42t-102.5 -39t-141.5 -15q-175 0 -278 87.5t-103 250.5v715h166v-684q0 -106 72.5 -164.5t197.5 -58.5q58 0 108 12.5t80.5 30.5t52 35.5 t30.5 30.5l9 12v786h164v-1069q0 -133 -38 -230.5t-108 -154.5t-161 -84t-205 -27q-78 0 -145 11t-112.5 28t-82 38.5t-57.5 42.5t-35 38t-19 28zM260 1389l131 20l8 2q2 -5 5.5 -13t20 -29t38.5 -37t63 -29t90 -13t89 12.5t62.5 30t37.5 35.5t21 30l5 13l11 -2l131 -20 q-1 -4 -3.5 -11.5t-13 -29.5t-25.5 -41.5t-44 -44t-64 -41.5t-89.5 -29t-117.5 -12q-87 0 -155.5 21.5t-104.5 52t-59.5 61.5t-30.5 53z" />
<glyph horiz-adv-x="1376" d="M113 655q0 319 185 511t501 192q68 0 131 -11.5t109.5 -30t87 -41.5t67 -45.5t46 -41t28.5 -30.5l8 -11l-57 -103q-8 7 -22 18t-58.5 40t-90 51.5t-111.5 40.5t-128 18q-225 0 -359.5 -128t-154.5 -353h768v-131h-770q15 -227 150.5 -355t355.5 -128q84 0 162.5 21.5 t130.5 52.5t91.5 61.5t58.5 51.5l18 22l67 -115q-6 -10 -18 -26t-58.5 -57.5t-102 -73t-151.5 -57.5t-204 -26q-321 0 -500.5 183t-179.5 501z" />
<glyph horiz-adv-x="1437" d="M33 1174l133 385l108 -33l-157 -377zM174 655q0 319 185 511t501 192q68 0 131 -11.5t109.5 -30t87 -41.5t67 -45.5t46 -41t27.5 -30.5l9 -11l-57 -103q-8 7 -22 18t-58.5 40t-90 51.5t-111.5 40.5t-128 18q-225 0 -359.5 -128t-154.5 -353h768v-131h-770 q15 -227 150.5 -355t355.5 -128q84 0 162.5 21.5t130.5 52.5t91.5 61.5t57.5 51.5l19 22l68 -115q-6 -10 -18.5 -26t-58.5 -57.5t-102 -73t-152 -57.5t-204 -26q-321 0 -500.5 183t-179.5 501z" />
<glyph horiz-adv-x="1032" d="M86 504q0 259 130 404t384 145q64 0 123 -11t97.5 -27t68.5 -31.5t43 -26.5l14 -11l-43 -104q-4 3 -12.5 8.5t-36 20t-58 25t-78.5 19.5t-97 9q-177 0 -263 -82t-100 -264h512v-132h-512q12 -186 100.5 -267t253.5 -81q57 0 108 12t84 28.5t57.5 33.5t34.5 29l11 12 l78 -90q-4 -6 -12.5 -16.5t-41 -36.5t-73.5 -46t-112 -36.5t-154 -16.5q-246 0 -376 134.5t-130 398.5z" />
<glyph horiz-adv-x="1032" d="M86 504q0 259 130 404t384 145q64 0 123 -11t97.5 -27t68.5 -31.5t43 -26.5l14 -11l-43 -104q-4 3 -12.5 8.5t-36 20t-58 25t-78.5 19.5t-97 9q-177 0 -263 -82t-100 -264h512v-132h-512q12 -186 100.5 -267t253.5 -81q57 0 108 12t84 28.5t57.5 33.5t34.5 29l11 12 l78 -90q-4 -6 -12.5 -16.5t-41 -36.5t-73.5 -46t-112 -36.5t-154 -16.5q-246 0 -376 134.5t-130 398.5zM541 1174l133 385l108 -33l-157 -377z" />
<glyph horiz-adv-x="3817" d="M197 655q44 4 89.5 40t93.5 113.5t82 137t83 176t66 160t60 155.5q4 10 6 15.5t5.5 13.5t5.5 15h-10q-73 0 -143.5 -27t-117 -77.5t-46.5 -110.5q0 -56 41 -111l-62 -27q-43 64 -43 127q0 77 55 144.5t141.5 106t178.5 38.5q65 0 110 -13t69.5 -38.5t36 -47.5t20.5 -56 l112 -408q26 -84 49 -84q10 0 25.5 3.5t25.5 7.5l11 3v-49q-74 -24 -121 -24q-27 0 -44.5 26t-33.5 84l-18 66h-349q-196 -416 -372 -426zM436 381q0 123 102.5 204t307.5 81q60 0 131 -9q81 -8 164 -8q281 0 303 131l63 -8q-5 -36 -25 -68t-60 -61.5t-112.5 -47 t-170.5 -17.5q-53 0 -115 6v-455q0 -80 6 -80l66 10v-57q-94 -20 -135 -20q-29 0 -29 147v463q-27 2 -78 2q-348 0 -348 -217zM600 1071h309l-75 291q-10 32 -15 45.5t-21.5 33t-41.5 27.5q-89 -249 -156 -397zM1106 -236l12 72q41 -10 92 -10q97 0 172 45.5t125 120.5 q-8 24 -17 49.5t-27.5 76.5t-38 93t-42 84.5t-45 67t-41.5 24.5q-27 0 -69.5 -13.5t-71.5 -26.5l-29 -13l-12 49q4 3 11.5 8.5t31.5 19.5t48.5 24.5t61 19t70.5 8.5q33 0 68.5 -44t65.5 -113.5t51 -131.5t37 -121q48 80 96.5 233t66.5 232l84 -12q-13 -63 -82 -244.5 t-133 -286.5q-66 -105 -163.5 -164t-215.5 -59q-50 0 -106 12zM1137 1335l12 56q21 -8 80.5 -15.5t75.5 -11.5q25 -7 33 -26.5t8 -59.5v-72q3 11 15.5 33.5t36.5 54t65.5 54t90.5 22.5q162 0 162 -190q0 -27 -2 -104.5t-2 -121.5q0 -61 25 -61l47 10v-43q-49 -22 -84 -22 q-40 0 -56 23t-16 83l2 232q0 118 -108 118q-35 0 -68 -17t-55.5 -41.5t-35 -41.5t-17.5 -27q-3 -159 -3 -321l-86 -4v426q0 34 -10 39q-6 3 -48 11t-62 17zM1853 453l2 49q100 6 123 6t23 -57v-60q3 9 13.5 25.5t32.5 41t60.5 41.5t85.5 17q99 0 160.5 -71.5t61.5 -188.5 q0 -125 -82.5 -205t-229.5 -80q-43 0 -106 13v-248l-86 -4q0 112 1 339t1 341q0 37 -4 37zM1884 1079q0 125 84.5 209t231.5 84q60 0 122 -16q29 153 99 258l71 -45q-65 -96 -85.5 -209t-20.5 -268v-138q0 -36 4 -48.5t16 -12.5l48 10v-43q-47 -22 -84 -22q-40 0 -55 23 t-15 83v12h-2q-2 -5 -6.5 -14t-21.5 -31t-37 -39t-54.5 -31t-73.5 -14q-99 0 -160 68t-61 184zM1974 1092q0 -90 45.5 -140.5t120.5 -50.5q86 0 160 98q0 166 14 289q-69 25 -125 25q-99 0 -157 -62.5t-58 -158.5zM1997 53q61 -22 119 -22q100 0 154 59t54 154 q0 91 -46 144.5t-119 53.5q-40 0 -77.5 -21t-54.5 -39t-26 -32q0 -101 -4 -297zM2503 223q0 136 80 227t204 91q76 0 135.5 -37t59.5 -103q0 -83 -62 -127.5t-145 -44.5v-2q117 -12 213 -12q262 0 397.5 78t135.5 219l73 -23q0 -162 -149 -253t-428 -91q-137 0 -338 29 l-4 66q119 0 175 43t56 108q0 45 -36.5 70.5t-90.5 25.5q-84 0 -137 -76t-53 -182q0 -118 74.5 -193t187.5 -75q84 0 162 41l26 -49q-101 -64 -207 -64q-136 0 -232.5 92.5t-96.5 241.5zM2556 1309l2 49q92 6 115 6q20 -14 20 -80v-100q5 22 14 46t25 50.5t35 46.5 t45.5 33.5t56.5 13.5q14 0 27 -3.5t20 -6.5l6 -4l-2 -82q-40 10 -67 10q-55 0 -96.5 -59.5t-53.5 -116.5q0 -43 -1 -136.5t-1 -129.5l-86 -4q0 70 1 213t1 213q0 29 -4 37zM2998 1309l2 49q82 6 113 6q21 0 28 -21.5t7 -64.5q0 -54 -1 -162t-1 -162q0 -36 4 -48.5t16 -12.5 l47 10v-43q-49 -22 -84 -22q-40 0 -54.5 23t-14.5 83q0 53 1 161t1 163q0 37 -6 37zM3049 573l11 66q51 -31 108 -31q97 0 167.5 80t70.5 223q0 71 1 178t1 179q0 37 -4 37l-56 4v49q82 6 113 6q21 0 28 -21.5t7 -64.5q0 -73 -2 -179t-2 -177q0 -182 -88 -282.5t-213 -100.5 q-75 0 -142 34zM3058 1522q0 21 15 36t36 15q20 0 35.5 -15.5t15.5 -35.5q0 -23 -15 -38.5t-36 -15.5q-22 0 -36.5 15.5t-14.5 38.5zM3406 1522q0 20 15 35.5t34 15.5q22 0 37.5 -15.5t15.5 -35.5q0 -23 -15.5 -38.5t-37.5 -15.5q-19 0 -34 15.5t-15 38.5z" />
<glyph horiz-adv-x="1357" d="M113 356q0 117 69.5 199.5t173.5 130.5q-166 143 -166 336q0 139 111.5 237.5t304.5 98.5q79 0 144 -12.5t102 -30t62.5 -34.5t34.5 -29l9 -13l-53 -102q-4 4 -11 9.5t-32 21t-54 27t-76 21t-97 9.5q-134 0 -209.5 -64.5t-75.5 -159.5q0 -71 38.5 -134t101.5 -110.5 t148.5 -86t175.5 -64t187 -41.5q0 8 1.5 23.5t1.5 23.5q0 96 -25 242h164q20 -137 20 -242q0 -44 -2 -67h4q62 -4 90 -4l-12 -138h-49q-27 0 -51 3q-41 -199 -166.5 -317t-341.5 -118q-138 0 -241.5 30t-163.5 84t-88.5 121.5t-28.5 149.5zM281 358q0 -115 86.5 -184.5 t275.5 -69.5q139 0 224 86t118 234q-298 49 -508 172q-34 -10 -66.5 -28.5t-62.5 -46.5t-48.5 -70.5t-18.5 -92.5z" />
<glyph horiz-adv-x="1116" d="M78 264q0 62 25.5 114.5t66.5 89.5t101 66.5t119.5 48.5t130.5 32.5t127 20.5t116 11v31q0 129 -60 188.5t-192 59.5q-53 0 -100 -11.5t-76.5 -28t-52 -32.5t-31.5 -28l-10 -11l-92 78q4 7 11.5 17.5t39 38t70.5 48.5t108 38.5t149 17.5q204 0 302 -90.5t98 -282.5v-420 q0 -90 22 -128t70 -38q16 0 32 3t24 6l7 3v-108q-41 -21 -127 -21q-92 0 -135 48.5t-45 146.5h-2q-1 -4 -4 -11.5t-14.5 -28t-26.5 -39.5t-42.5 -42.5t-60.5 -40t-81.5 -28t-104.5 -11.5q-174 0 -268 77t-94 216zM246 281q0 -191 243 -191q58 0 107.5 18.5t77 41t50.5 54 t29 44.5t11 26v256q-82 -7 -146.5 -16t-137.5 -27.5t-121.5 -44t-80.5 -67t-32 -94.5z" />
<glyph horiz-adv-x="1116" d="M78 264q0 62 25.5 114.5t66.5 89.5t101 66.5t119.5 48.5t130.5 32.5t127 20.5t116 11v31q0 129 -60 188.5t-192 59.5q-53 0 -100 -11.5t-76.5 -28t-52 -32.5t-31.5 -28l-10 -11l-92 78q4 7 11.5 17.5t39 38t70.5 48.5t108 38.5t149 17.5q204 0 302 -90.5t98 -282.5v-420 q0 -90 22 -128t70 -38q16 0 32 3t24 6l7 3v-108q-41 -21 -127 -21q-92 0 -135 48.5t-45 146.5h-2q-1 -4 -4 -11.5t-14.5 -28t-26.5 -39.5t-42.5 -42.5t-60.5 -40t-81.5 -28t-104.5 -11.5q-174 0 -268 77t-94 216zM190 1329q3 5 8 12t23.5 26.5t40.5 34t59 26.5t78 12 q51 0 105.5 -16.5t93 -36t87 -36t89.5 -16.5q40 0 74 12.5t48 24.5l15 12l35 -81q-2 -4 -5.5 -10t-18.5 -22t-34 -28.5t-52 -22.5t-72 -10q-46 0 -99 16t-92 34.5t-89.5 34.5t-92.5 16q-44 0 -85 -18.5t-60 -36.5l-19 -19zM246 281q0 -191 243 -191q58 0 107.5 18.5t77 41 t50.5 54t29 44.5t11 26v256q-82 -7 -146.5 -16t-137.5 -27.5t-121.5 -44t-80.5 -67t-32 -94.5z" />
<glyph horiz-adv-x="1116" d="M78 264q0 62 25.5 114.5t66.5 89.5t101 66.5t119.5 48.5t130.5 32.5t127 20.5t116 11v31q0 129 -60 188.5t-192 59.5q-53 0 -100 -11.5t-76.5 -28t-52 -32.5t-31.5 -28l-10 -11l-92 78q4 7 11.5 17.5t39 38t70.5 48.5t108 38.5t149 17.5q204 0 302 -90.5t98 -282.5v-420 q0 -90 22 -128t70 -38q16 0 32 3t24 6l7 3v-108q-41 -21 -127 -21q-92 0 -135 48.5t-45 146.5h-2q-1 -4 -4 -11.5t-14.5 -28t-26.5 -39.5t-42.5 -42.5t-60.5 -40t-81.5 -28t-104.5 -11.5q-174 0 -268 77t-94 216zM242 1319l276 203h92l275 -203l-56 -102l-266 194l-266 -194 zM246 281q0 -191 243 -191q58 0 107.5 18.5t77 41t50.5 54t29 44.5t11 26v256q-82 -7 -146.5 -16t-137.5 -27.5t-121.5 -44t-80.5 -67t-32 -94.5z" />
<glyph horiz-adv-x="1116" d="M78 264q0 62 25.5 114.5t66.5 89.5t101 66.5t119.5 48.5t130.5 32.5t127 20.5t116 11v31q0 129 -60 188.5t-192 59.5q-53 0 -100 -11.5t-76.5 -28t-52 -32.5t-31.5 -28l-10 -11l-92 78q4 7 11.5 17.5t39 38t70.5 48.5t108 38.5t149 17.5q204 0 302 -90.5t98 -282.5v-420 q0 -90 22 -128t70 -38q16 0 32 3t24 6l7 3v-108q-41 -21 -127 -21q-92 0 -135 48.5t-45 146.5h-2q-1 -4 -4 -11.5t-14.5 -28t-26.5 -39.5t-42.5 -42.5t-60.5 -40t-81.5 -28t-104.5 -11.5q-174 0 -268 77t-94 216zM246 281q0 -191 243 -191q58 0 107.5 18.5t77 41t50.5 54 t29 44.5t11 26v256q-82 -7 -146.5 -16t-137.5 -27.5t-121.5 -44t-80.5 -67t-32 -94.5zM307 1249v142h146v-142h-146zM672 1249v142h145v-142h-145z" />
<glyph horiz-adv-x="1116" d="M78 264q0 62 25.5 114.5t66.5 89.5t101 66.5t119.5 48.5t130.5 32.5t127 20.5t116 11v31q0 129 -60 188.5t-192 59.5q-53 0 -100 -11.5t-76.5 -28t-52 -32.5t-31.5 -28l-10 -11l-92 78q4 7 11.5 17.5t39 38t70.5 48.5t108 38.5t149 17.5q204 0 302 -90.5t98 -282.5v-420 q0 -90 22 -128t70 -38q16 0 32 3t24 6l7 3v-108l-30 -10q-27 -14 -53 -32.5t-60 -50t-55 -77t-21 -96.5q0 -156 260 -156v-88q-379 0 -379 240q0 143 164 254q-68 10 -99.5 57t-33.5 133h-2q-1 -4 -4 -11.5t-14.5 -28t-26.5 -39.5t-42.5 -42.5t-60.5 -40t-81.5 -28 t-104.5 -11.5q-174 0 -268 77t-94 216zM246 281q0 -191 243 -191q58 0 107.5 18.5t77 41t50.5 54t29 44.5t11 26v256q-82 -7 -146.5 -16t-137.5 -27.5t-121.5 -44t-80.5 -67t-32 -94.5z" />
<glyph horiz-adv-x="1116" d="M78 264q0 62 25.5 114.5t66.5 89.5t101 66.5t119.5 48.5t130.5 32.5t127 20.5t116 11v31q0 129 -60 188.5t-192 59.5q-53 0 -100 -11.5t-76.5 -28t-52 -32.5t-31.5 -28l-10 -11l-92 78q4 7 11.5 17.5t39 38t70.5 48.5t108 38.5t149 17.5q204 0 302 -90.5t98 -282.5v-420 q0 -90 22 -128t70 -38q16 0 32 3t24 6l7 3v-108q-41 -21 -127 -21q-92 0 -135 48.5t-45 146.5h-2q-1 -4 -4 -11.5t-14.5 -28t-26.5 -39.5t-42.5 -42.5t-60.5 -40t-81.5 -28t-104.5 -11.5q-174 0 -268 77t-94 216zM207 1389l131 20l8 2q2 -5 5.5 -13t20 -29t38.5 -37t63 -29 t90 -13t89 12.5t62.5 30t37.5 35.5t20 30l6 13l10 -2l132 -20q-1 -4 -3.5 -11.5t-13 -29.5t-25.5 -41.5t-44 -44t-64 -41.5t-89.5 -29t-117.5 -12q-87 0 -155.5 21.5t-104.5 52t-59.5 61.5t-29.5 53zM246 281q0 -191 243 -191q58 0 107.5 18.5t77 41t50.5 54t29 44.5t11 26 v256q-82 -7 -146.5 -16t-137.5 -27.5t-121.5 -44t-80.5 -67t-32 -94.5z" />
<glyph horiz-adv-x="1116" d="M78 264q0 62 25.5 114.5t66.5 89.5t101 66.5t119.5 48.5t130.5 32.5t127 20.5t116 11v31q0 129 -60 188.5t-192 59.5q-53 0 -100 -11.5t-76.5 -28t-52 -32.5t-31.5 -28l-10 -11l-92 78q4 7 11.5 17.5t39 38t70.5 48.5t108 38.5t149 17.5q204 0 302 -90.5t98 -282.5v-420 q0 -90 22 -128t70 -38q16 0 32 3t24 6l7 3v-108q-41 -21 -127 -21q-92 0 -135 48.5t-45 146.5h-2q-1 -4 -4 -11.5t-14.5 -28t-26.5 -39.5t-42.5 -42.5t-60.5 -40t-81.5 -28t-104.5 -11.5q-174 0 -268 77t-94 216zM246 281q0 -191 243 -191q58 0 107.5 18.5t77 41t50.5 54 t29 44.5t11 26v256q-82 -7 -146.5 -16t-137.5 -27.5t-121.5 -44t-80.5 -67t-32 -94.5zM473 1180l199 293l157 -17l-235 -285z" />
<glyph horiz-adv-x="1116" d="M78 264q0 62 25.5 114.5t66.5 89.5t101 66.5t119.5 48.5t130.5 32.5t127 20.5t116 11v31q0 129 -60 188.5t-192 59.5q-53 0 -100 -11.5t-76.5 -28t-52 -32.5t-31.5 -28l-10 -11l-92 78q4 7 11.5 17.5t39 38t70.5 48.5t108 38.5t149 17.5q204 0 302 -90.5t98 -282.5v-420 q0 -90 22 -128t70 -38q16 0 32 3t24 6l7 3v-108q-41 -21 -127 -21q-92 0 -135 48.5t-45 146.5h-2q-1 -4 -4 -11.5t-14.5 -28t-26.5 -39.5t-42.5 -42.5t-60.5 -40t-81.5 -28t-104.5 -11.5q-174 0 -268 77t-94 216zM246 281q0 -191 243 -191q58 0 107.5 18.5t77 41t50.5 54 t29 44.5t11 26v256q-82 -7 -146.5 -16t-137.5 -27.5t-121.5 -44t-80.5 -67t-32 -94.5zM342 1294v90h440v-90h-440z" />
<glyph horiz-adv-x="1116" d="M78 264q0 62 25.5 114.5t66.5 89.5t101 66.5t119.5 48.5t130.5 32.5t127 20.5t116 11v31q0 129 -60 188.5t-192 59.5q-53 0 -100 -11.5t-76.5 -28t-52 -32.5t-31.5 -28l-10 -11l-92 78q4 7 11.5 17.5t39 38t70.5 48.5t108 38.5t149 17.5q204 0 302 -90.5t98 -282.5v-420 q0 -90 22 -128t70 -38q16 0 32 3t24 6l7 3v-108q-41 -21 -127 -21q-92 0 -135 48.5t-45 146.5h-2q-1 -4 -4 -11.5t-14.5 -28t-26.5 -39.5t-42.5 -42.5t-60.5 -40t-81.5 -28t-104.5 -11.5q-174 0 -268 77t-94 216zM246 281q0 -191 243 -191q58 0 107.5 18.5t77 41t50.5 54 t29 44.5t11 26v256q-82 -7 -146.5 -16t-137.5 -27.5t-121.5 -44t-80.5 -67t-32 -94.5zM352 1413q0 93 60.5 153t150.5 60q87 0 147 -60t60 -153q0 -94 -58.5 -152.5t-148.5 -58.5q-94 0 -152.5 58t-58.5 153zM432 1413q0 -61 37.5 -99t93.5 -38q55 0 92 38t37 99t-37.5 99 t-91.5 38q-57 0 -94 -37.5t-37 -99.5z" />
<glyph horiz-adv-x="1116" d="M78 264q0 62 25.5 114.5t66.5 89.5t101 66.5t119.5 48.5t130.5 32.5t127 20.5t116 11v31q0 129 -60 188.5t-192 59.5q-53 0 -100 -11.5t-76.5 -28t-52 -32.5t-31.5 -28l-10 -11l-92 78q4 7 11.5 17.5t39 38t70.5 48.5t108 38.5t149 17.5q204 0 302 -90.5t98 -282.5v-420 q0 -90 22 -128t70 -38q16 0 32 3t24 6l7 3v-108q-41 -21 -127 -21q-92 0 -135 48.5t-45 146.5h-2q-1 -4 -4 -11.5t-14.5 -28t-26.5 -39.5t-42.5 -42.5t-60.5 -40t-81.5 -28t-104.5 -11.5q-174 0 -268 77t-94 216zM246 281q0 -191 243 -191q58 0 107.5 18.5t77 41t50.5 54 t29 44.5t11 26v256q-82 -7 -146.5 -16t-137.5 -27.5t-121.5 -44t-80.5 -67t-32 -94.5zM287 1456l157 17l199 -293l-121 -9z" />
<glyph horiz-adv-x="542" d="M174 160v1376h166v-1300q0 -87 20.5 -114.5t69.5 -27.5q17 0 33.5 3t24.5 6l8 3v-108q-50 -23 -136 -23q-186 0 -186 185z" />
<glyph horiz-adv-x="542" d="M174 160v1376h166v-1300q0 -87 20.5 -114.5t69.5 -27.5q17 0 33.5 3t24.5 6l8 3v-108q-50 -23 -136 -23q-186 0 -186 185zM201 1640l198 293l158 -16l-235 -285z" />
<glyph horiz-adv-x="542" d="M174 160v1376h166v-1300q0 -87 20.5 -114.5t69.5 -27.5q17 0 33.5 3t24.5 6l8 3v-108q-50 -23 -136 -23q-186 0 -186 185zM182 -543q67 55 101.5 128.5t35.5 183.5h-51v133h150q8 -60 8 -127q0 -271 -178 -369z" />
<glyph horiz-adv-x="634" d="M174 160v1376h166v-1300q0 -87 20.5 -114.5t69.5 -27.5q17 0 33.5 3t24.5 6l8 3v-108q-50 -23 -136 -23q-186 0 -186 185zM477 1130q30 81 53 209t23 220h12l115 2q0 -98 -31 -232t-69 -213z" />
<glyph horiz-adv-x="657" d="M16 608l220 146v782h165v-672l230 154l47 -72l-277 -184v-526q0 -87 20.5 -114.5t70.5 -27.5q17 0 33.5 3t24.5 6l7 3v-108q-49 -23 -135 -23q-186 0 -186 185v491l-173 -114z" />
<glyph horiz-adv-x="1265" d="M98 891v129l127 4v145q0 198 70 291.5t237 93.5q50 0 91.5 -7t65 -17t39.5 -20.5t22 -17.5l6 -7l-35 -99q-5 4 -15.5 10.5t-52 17.5t-94.5 11q-90 0 -130 -62t-40 -210v-129h352v-133h-352v-891h-164v891h-127zM897 160v1376h166v-1300q0 -87 20.5 -114.5t69.5 -27.5 q17 0 33.5 3t24.5 6l8 3v-108q-50 -23 -136 -23q-186 0 -186 185z" />
<glyph horiz-adv-x="1253" d="M20 915v109q68 27 170 27q69 0 114.5 -47t55.5 -130q8 15 20 32.5t41 45.5t64.5 48.5t94 36.5t125.5 16q213 0 338.5 -136.5t125.5 -375.5q0 -170 -54.5 -297t-165.5 -200t-267 -73q-64 0 -119.5 13.5t-90 32.5t-59.5 37.5t-35 31.5l-11 14v-612h-164v1288 q0 85 -22.5 120.5t-71.5 35.5q-16 0 -38.5 -4t-36.5 -8zM367 236q5 -10 13.5 -21.5t31.5 -33.5t50 -38.5t71.5 -29.5t95.5 -13q370 0 370 437q0 387 -350 387q-59 0 -109 -18.5t-79 -43t-52 -55.5t-30.5 -47t-11.5 -27v-497z" />
<glyph horiz-adv-x="806" d="M20 915v109q68 27 170 27q68 0 114 -46.5t56 -125.5q13 27 31 51.5t49.5 55t79.5 49t105 18.5q55 0 95 -11.5t53 -22.5l13 -11l-32 -134q-46 33 -144 33q-47 0 -89 -18.5t-68.5 -44.5t-46.5 -52t-28 -44l-9 -19v-729h-166v782q-1 81 -24 115.5t-70 34.5q-16 0 -38.5 -4 t-36.5 -8z" />
<glyph horiz-adv-x="806" d="M20 915v109q68 27 170 27q68 0 114 -46.5t56 -125.5q13 27 31 51.5t49.5 55t79.5 49t105 18.5q55 0 95 -11.5t53 -22.5l13 -11l-32 -134q-46 33 -144 33q-47 0 -89 -18.5t-68.5 -44.5t-46.5 -52t-28 -44l-9 -19v-729h-166v782q-1 81 -24 115.5t-70 34.5q-16 0 -38.5 -4 t-36.5 -8zM350 1180l199 293l158 -17l-236 -285z" />
<glyph horiz-adv-x="806" d="M20 915v109q68 27 170 27q68 0 114 -46.5t56 -125.5q13 27 31 51.5t49.5 55t79.5 49t105 18.5q55 0 95 -11.5t53 -22.5l13 -11l-32 -134q-46 33 -144 33q-47 0 -89 -18.5t-68.5 -44.5t-46.5 -52t-28 -44l-9 -19v-729h-166v782q-1 81 -24 115.5t-70 34.5q-16 0 -38.5 -4 t-36.5 -8zM129 -543q67 55 101.5 128.5t35.5 183.5h-51v133h150q8 -60 8 -127q0 -271 -178 -369z" />
<glyph horiz-adv-x="806" d="M20 915v109q68 27 170 27q68 0 114 -46.5t56 -125.5q13 27 31 51.5t49.5 55t79.5 49t105 18.5q55 0 95 -11.5t53 -22.5l13 -11l-32 -134q-46 33 -144 33q-47 0 -89 -18.5t-68.5 -44.5t-46.5 -52t-28 -44l-9 -19v-729h-166v782q-1 81 -24 115.5t-70 34.5q-16 0 -38.5 -4 t-36.5 -8zM119 1376l55 101l264 -197l269 197l55 -101l-277 -202h-92z" />
<glyph horiz-adv-x="542" d="M174 160v864h166v-788q0 -87 20.5 -114.5t69.5 -27.5q17 0 33.5 3t24.5 6l8 3v-108q-50 -23 -136 -23q-186 0 -186 185z" />
<glyph horiz-adv-x="1255" d="M86 483q0 170 54.5 297t165.5 200t267 73q64 0 119.5 -13.5t89 -32.5t58.5 -37.5t35 -31.5l10 -14h4v82l16 18h148v-809q1 -73 22 -97t68 -24q17 0 33 3t23 6l7 3v-108q-47 -23 -133 -23t-130.5 39t-47.5 131l-4 -2q-11 -22 -30 -45.5t-57 -55t-102 -51.5t-143 -20 q-214 0 -343.5 137t-129.5 375zM256 487q0 -193 90 -289t260 -96q61 0 113 19.5t82 47.5t51 55.5t29 47.5l8 19v493q-3 6 -8.5 15.5t-27.5 33.5t-49.5 42.5t-74.5 33.5t-102 15q-189 0 -280 -115t-91 -322z" />
<glyph horiz-adv-x="1226" d="M86 483q0 170 54.5 297t165.5 200t267 73q64 0 119.5 -13.5t89 -32.5t58.5 -37.5t35 -31.5l10 -14h4v82l16 18h148v-809q1 -73 22 -97t68 -24q17 0 33 3t23 6l7 3v-108q-47 -23 -133 -23t-130.5 39t-47.5 131l-4 -2q-11 -22 -30 -45.5t-57 -55t-102 -51.5t-143 -20 q-214 0 -343.5 137t-129.5 375zM256 487q0 -193 90 -289t260 -96q61 0 113 19.5t82 47.5t51 55.5t29 47.5l8 19v493q-3 6 -8.5 15.5t-27.5 33.5t-49.5 42.5t-74.5 33.5t-102 15q-189 0 -280 -115t-91 -322zM541 1174l133 385l108 -33l-157 -377z" />
<glyph horiz-adv-x="542" d="M174 160v864h166v-788q0 -87 20.5 -114.5t69.5 -27.5q17 0 33.5 3t24.5 6l8 3v-108q-50 -23 -136 -23q-186 0 -186 185zM186 1174l133 385l109 -33l-158 -377z" />
<glyph horiz-adv-x="542" d="M174 160v864h166v-788q0 -87 20.5 -114.5t69.5 -27.5q17 0 33.5 3t24.5 6l8 3v-108q-50 -23 -136 -23q-186 0 -186 185z" />
<glyph horiz-adv-x="542" d="M4 1249v142h146v-142h-146zM174 160v864h166v-788q0 -87 20.5 -114.5t69.5 -27.5q17 0 33.5 3t24.5 6l8 3v-108q-50 -23 -136 -23q-186 0 -186 185zM369 1249v142h145v-142h-145z" />
<glyph horiz-adv-x="542" d="M-20 1249v142h145v-142h-145zM174 160v864h166v-788q0 -87 20.5 -114.5t69.5 -27.5q17 0 33.5 3t24.5 6l8 3v-108q-50 -23 -136 -23q-186 0 -186 185zM178 1174l133 385l109 -33l-158 -377zM442 1249v142h146v-142h-146z" />
<glyph horiz-adv-x="1236" d="M174 0v1024h860v-788q0 -87 20.5 -114.5t71.5 -27.5q16 0 32 3t24 6l8 3v-108q-41 -23 -127 -23q-193 0 -193 185v731h-530v-891h-166z" />
<glyph horiz-adv-x="1257" d="M174 -512v1536h166v-684q0 -106 72.5 -164.5t197.5 -58.5q58 0 108 12.5t80.5 30.5t52.5 35.5t31 30.5l9 12v786h164v-815q3 -70 23.5 -92.5t68.5 -22.5q16 0 32 3t23 6l8 3v-108q-49 -23 -135 -23q-158 0 -180 131q-11 -15 -29 -32t-57 -43t-105.5 -43t-148.5 -17 q-123 0 -215 45v-528h-166z" />
<glyph horiz-adv-x="1116" d="M78 264q0 62 25.5 114.5t66.5 89.5t101 66.5t119.5 48.5t130.5 32.5t127 20.5t116 11v31q0 129 -60 188.5t-192 59.5q-53 0 -100 -11.5t-76.5 -28t-52 -32.5t-31.5 -28l-10 -11l-92 78q4 7 11.5 17.5t39 38t70.5 48.5t108 38.5t149 17.5q204 0 302 -90.5t98 -282.5v-420 q0 -90 22 -128t70 -38q16 0 32 3t24 6l7 3v-108q-41 -21 -127 -21q-92 0 -135 48.5t-45 146.5h-2q-1 -4 -4 -11.5t-14.5 -28t-26.5 -39.5t-42.5 -42.5t-60.5 -40t-81.5 -28t-104.5 -11.5q-174 0 -268 77t-94 216zM246 281q0 -191 243 -191q58 0 107.5 18.5t77 41t50.5 54 t29 44.5t11 26v256q-82 -7 -146.5 -16t-137.5 -27.5t-121.5 -44t-80.5 -67t-32 -94.5z" />
<glyph horiz-adv-x="542" d="M174 160v864h166v-788q0 -87 20.5 -114.5t69.5 -27.5q17 0 33.5 3t24.5 6l8 3v-108q-50 -23 -136 -23q-186 0 -186 185zM184 1249v142h148v-142h-148z" />
<glyph horiz-adv-x="542" d="M4 1249v142h146v-142h-146zM174 160v864h166v-788q0 -87 20.5 -114.5t69.5 -27.5q17 0 33.5 3t24.5 6l8 3v-108q-50 -23 -136 -23q-186 0 -186 185zM369 1249v142h145v-142h-145z" />
<glyph horiz-adv-x="1576" d="M174 0v1024h205l395 -885l391 885h209v-793q0 -82 20.5 -109.5t69.5 -27.5q17 0 33 3t23 6l8 3v-108q-47 -23 -133 -23q-88 0 -128 43t-40 150v567l6 99l-379 -834h-160l-379 831l7 -98v-733h-148z" />
<glyph horiz-adv-x="1255" d="M174 0v1024h166v-426h549v426h164v-815q3 -70 23.5 -92.5t66.5 -22.5q17 0 33 3t23 6l7 3v-108q-47 -23 -133 -23q-89 0 -136.5 43t-47.5 142v297h-549v-457h-166z" />
<glyph horiz-adv-x="1236" d="M174 0v1024h860v-788q0 -87 20.5 -114.5t71.5 -27.5q16 0 32 3t24 6l8 3v-108q-41 -23 -127 -23q-193 0 -193 185v731h-530v-891h-166z" />
<glyph horiz-adv-x="1253" d="M20 915v109q68 27 170 27q69 0 114.5 -47t55.5 -130q8 15 20 32.5t41 45.5t64.5 48.5t94 36.5t125.5 16q213 0 338.5 -136.5t125.5 -375.5q0 -170 -54.5 -297t-165.5 -200t-267 -73q-64 0 -119.5 13.5t-90 32.5t-59.5 37.5t-35 31.5l-11 14v-612h-164v1288 q0 85 -22.5 120.5t-71.5 35.5q-16 0 -38.5 -4t-36.5 -8zM367 236q5 -10 13.5 -21.5t31.5 -33.5t50 -38.5t71.5 -29.5t95.5 -13q370 0 370 437q0 387 -350 387q-59 0 -109 -18.5t-79 -43t-52 -55.5t-30.5 -47t-11.5 -27v-497z" />
<glyph horiz-adv-x="851" d="M6 891v133h819v-133h-348v-655q0 -87 20.5 -114.5t69.5 -27.5q17 0 33.5 3t24.5 6l8 3v-108q-49 -23 -135 -23q-187 0 -187 185v731h-305z" />
<glyph horiz-adv-x="1128" d="M102 705q0 319 422 319h402v-788q0 -87 20.5 -114.5t71.5 -27.5q16 0 32 3t24 6l7 3v-108q-49 -23 -135 -23q-89 0 -136.5 43t-47.5 142v229h-266l-213 -389h-174l233 408q-118 31 -179 107.5t-61 189.5zM262 705q0 -145 144 -187l2 2l14 -6l4 -2q41 -8 102 -8h234v403 h-221q-146 0 -212.5 -49t-66.5 -153z" />
<glyph horiz-adv-x="698" d="M-18 1067q34 27 55 46.5t50.5 52t46.5 63t29.5 73t12.5 87.5h-49v147h164q6 -44 6 -82q0 -152 -70.5 -271t-171.5 -175zM328 160v864h166v-788q0 -87 20.5 -114.5t69.5 -27.5q17 0 33.5 3t24.5 6l7 3v-108q-49 -23 -135 -23q-186 0 -186 185zM522 1249v142h146v-142h-146 z" />
<glyph horiz-adv-x="1095" d="M2 1249v142h145v-142h-145zM174 160v864h166v-788q0 -87 20.5 -114.5t69.5 -27.5q17 0 33.5 3t24.5 6l8 3v-108q-50 -23 -136 -23q-186 0 -186 185zM305 1249v142h146v-142h-146zM621 1249v142h145v-142h-145zM727 160v864h166v-788q0 -87 20.5 -114.5t69.5 -27.5 q17 0 33.5 3t24.5 6l8 3v-108q-50 -23 -136 -23q-186 0 -186 185zM922 1249v142h145v-142h-145z" />
<glyph horiz-adv-x="1095" d="M174 160v864h166v-788q0 -87 20.5 -114.5t69.5 -27.5q17 0 33.5 3t24.5 6l8 3v-108q-50 -23 -136 -23q-186 0 -186 185zM184 1249v142h148v-142h-148zM594 1249v142h143v-142h-143zM727 160v864h166v-788q0 -87 20.5 -114.5t69.5 -27.5q17 0 33.5 3t24.5 6l8 3v-108 q-50 -23 -136 -23q-186 0 -186 185zM922 1249v142h145v-142h-145z" />
<glyph horiz-adv-x="802" d="M98 457v129l127 2v303h-127v129l127 2v147q0 198 70 291.5t237 93.5q50 0 91.5 -7t65 -17t39.5 -20.5t22 -17.5l6 -7l-35 -99q-5 4 -15.5 10.5t-52 17.5t-94.5 11q-90 0 -130 -62t-40 -210v-129h352v-133h-352v-301h352v-133h-352v-969h-164v969h-127z" />
<glyph horiz-adv-x="1255" d="M86 483q0 260 130 415t376 155q65 0 123.5 -15.5t99.5 -41t64 -44t41 -37.5l14 109h147v-1024h-147l-14 143q-11 -17 -25 -34t-45.5 -44t-68 -46t-93.5 -33.5t-121 -14.5q-219 0 -350 136.5t-131 375.5zM256 446q17 -350 358 -350q61 0 115 17.5t87 42t57.5 49t34.5 41.5 l10 18v182h-662zM260 578h658v219q-4 5 -11 14t-32.5 31.5t-55.5 40t-79.5 31.5t-104.5 14q-339 0 -375 -350z" />
<glyph horiz-adv-x="925" d="M78 186q0 43 20 79.5t52.5 62.5t79.5 46.5t94 33t103.5 22t101 14t92.5 7.5v30q0 81 -46 119.5t-149 38.5q-67 0 -124.5 -19.5t-81.5 -39.5l-25 -19l-52 72q3 4 9.5 11t32.5 25t57.5 32t87 25t119.5 11q163 0 241 -63.5t78 -198.5v-475h-119l-26 102q-8 -16 -23.5 -33 t-45 -39t-80 -36t-114.5 -14q-139 0 -210.5 53.5t-71.5 152.5zM223 199q0 -127 193 -127q49 0 88.5 13.5t60 32.5t34.5 38.5t18 33.5l4 13v162q-67 -5 -116.5 -10.5t-106 -18t-92 -29t-59.5 -44.5t-24 -64z" />
<glyph horiz-adv-x="907" d="M86 344q0 180 109.5 286.5t289.5 106.5q159 0 254 -90t95 -244q0 -23 -4 -42t-8 -27l-3 -8h-583v-9q0 -241 272 -241q56 0 105 9.5t79.5 23t52.5 27t31 22.5l10 10l37 -74q-3 -5 -10.5 -12.5t-35.5 -27t-62.5 -34.5t-95.5 -27.5t-132 -12.5q-185 0 -293 94t-108 270z M236 412h462q2 2 2 16q0 100 -57.5 153.5t-157.5 53.5q-111 0 -176 -60t-73 -163z" />
<glyph horiz-adv-x="999" d="M86 358q0 179 104.5 279t309.5 100q203 0 307 -100t104 -279q0 -178 -106 -278t-305 -100q-205 0 -309.5 99.5t-104.5 278.5zM240 358q0 -137 64 -210.5t196 -73.5t196 73.5t64 210.5q0 279 -260 279t-260 -279z" />
<glyph horiz-adv-x="1226" d="M72 0l428 1024h229l426 -1024h-184l-99 256h-522l-94 -256h-184zM395 369h434l-217 538z" />
<glyph horiz-adv-x="1153" d="M227 0v1024h363q193 0 291 -71t98 -187q0 -137 -127 -221q90 -31 139 -95.5t49 -154.5q0 -144 -104.5 -219.5t-343.5 -75.5h-365zM383 117h192q164 0 233 45.5t69 142.5q0 176 -248 176h-246v-364zM383 578h240q45 0 86.5 14t74.5 54.5t33 101.5q0 159 -260 159h-174 v-329z" />
<glyph horiz-adv-x="1144" d="M113 500q0 250 150.5 401.5t412.5 151.5q77 0 145 -17.5t109.5 -42.5t72.5 -50t43 -43l13 -17l-58 -101q-5 6 -13.5 16t-39.5 35t-65 44t-88 35t-111 16q-202 0 -311 -114t-109 -314q0 -194 109 -299t311 -105q68 0 129 16t100 38.5t68 45t42 38.5l13 16l60 -84 q-4 -8 -12 -21t-42.5 -46.5t-77.5 -59.5t-121.5 -47t-170.5 -21q-268 0 -413.5 142t-145.5 387z" />
<glyph horiz-adv-x="1331" d="M227 0v1024h394q285 0 441.5 -132.5t156.5 -383.5q0 -248 -154.5 -378t-443.5 -130h-394zM393 129h228q206 0 326 94t120 285q0 193 -120.5 291t-325.5 98h-228v-768z" />
<glyph horiz-adv-x="1030" d="M227 0v1024h658v-123h-494v-330h447v-112h-447v-336h545v-123h-709z" />
<glyph horiz-adv-x="985" d="M227 0v1024h729v-123h-563v-354h479v-113h-479v-434h-166z" />
<glyph horiz-adv-x="1316" d="M113 508q0 252 156 398.5t448 146.5q69 0 132.5 -11.5t104.5 -27.5t73 -32.5t46 -27.5l14 -12l-49 -102q-6 4 -16.5 9.5t-44 21t-68.5 27t-86.5 21t-101.5 9.5q-223 0 -340 -110.5t-117 -309.5t110.5 -305.5t309.5 -106.5q67 0 122 13.5t87 31t56 41t32.5 37t13.5 25.5 v202h-266v119h401v-565h-112l-14 92q-131 -121 -353 -121q-255 0 -396.5 144t-141.5 393z" />
<glyph horiz-adv-x="1337" d="M227 0v1024h166v-461h551v461h166v-1024h-166v451h-551v-451h-166z" />
<glyph horiz-adv-x="620" d="M227 0v1024h166v-1024h-166z" />
<glyph horiz-adv-x="811" d="M14 106l74 74q2 -3 6.5 -8.5t20 -19t33 -23.5t46.5 -18.5t60 -8.5q36 0 65.5 9t57 30t43.5 63t16 101v719h166v-727q0 -92 -25.5 -158t-71.5 -101.5t-99 -51t-119 -15.5q-61 0 -111.5 14t-79 33.5t-48.5 39.5t-27 34z" />
<glyph horiz-adv-x="1232" d="M227 0v1024h166v-541l154 101l426 440h182l-477 -494l516 -530h-190l-443 449l-168 -99v-350h-166z" />
<glyph horiz-adv-x="983" d="M227 0v1024h166v-899h565v-125h-731z" />
<glyph horiz-adv-x="1726" d="M227 0v1024h209l426 -877l426 877h211v-1024h-151v836l-406 -836h-162l-403 836v-836h-150z" />
<glyph horiz-adv-x="1429" d="M227 0v1024h181l636 -813l-2 31v782h160v-1024h-182l-639 817h-4l8 -49v-768h-158z" />
<glyph horiz-adv-x="1290" d="M113 510q0 252 134.5 397.5t397.5 145.5q262 0 397.5 -145.5t135.5 -397.5t-135.5 -395.5t-397.5 -143.5q-263 0 -397.5 143t-134.5 396zM264 510q0 -199 93.5 -306.5t287.5 -107.5t287.5 107.5t93.5 306.5q0 200 -94 309t-287 109q-194 0 -287.5 -109t-93.5 -309z" />
<glyph horiz-adv-x="1060" d="M227 0v1024h318q214 0 325 -83.5t111 -246.5q0 -93 -33.5 -163t-93.5 -111.5t-136.5 -61.5t-170.5 -20h-154v-338h-166zM393 451h139q60 0 110 11.5t93 37.5t67.5 74t24.5 114q0 221 -292 221h-142v-458z" />
<glyph horiz-adv-x="1290" d="M113 510q0 252 134.5 397.5t397.5 145.5q262 0 397.5 -145.5t135.5 -397.5q0 -158 -54.5 -276t-160.5 -185l221 -168l-107 -88q-80 72 -239 203q-89 -25 -193 -25q-263 0 -397.5 143t-134.5 396zM264 510q0 -199 93.5 -306.5t287.5 -107.5t287.5 107.5t93.5 306.5 q0 200 -94 309t-287 109q-194 0 -287.5 -109t-93.5 -309z" />
<glyph horiz-adv-x="1130" d="M227 0v1024h330q215 0 319.5 -89.5t104.5 -236.5q0 -107 -53.5 -184.5t-163.5 -114.5l289 -399h-189l-260 371q-18 -2 -55 -2h-166v-369h-156zM383 496h154q286 0 286 202q0 100 -73.5 154.5t-214.5 54.5h-152v-411z" />
<glyph horiz-adv-x="1060" d="M111 135l75 109q5 -6 13.5 -15.5t41 -34.5t70 -44t100 -34.5t130.5 -15.5q126 0 191 52.5t65 132.5q0 46 -35 79t-91.5 53t-124.5 37.5t-135.5 40t-124 53t-91.5 84t-35 126.5q0 132 105.5 213.5t289.5 81.5q73 0 135.5 -13t99.5 -31.5t63.5 -37.5t36.5 -32l11 -13 l-45 -103q-5 4 -13.5 11.5t-38 26.5t-61.5 33t-81.5 26t-100.5 12q-117 0 -182.5 -45t-65.5 -121q0 -50 35 -86t91 -58t123.5 -41.5t135.5 -42t124 -52t91 -80.5t35 -119q0 -141 -111 -228.5t-311 -87.5q-82 0 -155 17t-118.5 41t-79 48t-47.5 41z" />
<glyph horiz-adv-x="856" d="M12 901v123h832v-123h-334v-901h-166v901h-332z" />
<glyph horiz-adv-x="1359" d="M207 334v690h166v-653q0 -119 79.5 -187.5t227.5 -68.5q150 0 229.5 68.5t79.5 187.5v653h164v-690q0 -160 -119 -261.5t-354 -101.5q-233 0 -353 102t-120 261z" />
<glyph horiz-adv-x="1196" d="M55 1024h185l358 -879l367 879h174l-443 -1024h-196z" />
<glyph horiz-adv-x="1792" d="M55 1024h170l275 -879l309 879h178l305 -877l273 877h170l-342 -1024h-187l-309 870l-311 -870h-185z" />
<glyph horiz-adv-x="1224" d="M63 0l451 514l-438 510h194l342 -424l346 424h195l-442 -512l452 -512h-202l-349 426l-348 -426h-201z" />
<glyph horiz-adv-x="1107" d="M23 1024h174l356 -504l358 504h174l-448 -621v-403h-166v403z" />
<glyph horiz-adv-x="1095" d="M94 0v106l707 795h-707v123h907v-106l-708 -795h708v-123h-907z" />
<glyph horiz-adv-x="1226" d="M72 0l428 1024h229l426 -1024h-184l-99 256h-522l-94 -256h-184zM336 1411l158 16l198 -292l-121 -9zM395 369h434l-217 538z" />
<glyph horiz-adv-x="1226" d="M72 0l428 1024h229l426 -1024h-184l-99 256h-522l-94 -256h-184zM395 369h434l-217 538zM522 1135l199 292l158 -16l-236 -285z" />
<glyph horiz-adv-x="1226" d="M72 0l428 1024h229l426 -1024h-184l-99 256h-522l-94 -256h-184zM291 1274l276 203h92l275 -203l-55 -103l-267 195l-266 -195zM395 369h434l-217 538z" />
<glyph horiz-adv-x="1226" d="M72 0l428 1024h229l426 -1024h-184l-99 256h-522l-94 -256h-184zM240 1284q3 5 8 12t23.5 26.5t40.5 34t59 26.5t78 12q51 0 105 -16.5t93 -36t87 -36t89 -16.5q40 0 74.5 12t48.5 24l15 13l34 -82q-2 -4 -5.5 -10t-18.5 -22t-34 -28t-52 -22t-72 -10q-58 0 -125 25.5 t-131 50.5t-117 25q-44 0 -85 -18.5t-60 -37.5l-19 -18zM395 369h434l-217 538z" />
<glyph horiz-adv-x="1226" d="M72 0l428 1024h229l426 -1024h-184l-99 256h-522l-94 -256h-184zM356 1204v142h146v-142h-146zM395 369h434l-217 538zM721 1204v142h145v-142h-145z" />
<glyph horiz-adv-x="1226" d="M72 0l428 1024h229l426 -1024h-184l-99 256h-522l-94 -256h-184zM395 369h434l-217 538zM401 1368q0 93 60.5 153t150.5 60q87 0 147 -60t60 -153q0 -94 -58.5 -152.5t-148.5 -58.5q-94 0 -152.5 58t-58.5 153zM481 1368q0 -61 37.5 -99t93.5 -38q55 0 92 38t37 99 t-37.5 99t-91.5 38q-57 0 -94 -37.5t-37 -99.5z" />
<glyph horiz-adv-x="1564" d="M-33 0l733 1024h746v-123h-494v-330h447v-112h-447v-336h545v-123h-709v248h-477l-168 -248h-176zM385 356h403v594z" />
<glyph horiz-adv-x="1144" d="M113 500q0 250 150.5 401.5t412.5 151.5q77 0 145 -17.5t109.5 -42.5t72.5 -50t43 -43l13 -17l-58 -101q-5 6 -13.5 16t-39.5 35t-65 44t-88 35t-111 16q-202 0 -311 -114t-109 -314q0 -194 109 -299t311 -105q68 0 129 16t100 38.5t68 45t42 38.5l13 16l60 -84 q-4 -7 -11.5 -19.5t-39 -44.5t-71.5 -57t-111.5 -47.5t-155.5 -26.5l-17 -116q0 -3 23 -7t56 -13t66.5 -24t56.5 -47.5t23 -76.5q0 -95 -59.5 -148t-179.5 -53q-48 0 -88.5 9.5t-65 22.5t-42 26t-24.5 22l-7 10l43 47q6 -7 18 -17.5t53.5 -28t87.5 -17.5q160 0 160 125 q0 41 -33.5 67.5t-73 34.5t-73 15t-33.5 14l23 157q-244 13 -376 153.5t-132 373.5z" />
<glyph horiz-adv-x="1030" d="M227 0v1024h658v-123h-494v-330h447v-112h-447v-336h545v-123h-709zM262 1411l158 16l198 -292l-120 -9z" />
<glyph horiz-adv-x="1030" d="M227 0v1024h658v-123h-494v-330h447v-112h-447v-336h545v-123h-709zM449 1135l198 292l158 -16l-236 -285z" />
</font>
</defs>
</svg>
